<?xml version="1.0" standalone="no"?>
<!DOCTYPE svg PUBLIC "-//W3C//DTD SVG 20010904//EN"
 "http://www.w3.org/TR/2001/REC-SVG-20010904/DTD/svg10.dtd">
<svg version="1.0" xmlns="http://www.w3.org/2000/svg"
 width="435.000000pt" height="418.000000pt" viewBox="0 0 435.000000 418.000000"
 preserveAspectRatio="xMidYMid meet">
<metadata>
Created by potrace 1.16, written by Peter Selinger 2001-2019
</metadata>
<g transform="translate(0.000000,418.000000) scale(0.100000,-0.100000)"
fill="#000000" stroke="none">
<path d="M560 3995 c0 -40 -4 -47 -32 -65 -49 -30 -130 -59 -244 -87 -98 -24
-204 -73 -204 -94 0 -17 30 -22 48 -6 31 26 60 37 183 68 66 16 149 42 184 58
l63 29 6 -22 c4 -11 29 -111 57 -221 53 -212 105 -391 171 -595 50 -155 91
-323 113 -460 30 -193 36 -224 76 -390 22 -91 44 -185 49 -210 66 -308 84
-378 136 -515 12 -33 25 -76 29 -95 4 -19 16 -51 25 -70 26 -51 36 -112 19
-105 -20 7 -43 -11 -36 -28 3 -9 20 -17 38 -19 l33 -3 48 -149 c26 -82 46
-152 43 -156 -3 -4 -22 -11 -42 -14 -35 -6 -98 -24 -282 -78 -35 -10 -65 -17
-66 -16 -25 36 -81 255 -101 392 -8 61 -27 155 -41 209 -15 60 -22 108 -18
124 5 21 1 31 -14 42 -16 12 -28 49 -50 146 -17 72 -53 200 -81 285 -28 85
-85 274 -125 420 -41 146 -87 310 -103 365 -77 262 -87 307 -138 565 -14 74
-39 182 -54 240 -16 58 -34 124 -40 147 -14 54 -44 73 -71 46 -18 -18 -18 -20
0 -68 24 -62 62 -223 91 -380 25 -136 115 -493 182 -725 46 -158 95 -332 128
-451 10 -37 37 -122 59 -190 57 -176 73 -245 62 -266 -5 -10 -15 -49 -21 -88
-37 -206 -136 -496 -245 -715 -40 -81 -76 -157 -80 -170 -12 -38 -118 -224
-154 -268 -26 -34 -31 -45 -21 -57 9 -11 8 -21 -6 -45 -17 -28 -22 -30 -76
-30 l-58 0 0 -33 0 -34 237 -8 c131 -4 382 -6 558 -5 455 4 491 4 982 0 244
-2 445 -2 447 1 5 5 480 2 841 -5 320 -7 450 -18 588 -51 114 -28 208 -33 226
-12 6 8 8 17 4 20 -9 9 20 10 312 7 66 -1 128 -1 138 -1 13 1 17 10 17 40 0
40 0 40 -42 43 -37 3 -43 6 -46 28 -5 48 -25 110 -38 121 -7 6 -64 13 -126 15
-62 3 -135 11 -163 19 -64 17 -112 23 -260 30 -244 12 -366 36 -635 125 -96
32 -239 72 -317 89 -167 37 -183 43 -331 127 -116 66 -186 92 -217 81 -24 -10
-5 -32 31 -35 62 -5 86 -64 86 -207 -1 -107 -18 -168 -65 -232 -49 -67 -78
-92 -85 -74 -3 10 -12 6 -31 -17 l-26 -31 -239 -3 -239 -3 -25 48 c-33 67 -67
80 -287 107 -219 28 -411 28 -640 1 -88 -11 -193 -22 -233 -26 l-73 -6 56 111
c31 61 64 132 74 158 10 26 64 138 118 249 55 111 115 243 133 293 21 58 36
87 40 78 5 -7 15 -62 25 -123 24 -157 63 -330 91 -399 13 -33 24 -67 24 -76 0
-10 7 -23 15 -30 12 -10 20 -9 42 6 44 30 73 40 226 83 204 56 203 56 210 31
6 -25 42 -24 42 0 0 8 8 18 18 22 9 4 17 18 17 31 0 18 -9 27 -38 39 -37 14
-39 18 -80 139 -23 68 -42 129 -42 134 0 6 32 9 83 7 66 -3 86 0 96 12 17 20
6 55 -11 38 -13 -13 -111 -14 -162 -3 -28 6 -32 14 -84 166 -69 204 -121 374
-122 400 0 19 7 20 87 20 49 0 134 4 191 8 l102 8 1 -148 c0 -81 4 -175 8
-208 5 -38 4 -65 -2 -73 -8 -10 -7 -16 1 -21 7 -4 17 -49 23 -102 10 -95 28
-134 50 -112 7 7 7 22 0 49 -5 22 -13 65 -16 96 l-7 58 56 0 57 0 -7 -50 c-6
-49 -6 -50 19 -50 24 0 26 4 29 53 l3 52 75 6 c41 4 104 9 140 13 l65 7 -40
-22 c-80 -43 -135 -81 -135 -96 0 -8 21 -24 48 -36 44 -21 62 -22 282 -23 129
-1 248 -2 264 -3 50 -3 59 16 36 79 -11 30 -20 56 -20 57 0 1 16 9 35 19 42
19 105 87 105 112 0 31 -22 47 -117 87 -120 49 -127 58 -60 74 29 7 71 19 95
27 23 8 59 16 79 18 60 8 64 23 16 65 -49 44 -87 57 -210 73 -51 6 -93 15 -93
20 0 4 6 8 14 8 8 0 71 27 141 61 95 45 125 65 123 77 -5 26 -101 69 -182 82
l-73 12 -17 121 c-14 95 -15 122 -5 128 15 9 112 19 149 16 22 -2 25 2 23 26
-1 21 2 27 11 24 8 -3 47 -9 87 -12 41 -4 136 -24 212 -46 75 -21 147 -39 159
-39 17 0 19 -3 10 -12 -7 -7 -12 -17 -12 -24 0 -18 32 -26 46 -12 24 25 62
243 85 483 13 143 3 283 -27 366 -8 24 -40 141 -69 261 -30 119 -59 228 -65
242 -31 81 91 -40 138 -137 44 -91 129 -347 141 -427 26 -160 8 -371 -44 -520
-52 -150 -50 -139 -33 -157 31 -30 61 -10 81 54 55 178 68 241 74 368 9 209
-12 321 -108 566 -76 193 -98 228 -202 320 -51 44 -119 105 -152 135 -56 50
-87 65 -99 46 -7 -11 2 -22 57 -65 26 -21 47 -44 47 -52 0 -20 -322 -195 -540
-295 -194 -88 -212 -96 -302 -134 -48 -20 -205 -93 -349 -162 -313 -150 -358
-169 -373 -154 -17 17 -36 11 -46 -15 -8 -21 -13 -24 -28 -16 -10 5 -24 6 -31
1 -11 -6 -8 -22 13 -77 49 -130 97 -407 66 -388 -25 15 -100 332 -100 422 0
56 -18 79 -43 54 -18 -18 40 -313 91 -459 19 -54 56 -86 83 -71 15 8 19 21 19
68 0 62 -31 247 -54 322 -14 46 -14 47 10 58 22 10 26 8 35 -17 9 -23 37 -126
70 -252 5 -19 9 -58 9 -86 0 -47 -2 -52 -25 -58 -18 -5 -25 -13 -25 -32 0 -31
31 -44 80 -33 19 5 137 9 263 9 l227 0 1 -22 c5 -79 12 -88 71 -88 28 0 38 -5
43 -21 6 -19 23 -169 19 -169 -1 0 -15 7 -30 15 -36 18 -84 19 -108 2 -15 -11
-18 -34 -20 -167 -2 -85 -6 -163 -10 -172 -10 -23 -25 -27 -79 -21 l-47 6 0
63 c0 66 -7 78 -35 67 -15 -5 -17 -15 -11 -65 l6 -58 -35 0 c-18 0 -37 -5 -40
-10 -11 -18 17 -42 42 -37 13 2 26 0 29 -5 6 -9 33 -262 34 -310 0 -27 -2 -28
-49 -28 -32 0 -53 5 -62 16 -16 20 -28 411 -11 400 11 -6 42 19 42 34 0 5 -11
17 -25 28 -17 14 -24 28 -22 48 2 23 -2 29 -18 29 -15 0 -21 -8 -25 -35 l-5
-35 -65 -7 c-103 -11 -283 -11 -311 0 -24 9 -28 21 -49 119 -12 59 -39 178
-60 263 -21 85 -48 225 -60 310 -22 160 -65 343 -124 528 -64 200 -143 477
-187 655 -46 186 -46 202 2 190 13 -4 19 0 19 10 0 19 -29 36 -47 30 -9 -3
-13 7 -13 30 0 23 -6 37 -16 41 -24 9 -24 9 -24 -39z m2294 -447 c22 -72 69
-249 137 -518 27 -108 25 -276 -6 -494 -30 -211 -30 -210 -58 -192 -12 8 -42
17 -67 20 -25 4 -91 20 -147 37 -78 22 -135 31 -250 38 -81 6 -165 15 -186 21
-28 8 -52 8 -92 0 -30 -6 -60 -8 -66 -4 -6 4 -177 6 -379 5 l-367 -2 -6 58
c-6 49 -72 314 -92 364 -4 12 3 20 27 29 18 7 121 55 228 105 253 119 367 171
636 290 122 53 320 148 440 210 121 63 220 114 221 114 1 1 14 -36 27 -81z
m-752 -1155 c85 -5 98 -8 104 -26 9 -29 -11 -37 -93 -37 -71 0 -73 1 -73 25 0
18 -5 25 -19 25 -11 0 -22 -6 -25 -12 -5 -10 -7 -10 -12 0 -9 20 -45 14 -51
-8 -5 -18 -43 -29 -43 -12 0 4 -3 17 -6 30 -6 21 -4 22 57 22 35 0 108 -3 161
-7z m117 -196 c-1 -57 0 -108 4 -114 4 -6 -16 -12 -56 -16 -34 -4 -72 -9 -84
-13 -20 -6 -21 -2 -27 73 -4 43 -8 94 -10 114 l-4 37 77 10 c42 5 82 10 89 11
11 1 13 -21 11 -102z m-279 -133 c10 -10 14 -36 13 -98 -1 -68 2 -86 15 -91
21 -8 32 12 32 58 0 42 10 48 25 15 16 -37 39 -28 45 17 5 38 7 40 55 54 41
11 68 12 151 3 105 -12 209 -40 209 -57 0 -15 -163 -92 -225 -106 -66 -15 -89
-31 -71 -52 15 -19 72 -33 186 -47 89 -11 184 -45 168 -61 -4 -4 -48 -18 -98
-30 -49 -12 -107 -26 -127 -31 -27 -6 -38 -14 -38 -27 0 -32 22 -46 188 -116
25 -11 42 -25 42 -34 0 -29 -31 -62 -75 -81 -42 -18 -58 -19 -190 -6 -158 15
-154 14 -170 52 -15 37 -38 44 -54 17 -9 -17 -11 -16 -35 6 -22 21 -26 22 -32
7 -3 -9 -4 -22 -1 -30 7 -17 -19 -22 -150 -32 l-91 -6 -7 78 c-3 44 -10 115
-14 159 -5 44 -7 82 -5 86 1 3 51 6 110 7 111 2 131 8 120 37 -5 13 -13 15
-37 10 l-32 -7 7 68 c4 38 7 109 7 159 0 58 5 92 12 97 15 9 47 0 67 -18z
m-1210 -616 c8 -29 14 -64 12 -78 -8 -70 -74 -237 -172 -435 -60 -121 -125
-258 -146 -305 -62 -139 -125 -240 -151 -240 -20 0 -20 4 19 72 51 92 174 347
243 503 63 141 139 372 156 468 6 37 14 67 18 67 4 0 14 -24 21 -52z m1486
-112 c23 -3 71 -11 108 -17 58 -11 66 -15 75 -41 13 -36 15 -36 -229 -41 -190
-4 -266 4 -264 29 0 5 29 24 64 43 57 31 64 32 75 17 17 -22 42 -20 50 4 5 17
13 19 43 15 20 -2 56 -7 78 -9z m278 -637 c34 -16 138 -46 231 -68 94 -22 215
-56 270 -76 260 -95 420 -128 687 -140 73 -4 169 -15 213 -25 93 -22 161 -31
225 -31 25 0 53 -3 62 -5 19 -6 43 -77 34 -99 -4 -11 -63 -13 -303 -10 -164 2
-365 8 -448 14 -198 14 -403 24 -545 26 -165 3 -245 30 -412 138 -48 32 -92
57 -98 57 -6 0 -15 -12 -20 -26 -6 -14 -37 -59 -71 -100 -58 -72 -62 -74 -104
-74 l-44 0 48 50 c66 69 97 131 109 218 10 71 10 105 -4 205 l-6 48 57 -37
c32 -20 85 -49 119 -65z m-1253 -304 c112 -14 218 -30 236 -36 26 -8 73 -63
73 -85 0 -7 -121 2 -179 13 -25 4 -90 5 -145 0 -263 -20 -1044 -22 -1064 -3
-8 9 14 38 37 50 14 8 96 21 181 30 85 9 169 18 185 21 45 6 254 25 305 28 25
1 72 3 106 5 33 1 152 -9 265 -23z m1270 -16 c35 -23 88 -54 119 -70 l55 -29
-183 0 c-101 0 -182 4 -180 8 8 20 104 131 114 131 6 1 40 -18 75 -40z"/>
<path d="M3699 3727 c-68 -46 -164 -114 -213 -151 -49 -37 -100 -72 -113 -77
-27 -10 -26 -32 1 -37 18 -4 100 47 161 99 50 42 223 159 276 185 33 17 49 31
49 45 0 34 -34 21 -161 -64z"/>
<path d="M453 3479 c-9 -9 -9 -18 1 -38 8 -14 34 -98 60 -186 25 -88 65 -223
88 -300 22 -77 62 -214 88 -305 26 -91 64 -221 84 -290 20 -68 36 -138 36
-156 0 -17 6 -47 14 -66 9 -20 14 -61 13 -96 -2 -62 7 -78 33 -62 10 6 9 30
-4 126 -20 138 -37 206 -141 559 -42 143 -98 339 -126 435 -69 244 -105 366
-113 379 -9 14 -19 14 -33 0z"/>
<path d="M3956 3324 c-16 -9 -77 -34 -135 -54 -194 -70 -245 -91 -328 -137
-78 -42 -105 -73 -65 -73 10 0 65 24 123 54 57 30 169 78 249 107 197 71 232
87 228 102 -7 18 -39 19 -72 1z"/>
<path d="M3404 2855 c-4 -9 -4 -18 -1 -21 3 -3 56 -15 119 -25 62 -11 163 -31
223 -45 168 -39 287 -64 302 -64 20 0 15 38 -7 50 -11 6 -24 8 -29 5 -5 -3
-40 2 -78 10 -140 31 -439 93 -481 99 -33 5 -44 3 -48 -9z"/>
</g>
</svg>
