<?xml version="1.0" standalone="no"?>
<!DOCTYPE svg PUBLIC "-//W3C//DTD SVG 20010904//EN"
 "http://www.w3.org/TR/2001/REC-SVG-20010904/DTD/svg10.dtd">
<svg version="1.0" xmlns="http://www.w3.org/2000/svg"
 width="889.000000pt" height="209.000000pt" viewBox="0 0 889.000000 209.000000"
 preserveAspectRatio="xMidYMid meet">
<metadata>
Created by potrace 1.16, written by Peter Selinger 2001-2019
</metadata>
<g transform="translate(0.000000,209.000000) scale(0.100000,-0.100000)"
fill="#000000" stroke="none">
<path d="M5811 2005 c-2 -11 -2 -38 -1 -60 2 -59 -61 -629 -70 -635 -7 -5 -25
-126 -34 -235 -2 -27 -7 -63 -10 -80 -3 -16 -8 -74 -12 -128 l-7 -98 -46 3
c-44 3 -47 5 -73 53 -25 48 -27 58 -34 257 -4 114 -10 205 -14 203 -4 -2 -10
-96 -13 -209 -6 -200 -7 -205 -34 -255 -27 -49 -29 -51 -74 -51 l-46 0 -16
198 c-19 237 -31 328 -44 344 -6 7 -18 87 -27 178 -10 91 -23 215 -31 275 -7
61 -14 135 -14 165 0 101 -4 86 -11 -35 -10 -192 -52 -558 -66 -575 -13 -16
-14 -23 -39 -335 -11 -133 -21 -205 -30 -214 -14 -14 -15 -8 -28 99 -4 38 -37
-256 -37 -332 0 -38 -5 -68 -11 -70 -6 -2 -13 -46 -16 -101 l-6 -97 -32 -6
c-17 -3 -45 -4 -61 -2 l-29 3 -3 107 c-3 107 -3 107 24 121 l26 14 -36 21
c-21 12 -41 22 -47 22 -5 0 -9 21 -9 47 0 39 5 51 28 70 l27 22 -26 -4 c-20
-4 -29 1 -40 22 -10 19 -11 27 -3 30 8 3 6 15 -6 41 -10 20 -16 40 -13 44 2 5
-2 8 -10 8 -13 0 -34 -60 -29 -83 5 -19 -29 -15 -93 12 -55 23 -72 36 -80 58
-5 15 -16 34 -22 41 -7 7 -13 18 -13 23 0 5 -4 9 -8 9 -5 0 -10 -21 -11 -47
-1 -26 -4 -49 -7 -52 -7 -7 -24 21 -18 31 3 4 -2 8 -10 8 -10 0 -16 -9 -16
-24 0 -13 -7 -27 -16 -30 -21 -8 -672 -8 -703 1 -22 6 -23 8 -17 87 3 45 9 93
12 109 5 20 2 27 -8 27 -11 0 -14 14 -13 58 0 31 -3 64 -7 72 -3 8 -9 23 -12
34 -5 15 -9 16 -22 6 -12 -11 -21 -7 -54 27 -22 21 -52 46 -67 53 -52 26 -63
40 -53 66 6 15 6 24 0 24 -6 0 -10 16 -10 35 0 34 -13 47 -23 23 -4 -10 -6
-10 -6 0 -1 6 -10 12 -20 12 -11 0 -22 6 -24 13 -4 9 -6 9 -6 0 -1 -7 -10 -13
-22 -13 -11 0 -17 -4 -14 -10 3 -5 1 -10 -4 -10 -6 0 -11 5 -11 10 0 6 -5 10
-11 10 -7 0 -9 -11 -6 -30 5 -21 2 -32 -10 -38 -11 -6 -12 -11 -4 -16 26 -16
10 -46 -37 -70 -27 -14 -63 -40 -79 -60 -23 -25 -37 -33 -52 -29 -24 6 -33
-10 -36 -66 -1 -20 -3 -38 -5 -41 -1 -3 -1 -17 0 -32 1 -20 -3 -28 -15 -28
-13 0 -16 -5 -10 -22 4 -13 10 -62 12 -109 5 -84 4 -86 -19 -92 -41 -12 -678
-8 -699 4 -14 7 -18 16 -14 30 4 13 2 19 -9 19 -9 0 -16 -9 -16 -20 0 -25 -20
-27 -21 -2 -1 9 -2 24 -3 32 -2 8 -3 23 -4 33 -1 9 -7 17 -13 17 -5 0 -8 -4
-4 -9 3 -5 -2 -16 -10 -24 -8 -9 -15 -22 -15 -29 0 -7 -6 -20 -13 -29 -13 -17
-147 -72 -156 -64 -10 10 -30 79 -25 87 3 4 -1 8 -9 8 -13 0 -40 -63 -42 -99
-4 -48 -5 -50 -30 -45 -32 6 -32 -9 0 -26 21 -11 25 -20 25 -61 0 -40 -3 -48
-22 -53 -13 -3 -31 -12 -41 -20 -18 -14 -18 -15 3 -36 18 -18 20 -31 18 -93
l-3 -72 -32 -3 -33 -3 0 265 c0 180 3 267 11 272 7 4 -1 18 -20 38 -16 17 -49
76 -71 131 -23 55 -60 137 -81 182 -21 45 -39 97 -40 115 0 30 -2 28 -14 -17
-7 -27 -24 -72 -38 -100 -13 -27 -46 -102 -72 -165 -27 -63 -62 -129 -78 -147
-24 -26 -28 -35 -18 -46 8 -10 11 -54 9 -138 l-3 -124 -42 -3 -43 -3 1 61 c1
55 4 63 25 72 31 14 32 45 2 44 -22 -1 -23 3 -26 87 -2 56 1 94 9 103 8 10 7
17 -5 30 -14 13 -36 16 -121 15 l-104 -2 -1 28 c0 53 -5 83 -13 83 -11 0 -27
-47 -27 -81 l0 -29 -76 0 -77 0 6 35 c4 23 2 33 -4 29 -6 -3 -13 4 -16 16 -8
31 -23 5 -23 -42 l0 -38 -70 0 -70 0 0 41 c0 23 -7 47 -15 55 -13 14 -16 12
-25 -11 -5 -14 -10 -40 -10 -56 l0 -29 -80 0 c-56 0 -82 4 -85 12 -2 7 -7 31
-11 53 l-7 40 -15 -53 -15 -53 -66 3 c-62 3 -66 5 -69 28 -2 14 -6 32 -9 40
-3 8 -5 18 -5 23 1 4 -2 7 -7 7 -11 0 -21 -35 -21 -73 l0 -28 -72 3 -73 3 -6
38 c-10 63 -27 67 -35 8 l-7 -51 -93 0 -94 0 0 -495 0 -495 4445 0 4445 0 0
409 0 409 -172 109 c-147 94 -173 114 -176 137 -2 15 -9 25 -15 23 -7 -2 -11
-15 -10 -28 2 -16 -10 -38 -36 -66 -42 -46 -62 -54 -58 -25 1 9 -2 17 -8 17
-5 0 -9 -10 -7 -22 l3 -23 -191 0 -190 0 0 55 c0 48 -2 55 -20 55 -18 0 -20
-7 -20 -55 l0 -55 -460 0 -460 0 0 56 c0 47 -3 55 -17 52 -14 -2 -19 -15 -21
-56 l-3 -52 -187 2 -187 3 3 29 c3 20 0 27 -10 24 -8 -3 -12 -16 -10 -34 4
-29 3 -28 -47 21 -41 39 -51 56 -49 77 2 15 -1 26 -7 25 -5 -1 -10 -12 -10
-24 0 -18 -34 -43 -169 -129 -93 -59 -182 -110 -198 -113 l-30 -6 21 -26 c19
-24 20 -40 21 -238 l0 -211 -60 0 -60 0 0 60 c0 45 -4 62 -15 66 -12 5 -15 24
-15 86 0 77 -27 328 -36 337 -2 2 -4 -19 -4 -47 0 -27 -3 -57 -6 -66 -11 -29
-24 -5 -24 44 0 27 -4 59 -10 72 -5 13 -14 88 -20 168 -18 228 -21 255 -32
261 -11 7 -55 387 -67 579 -4 69 -9 116 -10 105z"/>
</g>
</svg>
