<?xml version="1.0" standalone="no"?>
<!DOCTYPE svg PUBLIC "-//W3C//DTD SVG 20010904//EN"
 "http://www.w3.org/TR/2001/REC-SVG-20010904/DTD/svg10.dtd">
<svg version="1.0" xmlns="http://www.w3.org/2000/svg"
 width="700.000000pt" height="906.000000pt" viewBox="0 0 700.000000 906.000000"
 preserveAspectRatio="xMidYMid meet">
<metadata>
Created by potrace 1.16, written by Peter Selinger 2001-2019
</metadata>
<g transform="translate(0.000000,906.000000) scale(0.100000,-0.100000)"
fill="#000000" stroke="none">
<path d="M5390 8778 l0 -163 770 3 771 2 -3 158 -3 157 -767 3 -768 2 0 -162z
m453 51 c9 -12 17 -25 17 -30 0 -13 -54 -11 -68 3 -18 18 -34 -3 -30 -38 2
-23 9 -29 28 -31 14 -1 19 0 13 3 -7 3 -13 14 -13 25 0 15 7 19 35 19 l35 0 0
-48 0 -48 -59 -2 c-54 -2 -62 1 -80 25 -35 43 -22 119 23 142 29 15 78 5 99
-20z m503 6 c26 -26 25 -45 -4 -45 -13 0 -12 -3 6 -16 26 -18 28 -50 5 -76
-23 -25 -94 -25 -118 2 -19 21 -14 50 10 50 12 0 11 4 -5 20 -26 26 -25 36 5
65 31 32 69 32 101 0z m-386 -12 l13 -28 6 25 c5 18 15 26 34 28 l27 3 0 -85
c0 -85 0 -86 -25 -86 -19 0 -32 10 -48 38 l-22 37 -3 -37 c-3 -33 -7 -38 -28
-38 -24 0 -24 2 -24 85 l0 85 28 0 c22 0 32 -7 42 -27z m240 12 c0 -8 1 -18 3
-22 1 -5 -18 -11 -43 -14 l-45 -6 43 -1 c39 -2 43 -4 40 -24 -2 -18 -11 -24
-43 -29 l-40 -6 48 -2 c44 -1 48 -3 45 -23 -3 -21 -8 -23 -73 -23 l-70 0 -3
83 -3 82 71 0 c56 0 70 -3 70 -15z"/>
<path d="M4430 8611 c0 -203 4 -322 10 -326 7 -4 10 78 11 237 1 134 1 249 0
256 -3 24 35 12 57 -18 32 -43 75 -42 102 2 22 37 19 64 -12 91 -29 25 -55 21
-90 -14 -42 -42 -58 -32 -58 36 0 30 -4 55 -10 55 -6 0 -10 -113 -10 -319z"/>
<path d="M2160 8342 c0 -261 3 -402 10 -402 6 0 10 115 10 324 l0 324 26 6
c15 4 27 6 28 4 35 -61 37 -74 32 -193 -3 -66 -5 -132 -5 -147 0 -32 1 -186 0
-428 0 -60 0 -126 0 -145 0 -19 0 -84 0 -145 0 -60 0 -123 0 -140 0 -16 0 -79
0 -140 0 -60 0 -126 0 -145 0 -19 0 -84 0 -145 1 -210 0 -381 0 -422 0 -18 2
-78 5 -132 4 -70 2 -107 -7 -123 -10 -18 -10 -31 0 -60 8 -25 11 -70 7 -133
-3 -52 -5 -106 -5 -120 0 -14 2 -117 5 -229 3 -134 1 -208 -6 -215 -13 -13
-13 -53 0 -61 6 -4 10 -63 10 -144 0 -127 -2 -139 -21 -157 -16 -15 -20 -27
-16 -56 l5 -38 -57 0 -56 0 -127 128 c-69 70 -129 137 -133 150 -3 12 -21 28
-38 36 -40 17 -247 227 -247 250 0 10 -14 23 -32 31 -39 16 -188 166 -188 189
0 9 -15 22 -32 30 -40 16 -178 157 -178 180 0 9 -10 20 -23 25 -36 14 -224
198 -231 226 -4 16 -20 32 -43 43 -24 11 -48 35 -68 66 -29 48 -30 52 -28 165
2 129 2 137 2 286 0 58 0 120 0 138 0 17 -2 81 -5 141 -5 93 -3 114 13 143 16
29 22 33 60 33 l43 0 0 -69 c0 -39 5 -73 10 -76 7 -4 10 87 10 264 0 174 -4
271 -10 271 -6 0 -10 -68 -10 -185 l0 -185 -44 0 c-35 0 -46 4 -51 18 -7 24
-49 44 -72 35 -51 -18 -69 -69 -38 -109 18 -24 21 -224 3 -253 -9 -15 -9 -28
1 -58 8 -25 11 -68 7 -128 -7 -115 -7 -115 2 -275 8 -147 18 -177 75 -238 26
-26 29 -36 21 -50 -6 -9 -20 -18 -30 -20 -46 -7 -64 -13 -64 -21 0 -5 9 -7 20
-4 22 6 26 -7 8 -25 -14 -14 12 -37 52 -46 14 -2 35 -14 48 -26 13 -12 26 -20
29 -17 3 3 -4 12 -16 19 -20 12 -30 48 -13 48 13 0 62 -36 57 -42 -3 -3 4 -8
17 -11 19 -5 17 0 -15 29 -37 35 -48 64 -24 64 16 0 197 -181 197 -198 0 -26
-32 -10 -77 38 -47 50 -67 63 -57 35 3 -8 11 -13 17 -12 6 1 11 -2 12 -8 0
-12 49 -61 65 -67 7 -2 6 -10 -4 -23 -14 -19 -16 -18 -56 25 -23 25 -36 36
-29 25 8 -11 24 -31 37 -45 12 -14 26 -38 30 -54 6 -22 17 -33 44 -42 30 -10
36 -10 32 1 -3 7 0 16 6 20 15 9 61 -15 54 -27 -3 -5 0 -7 7 -6 7 2 13 -4 14
-12 0 -8 5 -15 12 -15 12 0 63 -62 63 -77 0 -14 -22 -9 -44 10 -21 17 -21 17
-4 -3 9 -11 19 -32 22 -47 7 -38 14 -48 36 -48 11 0 35 -14 55 -31 19 -17 35
-27 35 -21 0 5 -11 17 -24 27 -24 19 -25 45 -1 45 7 0 26 -15 41 -32 15 -18
31 -32 36 -30 4 1 8 -5 8 -13 0 -8 5 -15 10 -15 17 0 12 8 -35 57 -45 46 -57
73 -32 73 7 0 46 -34 87 -75 57 -58 72 -77 62 -87 -9 -9 -16 -7 -33 8 l-21 19
13 -28 c10 -22 10 -30 -1 -40 -10 -9 -13 -9 -17 1 -3 7 -14 17 -26 23 -20 9
-20 9 -5 -4 10 -8 23 -31 30 -52 10 -31 20 -41 44 -47 17 -4 37 -15 44 -23 7
-8 17 -15 23 -15 6 0 0 11 -12 24 -30 32 -8 46 24 16 12 -12 26 -17 29 -12 3
5 -3 17 -14 27 -23 20 -26 45 -7 45 16 0 217 -201 217 -218 0 -15 -15 -15 -41
-2 -17 10 -18 9 -7 -15 15 -34 3 -43 -25 -17 -30 29 -44 28 -17 0 11 -12 24
-36 28 -53 6 -23 16 -32 42 -40 18 -6 58 -35 89 -65 30 -30 47 -44 38 -30 -9
14 -33 40 -52 59 -19 19 -35 40 -35 47 0 17 12 18 28 2 8 -8 12 -9 12 -1 0 6
-5 13 -10 15 -7 2 -5 11 4 23 14 19 20 15 127 -92 85 -84 110 -115 105 -129
-6 -15 -9 -14 -34 9 -16 15 -33 27 -40 27 -6 0 4 -15 24 -33 25 -22 35 -40 32
-55 -3 -20 -6 -19 -46 18 -24 22 -46 40 -50 40 -4 0 11 -16 32 -35 22 -19 36
-35 32 -35 -5 0 2 -8 14 -18 18 -14 24 -32 28 -75 l4 -57 -86 0 -86 0 0 -302
c0 -210 3 -299 10 -292 7 7 10 106 8 292 l-3 282 74 0 c66 0 76 -3 97 -25 22
-24 29 -25 129 -25 59 0 115 5 126 11 13 6 119 10 295 9 154 0 273 3 270 8 -4
7 -111 10 -513 12 -19 0 -16 27 3 34 9 3 114 5 235 4 120 -2 219 0 219 5 0 4
-106 7 -235 7 -202 0 -235 2 -235 15 0 13 31 15 216 15 168 0 215 3 212 13 -4
9 -60 13 -219 17 -118 3 -212 7 -209 8 3 2 90 4 193 4 103 1 190 5 193 9 13
21 -47 29 -210 29 l-176 0 0 31 c0 17 -5 39 -10 50 -10 18 -6 19 87 19 116 0
143 12 143 64 0 40 -25 65 -74 73 l-36 6 0 132 c0 101 4 139 16 164 l16 33 67
-5 c36 -3 79 -8 94 -12 17 -5 37 -3 50 4 16 8 77 10 212 7 105 -3 207 -5 228
-5 20 0 90 0 155 1 64 0 133 -3 153 -7 23 -4 39 -3 43 4 5 7 83 11 244 11 274
0 278 -2 285 -80 l4 -45 1 51 c3 71 13 74 225 74 136 0 177 3 194 15 16 11 47
14 138 11 113 -3 117 -2 132 21 14 21 14 25 0 47 -15 22 -21 24 -114 22 l-98
-1 2 115 c1 63 1 126 1 140 -1 14 -2 84 -2 155 l-1 130 97 -2 c90 -3 98 -1
113 19 39 57 10 76 -112 72 -46 -1 -83 1 -83 5 0 13 55 60 83 70 17 7 130 11
293 11 l265 0 -2 -27 c-4 -50 1 -69 21 -91 28 -29 71 -28 99 2 21 22 23 32 19
101 -3 69 -6 80 -31 101 -15 12 -27 30 -27 39 0 13 25 15 190 15 120 0 190 4
190 10 0 7 -133 10 -382 9 -211 -1 -369 -5 -353 -9 17 -4 99 -8 183 -9 138 -1
152 -3 152 -18 0 -10 -14 -26 -31 -35 -27 -16 -63 -18 -312 -18 -251 0 -286
-2 -322 -19 -46 -20 -102 -79 -111 -116 -3 -14 -10 -25 -15 -25 -5 0 -15 -11
-21 -25 -9 -20 -8 -28 6 -44 15 -16 17 -36 13 -142 -3 -68 -8 -140 -12 -160
-4 -23 -3 -39 4 -43 7 -5 11 -46 11 -109 -1 -153 5 -149 -212 -143 -95 2 -182
4 -193 4 -11 0 -134 -2 -273 -4 -166 -3 -259 -1 -272 6 -18 10 -20 23 -23 213
l-2 202 -3 -202 c-2 -194 -3 -203 -23 -213 -14 -8 -63 -10 -147 -6 -70 3 -135
5 -144 4 -25 -1 -443 0 -470 1 -13 0 -67 -3 -120 -7 -77 -6 -103 -12 -127 -29
-17 -13 -39 -23 -51 -23 -19 0 -20 5 -20 190 0 132 4 196 12 210 10 15 10 26
0 53 -16 43 -16 191 0 234 10 27 10 38 0 53 -16 26 -16 204 0 229 9 15 9 28
-1 58 -8 25 -11 69 -7 133 7 116 7 119 0 249 -4 73 -2 112 7 128 10 18 10 31
0 60 -8 25 -11 70 -7 133 7 116 7 119 0 249 -4 73 -2 112 7 128 10 18 10 31 0
60 -8 25 -11 70 -7 133 3 52 5 107 5 123 0 30 -1 240 0 285 0 15 -2 83 -5 150
-4 101 -2 128 10 147 23 36 20 81 -6 99 -34 24 -63 19 -92 -15 -18 -21 -33
-29 -48 -27 -20 3 -24 10 -28 60 -13 148 -20 37 -20 -330z m3093 -1904 c20
-15 32 -92 23 -142 -8 -43 -29 -66 -61 -66 -37 0 -55 35 -55 110 0 43 5 73 16
88 17 24 51 29 77 10z m-554 -196 c19 -35 -5 -42 -150 -42 -117 0 -138 2 -143
16 -14 37 11 44 150 44 119 0 134 -2 143 -18z m-1 -624 c7 -7 8 -17 1 -30 -9
-16 -24 -18 -143 -18 -107 0 -136 3 -146 15 -10 12 -10 18 0 30 10 12 39 15
144 15 86 0 136 -4 144 -12z m-2201 -438 c49 0 69 -54 33 -90 -17 -17 -33 -20
-121 -20 -101 0 -101 0 -93 -22 4 -13 9 -71 11 -130 6 -144 2 -148 -140 -148
-147 0 -147 0 -147 149 0 85 4 122 13 129 7 6 54 12 105 13 91 1 115 10 93 32
-15 15 -14 62 2 75 18 15 41 17 136 15 47 -1 96 -2 108 -3z"/>
<path d="M5758 8574 c-21 -7 -24 -22 -18 -98 l5 -61 80 0 80 0 3 78 3 77 -33
0 c-18 0 -49 2 -68 4 -19 3 -43 2 -52 0z"/>
<path d="M1210 8341 l0 -70 33 -3 c17 -2 51 -1 75 1 l42 3 0 69 0 69 -75 0
-75 0 0 -69z"/>
<path d="M5742 8303 l3 -78 83 -3 82 -3 0 81 0 80 -85 0 -86 0 3 -77z"/>
<path d="M5937 8374 c-9 -9 -9 -116 -1 -138 5 -13 22 -16 80 -16 85 0 88 3 82
101 l-3 54 -75 3 c-42 1 -79 0 -83 -4z"/>
<path d="M5390 8178 c0 -5 345 -7 768 -6 422 2 643 4 492 5 -717 7 -1260 7
-1260 1z"/>
<path d="M982 8084 l3 -86 80 -1 80 -1 3 87 3 87 -86 0 -86 0 3 -86z m102 60
c9 -8 16 -26 16 -39 0 -14 7 -25 20 -28 15 -4 20 -14 20 -36 0 -17 -4 -31 -10
-31 -5 0 -10 6 -10 13 0 8 -4 7 -11 -3 -8 -12 -12 -12 -16 -2 -4 10 -8 10 -20
1 -12 -10 -16 -10 -23 1 -4 7 -6 19 -3 27 3 7 0 13 -6 13 -6 0 -11 -11 -11
-25 0 -18 -5 -25 -20 -25 -18 0 -20 7 -20 75 l0 75 39 0 c23 0 46 -7 55 -16z"/>
<path d="M6088 7548 l-3 -203 -32 -3 c-23 -2 -33 1 -33 11 0 23 -34 47 -67 47
-84 0 -82 -123 2 -132 24 -2 33 3 50 29 16 25 27 32 52 33 l32 0 4 -67 c2 -38
4 57 5 210 1 152 0 277 -3 277 -2 0 -6 -91 -7 -202z"/>
<path d="M1189 7388 c-3 -84 0 -111 12 -119 16 -10 112 -9 129 1 7 4 10 31 8
71 l-3 64 -72 3 c-70 3 -73 2 -74 -20z"/>
<path d="M5140 6650 l0 -70 75 0 75 0 0 70 0 70 -75 0 -75 0 0 -70z"/>
<path d="M4300 6495 l0 -85 85 0 85 0 0 85 0 85 -85 0 -85 0 0 -85z m108 63
c7 -7 12 -25 12 -40 0 -21 5 -28 20 -28 16 0 20 -7 20 -35 0 -19 -4 -35 -10
-35 -5 0 -10 6 -10 13 0 8 -4 7 -10 -3 -7 -11 -12 -12 -18 -3 -4 6 -16 11 -27
10 -14 -1 -20 4 -19 16 2 25 -14 21 -18 -5 -2 -13 -10 -23 -18 -23 -12 0 -16
16 -18 73 l-3 72 44 0 c23 0 48 -5 55 -12z"/>
<path d="M6040 6175 l0 -85 85 0 85 0 0 85 0 85 -85 0 -85 0 0 -85z m108 63
c7 -7 12 -25 12 -40 0 -21 5 -28 20 -28 16 0 20 -7 20 -35 0 -19 -4 -35 -10
-35 -5 0 -10 5 -10 11 0 8 -4 9 -13 0 -8 -6 -17 -8 -21 -4 -4 4 -15 8 -24 8
-10 0 -16 7 -16 18 1 9 -2 17 -7 17 -5 0 -9 -9 -9 -20 0 -13 -7 -20 -20 -20
-18 0 -20 7 -20 70 l0 70 43 0 c24 0 48 -5 55 -12z"/>
<path d="M471 6066 c-6 -8 -25 -19 -40 -26 -16 -6 -35 -25 -41 -41 -18 -44
-88 -106 -126 -114 -65 -12 -85 -79 -34 -117 l30 -22 0 -178 0 -178 -25 0
c-14 0 -25 -4 -25 -9 0 -6 124 -10 305 -10 184 0 305 4 305 9 0 6 -111 11
-272 12 l-273 3 -3 175 -2 175 29 16 c20 12 30 27 35 52 7 40 77 117 105 117
28 0 61 30 61 55 0 13 5 27 10 30 6 4 8 11 4 16 -3 5 -10 7 -15 4 -20 -13 -30
7 -13 26 9 10 12 19 7 19 -6 0 -16 -6 -22 -14z"/>
<path d="M1040 5345 l0 -85 85 0 85 0 0 85 0 85 -85 0 -85 0 0 -85z m110 60
c7 -8 10 -26 8 -40 -4 -21 -1 -25 18 -25 21 0 24 -5 24 -35 0 -19 -4 -35 -10
-35 -5 0 -10 8 -10 17 0 15 -2 14 -15 -3 -8 -10 -15 -13 -15 -7 0 7 -10 12
-22 10 -17 -1 -23 3 -22 16 1 9 -2 17 -7 17 -5 0 -9 -9 -9 -20 0 -13 -7 -20
-20 -20 -18 0 -20 7 -20 70 l0 70 44 0 c26 0 48 -6 56 -15z"/>
<path d="M4510 5056 c-9 -18 -9 -29 -1 -45 11 -19 20 -21 99 -21 93 0 112 8
112 46 0 35 -20 42 -111 42 -80 1 -87 -1 -99 -22z"/>
<path d="M2902 4944 c11 -11 41 -18 94 -21 127 -8 189 -40 303 -157 85 -86 54
-76 -39 14 -101 96 -149 121 -250 128 -69 5 -74 4 -61 -12 9 -10 29 -16 55
-16 82 0 134 -27 228 -118 49 -47 87 -90 85 -96 -7 -21 -26 -15 -62 21 -20 21
-33 29 -27 18 6 -11 20 -29 31 -39 24 -22 28 -46 6 -46 -8 0 -15 5 -15 12 0 6
-3 8 -7 5 -3 -4 -13 1 -21 11 -8 10 -7 7 2 -8 9 -14 19 -32 22 -40 21 -56 23
-58 63 -62 30 -2 37 0 30 8 -22 27 14 25 42 -2 16 -15 31 -25 35 -22 3 4 -6
14 -20 23 -25 17 -35 48 -18 59 5 3 29 -15 53 -41 31 -32 40 -47 30 -50 -7 -3
-22 -14 -32 -24 -17 -17 -19 -34 -18 -131 1 -102 3 -113 25 -134 21 -22 31
-24 128 -24 58 0 116 4 129 9 32 12 40 48 39 171 -2 113 -13 130 -91 130 -45
0 -49 3 -127 83 -45 45 -84 90 -87 100 -4 9 -15 20 -24 24 -10 3 -58 45 -108
92 -123 118 -200 151 -355 151 -50 0 -53 -1 -38 -16z m792 -460 c20 -20 23
-233 4 -252 -8 -8 -51 -12 -130 -12 -142 0 -138 -4 -138 141 0 139 0 139 141
139 84 0 111 -3 123 -16z"/>
<path d="M1174 4587 c-3 -8 -4 -41 -2 -73 l3 -59 70 0 70 0 0 70 0 70 -68 3
c-51 2 -69 -1 -73 -11z"/>
<path d="M4182 4498 c-17 -17 -17 -279 0 -296 7 -7 21 -12 33 -12 40 0 45 17
45 160 0 143 -5 160 -45 160 -12 0 -26 -5 -33 -12z m54 -9 c11 -19 6 -271 -6
-283 -7 -7 -16 -7 -28 0 -14 9 -17 31 -20 139 -3 127 3 155 34 155 7 0 16 -5
20 -11z"/>
<path d="M4493 4495 c-42 -18 -46 -35 -44 -192 1 -107 9 -113 159 -113 158 0
160 2 160 153 1 98 -1 110 -23 134 -22 26 -27 28 -122 29 -62 1 -111 -3 -130
-11z m235 -21 c21 -14 22 -23 22 -129 0 -144 -1 -145 -140 -145 -138 0 -140 2
-140 142 0 148 0 148 134 148 76 0 107 -4 124 -16z"/>
<path d="M1174 4417 c-3 -8 -4 -41 -2 -73 l3 -59 70 0 70 0 0 70 0 70 -68 3
c-51 2 -69 -1 -73 -11z"/>
<path d="M1350 4355 l0 -75 70 0 71 0 -3 73 -3 72 -67 3 -68 3 0 -76z"/>
<path d="M2259 4373 c-1 -27 -4 -59 -8 -73 -7 -22 0 -33 53 -82 68 -64 100
-73 118 -33 10 23 8 30 -28 67 -52 56 -65 67 -91 78 -19 8 -23 17 -23 50 0 57
-20 50 -21 -7z"/>
<path d="M2753 4395 c-19 -13 -21 -22 -16 -97 5 -93 17 -114 57 -104 20 5 26
13 27 34 0 15 2 55 3 90 3 54 0 65 -18 77 -25 18 -27 18 -53 0z"/>
<path d="M4805 4224 c-49 -51 -92 -96 -94 -98 -2 -3 -1 -17 3 -31 5 -19 13
-25 34 -25 22 0 48 20 120 92 91 91 107 119 80 146 -26 26 -54 9 -143 -84z
m129 80 c31 -12 15 -41 -78 -133 -64 -64 -99 -92 -112 -89 -40 7 -24 38 69
132 51 53 96 96 99 96 4 0 13 -3 22 -6z"/>
<path d="M3837 4158 c44 -48 66 -110 71 -195 4 -72 2 -83 -12 -83 -9 0 -19 7
-22 15 -6 14 -8 13 -19 -2 -19 -26 -27 -11 -30 54 -2 76 -3 83 -14 83 -5 0 -7
-8 -5 -17 12 -62 10 -106 -8 -139 -17 -33 -18 -38 -4 -59 11 -17 16 -54 17
-134 0 -61 5 -111 10 -111 4 0 10 51 11 113 4 138 21 149 28 17 l6 -95 4 95
c4 76 8 95 20 95 13 0 15 -25 18 -154 3 -152 -3 -182 -30 -165 -7 5 -21 7 -30
6 -18 -3 -22 9 -18 57 1 14 -2 21 -9 17 -6 -4 -11 -23 -11 -42 0 -19 -7 -46
-16 -59 -15 -23 -15 -27 0 -50 24 -37 24 -330 -1 -357 -16 -17 -16 -21 -1 -46
9 -16 18 -54 19 -85 3 -75 19 -74 19 1 l0 57 40 1 40 1 0 -48 c0 -36 4 -49 14
-49 11 0 16 15 19 53 l3 52 2 -52 c2 -40 6 -53 17 -53 11 0 15 13 15 54 0 30
5 58 10 61 6 3 10 17 10 30 0 13 -4 27 -10 30 -15 9 -13 311 2 351 9 26 9 38
-1 56 -9 17 -11 68 -7 188 3 91 5 176 6 190 0 14 -3 70 -8 125 -9 117 -46 215
-80 215 -19 0 -18 -4 11 -57 28 -52 31 -68 33 -153 l2 -95 -7 85 c-11 122 -58
220 -104 220 -20 0 -20 0 0 -22z m20 -784 c5 -15 7 -15 15 0 5 9 16 16 23 16
13 0 15 -27 15 -159 l0 -159 -42 0 -43 0 3 159 c3 147 11 189 29 143z"/>
<path d="M5020 4097 c-111 -104 -143 -144 -136 -172 5 -19 13 -25 34 -25 22 0
48 20 120 92 91 91 107 119 80 146 -21 21 -42 13 -98 -41z m84 37 c31 -12 15
-40 -76 -131 -91 -91 -122 -109 -135 -77 -4 11 24 46 93 115 54 54 99 99 100
99 2 0 9 -3 18 -6z"/>
<path d="M2022 4088 c-24 -24 -11 -52 47 -110 60 -58 86 -69 109 -46 23 23 12
49 -46 109 -58 58 -86 71 -110 47z"/>
<path d="M5142 3888 c-72 -72 -92 -98 -92 -120 0 -21 6 -29 25 -34 28 -7 68
25 172 136 54 56 62 77 41 98 -27 27 -55 11 -146 -80z m142 65 c5 -12 -19 -43
-91 -115 -96 -96 -124 -112 -131 -74 -5 22 173 206 199 206 9 0 20 -8 23 -17z"/>
<path d="M6090 3920 c0 -5 15 -10 34 -10 30 0 34 -4 40 -31 3 -17 6 -54 6 -82
0 -44 -4 -54 -30 -76 -41 -35 -46 -66 -15 -97 61 -61 149 13 99 84 -8 12 -22
22 -30 22 -12 0 -14 16 -12 88 l3 87 225 1 c308 0 360 2 360 14 0 6 -120 10
-340 10 -220 0 -340 -4 -340 -10z"/>
<path d="M1840 3901 c-17 -33 -12 -42 53 -102 63 -59 84 -68 105 -47 23 23 11
53 -43 111 -59 61 -96 73 -115 38z"/>
<path d="M1678 3739 c-33 -19 -21 -54 40 -113 56 -55 87 -67 110 -44 21 21 12
42 -47 106 -58 63 -72 70 -103 51z"/>
<path d="M1447 3542 c-37 -41 -18 -90 63 -157 36 -30 50 -36 81 -34 26 2 44
-3 59 -16 12 -11 81 -43 153 -70 l132 -51 3 -194 c1 -109 7 -199 12 -204 7 -7
10 108 10 328 0 222 -3 335 -10 331 -6 -4 -10 -57 -10 -126 0 -65 -2 -119 -4
-119 -2 0 -59 21 -127 46 -150 57 -171 72 -163 125 6 36 3 42 -51 98 -51 53
-63 61 -95 61 -23 0 -43 -7 -53 -18z m136 -51 c32 -33 57 -66 57 -73 0 -27
-31 -58 -58 -58 -31 0 -142 103 -142 133 0 36 19 57 54 57 27 0 43 -10 89 -59z"/>
<path d="M5202 3468 c-17 -17 -15 -53 3 -68 15 -12 141 -16 176 -5 27 9 34 43
14 65 -14 16 -32 19 -100 19 -48 0 -87 -5 -93 -11z"/>
<path d="M5201 3187 c-31 -31 -1 -83 47 -81 17 1 57 2 87 3 44 1 56 5 65 22 9
16 8 26 -4 44 -14 21 -22 23 -99 23 -50 1 -89 -4 -96 -11z"/>
<path d="M5972 2993 c-2 -109 -4 -123 -21 -133 -25 -13 -278 -13 -286 0 -8 14
-52 13 -61 -2 -6 -10 -105 -8 -349 6 -16 1 -37 -2 -46 -6 -9 -4 -206 -8 -439
-8 -371 -1 -424 0 -439 14 -22 20 -31 20 -59 0 -18 -12 -55 -15 -194 -15 -166
0 -174 1 -191 22 -10 12 -21 19 -25 15 -4 -4 1 -13 10 -20 10 -7 15 -15 12
-19 -9 -9 34 -19 74 -16 20 1 97 1 170 0 116 -1 133 -3 130 -17 -3 -14 -25
-16 -170 -15 -108 0 -168 -3 -168 -10 0 -5 6 -9 13 -8 6 1 83 1 170 0 l157 -1
0 -48 c0 -53 12 -72 46 -72 32 0 46 24 42 72 l-3 43 424 5 c232 3 425 2 428
-2 2 -5 24 -8 48 -8 l44 0 4 -67 3 -68 2 66 2 67 73 6 c71 6 151 9 195 7 20
-1 22 -6 22 -56 0 -45 4 -56 21 -65 16 -9 26 -8 46 5 21 14 24 23 21 63 l-3
47 53 3 c63 4 60 22 -4 22 -32 0 -44 4 -44 15 0 13 20 15 120 15 100 0 120 -2
120 -15 0 -15 -43 -21 -109 -15 -14 1 -21 -2 -17 -9 4 -6 36 -11 72 -11 35 0
73 -5 84 -12 15 -10 26 -10 53 0 40 14 213 16 222 2 3 -5 19 -10 35 -10 16 0
32 5 35 10 10 17 131 12 145 -5 16 -19 69 -19 89 -1 18 16 170 24 206 12 19
-7 19 -7 1 8 -13 10 -41 15 -94 15 -69 0 -107 11 -85 24 14 9 157 12 170 4 6
-4 14 -4 17 1 7 11 -2 13 -104 18 -98 5 -150 26 -150 61 0 12 4 24 8 27 7 4
250 16 335 16 15 0 27 5 27 10 0 6 -107 10 -302 10 -214 0 -299 -3 -291 -11 6
-6 50 -11 99 -11 95 -1 114 -8 114 -42 0 -46 -127 -75 -194 -45 -19 9 -33 9
-58 -2 -37 -15 -178 -14 -220 3 l-27 10 -4 122 -3 121 -2 -122z m-794 -168
c10 -4 12 -9 5 -16 -7 -7 -465 -13 -820 -9 -15 0 -17 27 -3 32 17 5 803 -1
818 -7z"/>
<path d="M2012 2953 l3 -88 80 0 80 0 0 85 0 85 -83 3 -83 3 3 -88z m96 61
c12 -8 22 -26 22 -38 0 -15 7 -26 20 -29 15 -4 20 -14 20 -36 0 -17 -4 -31
-10 -31 -5 0 -10 6 -10 13 0 9 -2 9 -8 0 -4 -7 -21 -11 -37 -10 -24 2 -30 7
-28 25 2 12 -2 22 -7 22 -6 0 -10 -11 -10 -25 0 -18 -5 -25 -20 -25 -18 0 -20
7 -20 75 l0 75 33 0 c18 0 43 -7 55 -16z"/>
<path d="M6769 2799 c17 -18 20 -38 23 -129 3 -124 2 -140 -17 -140 -18 0 -20
12 -20 127 0 57 -4 103 -8 103 -7 0 -8 -48 -9 -285 -1 -22 0 -108 1 -192 2
-107 -1 -157 -10 -171 -10 -16 -10 -26 -1 -47 7 -14 12 -69 12 -125 0 -112
-17 -160 -57 -160 -20 0 -23 5 -23 40 0 22 -4 40 -10 40 -6 0 -10 -99 -10
-276 l0 -275 -65 2 c-36 1 -68 -1 -72 -4 -8 -9 120 -9 141 -1 14 5 16 35 16
230 l0 224 24 0 c15 0 27 -7 31 -19 3 -10 19 -24 36 -31 27 -11 34 -10 57 7
32 24 39 64 18 95 -20 27 -22 194 -4 244 15 43 -5 98 -33 89 -29 -9 -40 32
-34 128 3 45 5 94 5 110 0 17 5 27 15 27 17 0 17 7 16 -137 0 -62 4 -113 9
-113 5 0 11 60 13 133 2 72 7 145 12 160 4 17 3 37 -3 50 -6 12 -13 78 -14
147 -3 108 -6 128 -23 148 -11 12 -23 22 -28 22 -4 0 1 -10 12 -21z"/>
<path d="M3872 2720 c-13 -16 -32 -30 -43 -30 -12 0 -23 -10 -30 -27 -13 -37
-169 -193 -191 -193 -11 0 -23 -12 -30 -27 -15 -37 -168 -193 -188 -193 -20 0
-40 -20 -40 -40 0 -20 -160 -180 -181 -180 -19 0 -39 -20 -39 -40 0 -20 -160
-180 -181 -180 -20 0 -39 -20 -39 -40 0 -21 -109 -127 -135 -132 -11 -2 -28
-19 -37 -37 -26 -52 -145 -168 -179 -175 -22 -4 -29 -11 -29 -29 0 -29 -124
-152 -162 -161 -19 -4 -30 -15 -34 -34 -4 -15 -38 -60 -77 -100 -55 -56 -78
-72 -100 -72 -38 0 -81 -43 -75 -75 4 -19 -10 -39 -72 -100 -43 -42 -88 -82
-101 -89 -13 -6 -28 -21 -34 -34 -22 -51 -26 -51 -813 -51 -851 -1 -792 -7
-792 92 0 34 3 72 6 84 l6 23 469 0 c306 0 469 3 469 10 0 7 -175 10 -505 10
-330 0 -505 -3 -505 -10 0 -5 11 -10 25 -10 25 0 25 -1 25 -84 0 -78 -2 -85
-25 -100 -33 -21 -42 -59 -21 -90 21 -34 49 -40 89 -21 29 13 70 15 293 11
315 -5 261 -5 549 0 174 4 250 2 278 -7 29 -10 40 -10 49 -1 8 8 58 12 150 12
75 0 159 5 185 11 71 16 156 61 170 89 7 14 46 58 87 99 l75 74 34 -30 35 -30
178 -2 c98 -1 182 -5 186 -9 4 -4 9 -59 11 -122 1 -63 3 -14 3 110 0 136 -2
187 -5 130 l-6 -95 -140 0 -140 0 3 43 c3 39 0 47 -29 73 l-33 30 76 76 76 76
27 -31 c39 -46 79 -42 98 9 5 16 -30 62 -55 72 -8 3 11 30 54 73 l68 68 34
-33 c41 -40 81 -38 92 5 6 21 0 32 -29 58 l-36 32 73 73 74 74 31 -36 c27 -30
36 -34 58 -28 18 5 29 16 34 34 6 22 2 31 -28 58 l-36 31 56 56 57 57 30 -33
c38 -42 80 -42 94 0 8 23 5 30 -27 60 l-36 34 79 79 80 79 29 -32 c31 -33 67
-42 89 -20 22 22 13 54 -23 84 l-35 29 77 77 c43 43 81 78 86 78 5 0 20 -13
34 -30 26 -31 60 -39 81 -18 21 21 13 55 -18 81 -16 14 -30 29 -30 34 0 5 35
43 78 86 l77 77 29 -35 c30 -36 62 -45 84 -23 22 22 13 58 -20 89 l-32 29 79
80 79 79 32 -34 c34 -36 61 -44 82 -23 21 21 13 58 -19 87 l-30 28 30 49 c35
54 37 64 16 64 -8 0 -21 -13 -29 -28 -15 -29 -46 -61 -46 -47 0 4 9 18 20 32
11 14 20 30 20 34 0 19 -28 7 -48 -21z m-1640 -1758 c61 -62 71 -91 41 -124
-29 -32 -56 -22 -121 46 -34 35 -62 71 -62 80 0 23 36 56 62 56 13 0 44 -23
80 -58z"/>
<path d="M225 2285 c-33 -32 -31 -61 5 -95 29 -27 30 -30 30 -123 l0 -96 -27
-4 c-16 -2 170 -4 412 -3 l440 1 -405 5 -405 5 -3 98 c-2 62 1 97 8 97 23 0
50 41 50 76 0 63 -60 85 -105 39z"/>
<path d="M489 1088 c-1 -2 -3 -33 -4 -70 l-2 -68 79 0 79 0 -3 68 -3 67 -72 3
c-40 2 -74 2 -74 0z"/>
<path d="M5688 864 c-10 -38 -4 -554 7 -554 6 0 11 35 13 80 l3 80 29 0 c17 0
30 -4 30 -10 0 -20 41 -50 68 -50 36 0 62 28 62 67 0 61 -83 88 -116 38 -11
-17 -25 -25 -45 -25 l-29 0 -1 158 c0 162 -9 257 -21 216z"/>
<path d="M2870 710 l0 -70 75 0 c82 0 79 -3 77 70 -1 76 5 70 -77 70 l-75 0 0
-70z"/>
</g>
</svg>
