<?xml version="1.0" standalone="no"?>
<!DOCTYPE svg PUBLIC "-//W3C//DTD SVG 20010904//EN"
 "http://www.w3.org/TR/2001/REC-SVG-20010904/DTD/svg10.dtd">
<svg version="1.0" xmlns="http://www.w3.org/2000/svg"
 width="1920.000000pt" height="1080.000000pt" viewBox="0 0 1920.000000 1080.000000"
 preserveAspectRatio="xMidYMid meet">
<metadata>
Created by potrace 1.16, written by Peter Selinger 2001-2019
</metadata>
<g transform="translate(0.000000,1080.000000) scale(0.100000,-0.100000)"
fill="#000000" stroke="none">
<path d="M10112 10699 c-47 -24 -79 -62 -88 -107 -5 -26 -12 -31 -46 -36 -49
-8 -81 -29 -96 -62 -15 -32 -15 -79 -1 -106 10 -18 8 -25 -10 -39 -12 -10 -24
-30 -27 -46 -4 -24 9 -46 91 -153 103 -134 129 -159 159 -160 16 0 333 167
437 230 l27 16 -36 59 c-29 49 -35 71 -36 117 -1 65 -25 100 -82 118 -26 9
-34 17 -34 36 0 47 -50 114 -107 143 -34 17 -104 13 -151 -10z"/>
<path d="M9214 10685 c-39 -17 -91 -78 -99 -116 -5 -23 -13 -29 -45 -34 -50
-9 -86 -36 -101 -80 -11 -29 -21 -37 -61 -51 -27 -9 -48 -20 -46 -24 9 -27
586 -721 603 -725 11 -3 56 5 100 18 44 14 111 33 148 43 67 19 68 20 108 85
l40 67 -110 137 c-61 75 -111 143 -111 151 0 30 -31 74 -64 91 -18 10 -59 49
-91 87 -58 68 -58 68 -42 95 53 90 13 219 -80 257 -41 17 -108 17 -149 -1z"/>
<path d="M5924 10679 c-71 -7 -148 -44 -151 -74 -2 -11 0 -14 3 -7 3 6 9 10
14 7 4 -3 24 2 44 10 45 19 93 19 103 1 4 -8 20 -17 35 -21 20 -5 27 -3 31 12
4 16 5 16 6 1 1 -21 9 -22 46 -8 19 7 32 6 49 -5 20 -14 25 -13 57 10 76 57
83 108 7 57 l-39 -25 -41 23 c-45 25 -70 28 -164 19z"/>
<path d="M18035 10649 c199 -42 283 -58 338 -64 l57 -6 0 45 0 46 -242 -1
-243 -1 90 -19z"/>
<path d="M13129 10560 c-51 -9 -103 -44 -125 -85 -16 -29 -24 -35 -52 -35 -51
0 -102 -54 -102 -108 0 -24 8 -49 20 -65 11 -14 20 -28 20 -32 0 -4 -106 -153
-235 -331 -129 -179 -235 -329 -235 -334 0 -12 -9 -10 449 -102 l414 -82 64
69 c59 66 61 70 38 73 -13 2 -33 15 -44 28 l-20 26 79 108 c43 60 84 119 91
132 l12 22 8 -22 c5 -12 13 -22 18 -22 17 0 22 18 10 43 -11 23 -3 37 101 181
62 86 117 156 124 156 6 0 62 -7 124 -16 l112 -16 133 32 c145 36 171 45 147
54 -8 2 -145 30 -305 61 -391 76 -361 67 -369 113 -16 100 -147 130 -201 45
-11 -18 -28 -32 -37 -33 -12 0 -18 -8 -19 -22 -1 -18 -3 -17 -8 7 -18 73 -75
139 -129 151 -15 3 -31 7 -37 8 -5 1 -26 -1 -46 -4z"/>
<path d="M5936 10542 c-9 -30 -46 -223 -46 -242 0 -10 6 -20 14 -23 9 -4 24
18 46 69 18 41 36 74 41 74 8 0 33 -78 41 -125 2 -12 11 -20 23 -20 17 0 20 6
18 40 -1 22 -2 86 -3 142 l-1 101 -33 -9 c-19 -5 -45 -5 -64 0 -25 8 -32 6
-36 -7z"/>
<path d="M7882 10492 c-20 -15 -23 -26 -20 -66 3 -42 7 -49 39 -67 l35 -21 37
22 c34 20 37 25 37 70 0 51 -9 60 -55 60 -13 0 -27 5 -30 10 -9 14 -16 12 -43
-8z"/>
<path d="M18805 10423 c4 -26 12 -104 18 -172 l12 -125 30 -7 c16 -5 30 -7 31
-6 1 2 -21 205 -34 297 -6 51 -9 55 -35 58 -28 3 -28 3 -22 -45z"/>
<path d="M18537 10447 c-5 -13 17 -255 24 -261 2 -2 15 -7 28 -11 l24 -7 -7
63 c-3 35 -9 101 -13 147 -6 76 -7 82 -28 82 -13 0 -25 -6 -28 -13z"/>
<path d="M4902 10358 c-7 -7 -12 -17 -12 -24 0 -6 -7 -17 -14 -24 -8 -6 -20
-36 -26 -66 -10 -49 -10 -58 9 -90 15 -26 21 -52 21 -98 l0 -64 67 -7 c37 -4
77 -11 90 -16 26 -10 26 -9 13 27 -6 14 -13 58 -15 96 -5 66 -5 69 15 63 13
-4 27 1 45 19 32 32 31 37 -4 58 -16 9 -37 31 -47 50 -9 18 -26 42 -38 54 -26
26 -87 39 -104 22z"/>
<path d="M11558 10359 c-10 -5 -18 -17 -18 -25 0 -8 -6 -17 -14 -20 -8 -3 -12
-12 -10 -19 8 -19 -26 -34 -58 -28 -15 3 -36 2 -45 -2 -17 -7 -16 -8 2 -15 21
-8 20 -9 -58 -25 -31 -6 -77 -43 -77 -61 0 -8 5 -12 10 -9 6 3 10 -1 10 -9 0
-8 9 -20 21 -26 17 -9 23 -8 35 7 7 10 14 23 14 29 0 11 80 60 80 48 0 -4 -11
-27 -25 -51 l-26 -43 31 0 c18 0 29 -4 25 -10 -3 -5 -23 -10 -44 -10 -52 0
-74 -33 -69 -101 3 -41 0 -49 -17 -53 -28 -8 -6 -27 33 -28 27 -1 32 -6 41
-42 6 -23 13 -54 15 -71 2 -16 7 -42 11 -57 10 -38 -22 -38 -36 -1 -6 16 -17
36 -26 45 -8 9 -13 20 -10 25 6 10 -30 16 -105 17 -49 1 -61 -3 -86 -27 -76
-73 -53 -193 44 -233 44 -19 60 -18 110 7 30 14 48 32 63 61 11 23 18 45 15
50 -11 17 15 7 28 -11 14 -20 27 -24 64 -22 17 1 20 6 16 27 -3 16 1 30 9 35
12 8 11 10 -1 8 -41 -4 -50 1 -50 29 0 18 10 38 26 53 14 13 35 39 46 57 l21
34 -37 37 c-25 26 -36 46 -36 67 0 40 7 46 34 29 30 -20 108 -47 101 -35 -4 6
1 13 10 16 14 6 13 10 -8 33 -33 35 -43 58 -51 114 -5 34 -4 53 5 64 11 13 10
18 -6 30 -34 24 -14 63 33 63 28 0 30 35 3 50 -23 12 -22 12 -43 -1z m-211
-583 c75 -82 20 -206 -92 -206 -107 0 -166 120 -98 200 34 41 58 51 113 46 35
-3 51 -11 77 -40z"/>
<path d="M14911 10125 c-18 -86 -18 -88 -44 -82 -141 36 -423 34 -566 -3 -82
-22 -214 -72 -238 -92 -8 -6 -19 -5 -33 2 -42 23 -65 -13 -40 -61 15 -27 2
-24 -27 7 -13 14 -21 30 -17 35 3 6 3 21 0 35 -8 30 -36 32 -62 3 -18 -20 -18
-21 -1 -34 18 -13 17 -19 -21 -132 -34 -105 -38 -126 -32 -174 4 -29 14 -70
23 -90 45 -108 191 -200 391 -246 108 -25 363 -23 486 4 231 50 410 160 481
295 35 65 33 167 -3 229 -34 58 -102 121 -168 154 -43 22 -55 24 -62 13 -8
-10 -9 -9 -5 4 3 9 2 18 -3 20 -5 2 -18 41 -28 88 l-19 85 -12 -60z"/>
<path d="M15418 10004 c-4 -4 7 -25 25 -47 17 -22 39 -58 48 -80 l15 -39 51
68 51 69 -56 12 c-102 22 -127 25 -134 17z"/>
<path d="M18575 9963 c3 -15 14 -122 26 -237 14 -142 27 -226 40 -259 13 -32
25 -105 34 -211 9 -88 19 -187 23 -218 l9 -57 -35 15 c-84 35 -184 3 -228 -72
-22 -38 -25 -53 -22 -111 2 -47 -1 -68 -10 -71 -19 -6 -42 -57 -42 -96 0 -23
9 -45 26 -65 14 -17 24 -37 21 -44 -3 -6 -79 -139 -170 -295 -91 -156 -163
-289 -161 -297 3 -7 23 -17 45 -23 l39 -10 182 232 c100 127 221 281 268 341
94 118 120 161 120 196 0 22 0 22 -22 3 -12 -10 -6 0 12 24 32 41 35 48 34
115 0 40 -12 173 -26 297 -15 124 -36 324 -48 445 -11 121 -25 262 -30 314 -5
51 -10 95 -12 96 -2 1 -20 5 -40 9 -37 7 -38 6 -33 -21z"/>
<path d="M18843 9924 c3 -11 10 -66 17 -124 12 -115 40 -362 70 -620 11 -91
22 -193 26 -228 5 -56 8 -63 32 -69 48 -13 110 -9 127 8 19 18 22 4 -65 294
-26 88 -50 189 -54 225 -4 36 -16 133 -27 215 -11 83 -24 181 -29 219 -5 38
-12 72 -17 77 -4 4 -25 11 -47 15 -34 6 -38 5 -33 -12z"/>
<path d="M15787 9865 c-124 -169 -207 -286 -207 -293 0 -10 790 -165 817 -161
16 3 63 58 152 179 l130 175 -53 11 c-79 16 -86 20 -86 52 0 38 -32 78 -74 92
-27 9 -42 8 -75 -6 -22 -9 -41 -19 -41 -23 0 -3 -8 -16 -18 -29 l-18 -23 -199
39 c-310 61 -272 63 -328 -13z"/>
<path d="M11666 9813 c2 -7 -5 -17 -15 -23 -31 -16 -61 -74 -61 -117 0 -79 76
-149 153 -139 102 12 156 116 107 205 -27 48 -71 71 -133 71 -25 0 -47 3 -50
8 -2 4 -2 1 -1 -5z m130 -32 c66 -40 80 -129 28 -190 -69 -82 -207 -41 -221
66 -14 104 103 179 193 124z"/>
<path d="M13484 9699 c3 -18 13 -40 21 -49 11 -13 15 -43 15 -123 0 -89 -3
-111 -21 -141 -23 -40 -19 -71 12 -79 31 -8 70 10 77 35 5 21 6 21 12 3 4 -12
23 -23 53 -31 l46 -12 -62 75 c-56 66 -63 71 -68 51 l-5 -23 -7 25 c-11 39 -8
215 3 226 6 6 14 25 19 42 l10 32 -27 -14 c-24 -12 -31 -12 -56 1 l-29 15 7
-33z"/>
<path d="M17679 9681 c-13 -10 -29 -39 -34 -62 -8 -31 -19 -48 -38 -59 -24
-14 -28 -13 -47 8 -25 26 -57 28 -105 5 -30 -14 -39 -15 -57 -4 -18 11 -23 10
-41 -7 -24 -24 -15 -42 21 -42 15 0 36 -7 46 -15 11 -8 29 -15 39 -15 16 0 17
-3 7 -15 -24 -28 7 -15 58 25 34 27 60 40 80 40 44 0 81 20 98 52 13 26 26 32
79 40 26 4 32 38 9 55 -26 19 -88 16 -115 -6z"/>
<path d="M9925 9618 c4 -13 13 -36 21 -52 9 -19 14 -64 14 -133 l0 -103 -32
-1 c-31 -2 -31 -2 -5 -6 29 -5 33 -13 16 -30 -6 -6 -9 -23 -7 -39 3 -25 8 -29
36 -32 44 -4 64 13 56 47 -4 14 -13 33 -20 42 -10 11 -14 48 -14 129 0 81 4
118 14 129 7 9 16 29 20 44 l7 28 -29 -15 c-26 -13 -32 -13 -48 -1 -27 21 -36
18 -29 -7z"/>
<path d="M10101 9521 c-8 -5 -11 -16 -8 -24 7 -17 76 -23 452 -37 149 -6 410
-17 580 -25 171 -8 481 -22 690 -30 410 -17 387 -14 840 -110 66 -14 165 -35
220 -46 104 -21 235 -52 517 -121 156 -39 169 -41 207 -28 23 7 40 15 38 17
-5 4 -468 121 -527 133 -25 5 -200 41 -390 80 -525 108 -517 107 -740 115 -96
3 -371 15 -610 25 -239 11 -597 26 -795 35 -198 8 -382 17 -410 20 -27 2 -56
1 -64 -4z"/>
<path d="M9565 9460 c-126 -32 -427 -115 -669 -184 -241 -69 -448 -126 -460
-126 -32 0 -50 -14 -34 -27 9 -7 172 36 568 149 477 137 576 162 705 180 167
23 188 28 177 44 -17 26 -67 20 -287 -36z"/>
<path d="M15405 9401 c-8 -14 76 -106 94 -104 9 2 -7 -8 -36 -21 -63 -30 -88
-70 -80 -130 8 -62 -35 -107 -131 -139 -73 -25 -73 -25 -53 -44 11 -10 64 -31
118 -47 145 -41 470 -146 533 -172 30 -12 60 -19 68 -17 17 7 102 119 245 325
100 145 114 169 99 177 -9 5 -59 17 -110 26 -92 17 -93 18 -112 56 -11 21 -32
47 -47 56 -35 23 -105 21 -140 -5 l-27 -20 -33 25 c-43 33 -107 40 -167 20
-42 -14 -51 -14 -126 4 -95 22 -87 21 -95 10z"/>
<path d="M14941 9164 c-67 -21 -283 -64 -327 -65 -29 -1 -16 -6 51 -19 70 -14
103 -16 148 -9 76 12 142 44 168 80 23 32 22 33 -40 13z"/>
<path d="M9393 8988 l-21 -103 24 -26 c23 -24 24 -28 13 -82 -7 -31 -15 -57
-19 -57 -4 0 -13 33 -20 73 -19 114 -25 119 -40 36 -14 -81 -26 -105 -34 -68
-3 13 -17 80 -31 149 -26 126 -35 153 -35 109 0 -13 -6 -46 -14 -74 l-13 -50
-16 72 c-10 40 -17 81 -17 92 0 12 -4 21 -8 21 -5 0 -14 -35 -21 -78 -13 -78
-31 -129 -31 -87 0 37 -17 0 -30 -65 -25 -132 -28 -130 -60 37 -13 67 -27 120
-30 117 -3 -3 -12 -42 -21 -87 l-17 -81 59 -72 59 -73 -77 -42 -76 -42 -31 39
c-77 96 -78 97 -127 90 l-44 -6 3 -78 3 -77 82 -48 c45 -26 94 -54 108 -63 25
-16 28 -16 83 17 49 30 56 37 56 66 0 37 19 54 27 24 6 -23 43 -29 43 -7 0 8
7 17 16 20 14 5 16 1 12 -32 -5 -31 -1 -43 17 -60 l23 -23 27 25 c18 17 25 31
21 44 -4 13 -1 22 9 26 8 3 15 12 15 21 0 8 5 15 10 15 6 0 10 -7 10 -16 0
-17 53 -74 69 -74 6 0 15 9 21 19 5 11 19 23 30 26 15 5 19 12 15 26 -9 29 14
23 25 -7 8 -19 15 -24 29 -19 13 4 25 -2 39 -20 24 -31 27 -31 57 -2 22 20 24
26 15 57 -15 54 -12 70 18 97 l28 24 -27 132 c-15 73 -29 141 -31 152 -6 23
-7 19 -34 -109 -10 -47 -20 -73 -24 -65 -4 8 -16 59 -26 114 -10 55 -20 92
-22 83 -6 -32 -20 -19 -26 27 -4 25 -10 45 -14 45 -4 0 -17 -46 -29 -102z"/>
<path d="M2340 9030 l-76 -38 -58 -127 c-56 -122 -58 -130 -53 -190 2 -35 13
-81 23 -102 23 -46 97 -98 154 -108 22 -4 40 -10 40 -13 -2 -32 -31 -125 -43
-137 -12 -11 -14 -31 -10 -95 6 -75 4 -81 -18 -100 l-24 -20 50 2 49 3 29 105
c32 116 74 227 93 249 19 21 22 7 28 -124 5 -117 19 -212 34 -227 5 -5 31 -8
58 -6 l49 3 -31 17 -31 17 10 53 c6 29 15 56 20 59 6 4 5 20 -3 43 -6 21 -9
57 -6 84 14 117 13 127 -14 127 -15 0 -26 7 -28 18 -3 13 4 17 30 17 75 0 78
4 71 85 -5 60 -3 73 10 78 22 8 36 66 30 122 -5 37 -10 48 -29 56 -13 4 -24
15 -24 24 0 8 -9 15 -20 15 -28 0 -37 28 -15 44 20 14 12 37 -24 70 -20 18
-20 18 -12 -10 9 -32 5 -51 -15 -74 -10 -12 -11 -31 -4 -80 5 -36 11 -109 14
-162 l4 -98 -34 0 c-30 0 -34 3 -34 25 0 14 5 25 11 25 8 0 10 40 8 132 -3
103 -7 132 -18 136 -37 12 -61 51 -61 97 0 43 -1 45 -27 45 -16 -1 -62 -18
-103 -40z"/>
<path d="M13885 9025 c-19 -8 -24 -14 -13 -14 15 -1 120 -26 618 -148 98 -24
112 -30 228 -110 l123 -85 35 18 c20 11 47 34 61 52 25 33 25 34 7 53 -20 19
-55 29 -549 149 -137 33 -284 69 -326 80 -89 23 -142 25 -184 5z"/>
<path d="M9936 8958 c-33 -12 -76 -54 -76 -74 0 -25 -18 -23 -99 6 -45 17 -83
30 -86 30 -2 0 21 -23 51 -52 30 -28 57 -62 60 -75 4 -15 21 -31 43 -41 35
-17 36 -19 34 -69 0 -29 -13 -87 -27 -130 -31 -96 -66 -234 -66 -262 0 -22 45
-41 60 -25 4 5 15 43 25 84 16 75 62 190 74 190 4 0 13 -24 20 -52 13 -52 69
-166 99 -200 11 -13 19 -15 33 -7 26 14 24 29 -15 107 -26 53 -34 84 -39 148
-6 80 -6 81 20 93 14 6 34 9 44 6 25 -8 44 28 24 45 -9 7 -15 29 -15 51 0 28
-5 39 -19 44 -12 4 -21 19 -25 45 -10 64 -52 144 -77 147 -8 1 -27 -3 -43 -9z"/>
<path d="M12765 8898 c-14 -18 -39 -56 -55 -85 l-29 -51 30 -20 31 -19 158 71
c87 39 153 74 147 77 -7 3 -41 12 -77 18 -36 7 -87 19 -114 27 -65 18 -61 19
-91 -18z"/>
<path d="M7525 8816 c-88 -34 -245 -95 -350 -136 -104 -40 -334 -134 -510
-208 -176 -74 -384 -161 -461 -193 -118 -48 -338 -151 -353 -165 -2 -2 -2 -7
1 -10 4 -3 66 22 140 56 447 208 1213 527 1568 655 58 21 112 44 120 51 20 19
23 20 -155 -50z"/>
<path d="M8135 8845 c-55 -18 -162 -53 -237 -77 l-137 -45 -13 56 -12 55 -17
-68 c-9 -37 -19 -69 -21 -70 -1 -2 -66 -26 -143 -55 -130 -49 -178 -70 -164
-71 3 0 72 24 152 54 81 30 149 51 151 47 2 -3 -9 -69 -26 -146 -23 -110 -28
-146 -19 -168 8 -23 6 -32 -9 -47 -11 -11 -27 -51 -36 -90 -10 -47 -20 -70
-30 -70 -21 0 -29 -28 -14 -55 10 -19 10 -36 -3 -92 -14 -61 -14 -70 0 -85 19
-21 13 -51 -13 -62 -16 -7 -24 -28 -38 -95 -10 -47 -22 -107 -28 -132 -6 -33
-15 -48 -29 -52 -27 -7 -34 -35 -14 -57 15 -16 15 -25 5 -75 -9 -41 -9 -60 -1
-68 17 -17 13 -48 -8 -54 -26 -7 -44 -95 -23 -116 17 -18 8 -54 -17 -62 -13
-4 -21 -24 -30 -71 -6 -35 -9 -69 -6 -74 3 -5 28 -21 55 -36 37 -20 50 -33 52
-53 3 -23 7 -26 43 -26 23 0 56 -9 78 -22 35 -21 37 -25 37 -72 0 -38 5 -55
21 -70 28 -25 95 -36 134 -21 52 20 65 38 65 94 0 49 2 52 40 74 29 16 40 29
40 47 0 28 33 43 55 25 11 -9 27 -4 77 26 35 20 64 38 65 38 3 2 -34 157 -38
159 -2 1 -13 7 -24 13 -27 15 -31 50 -7 63 18 10 18 13 3 80 -11 50 -21 71
-33 74 -20 6 -24 37 -7 54 8 8 5 40 -10 114 -14 66 -18 105 -11 107 17 6 11
51 -9 61 -12 7 -22 31 -30 73 -10 47 -19 68 -39 84 -25 20 -25 23 -10 45 23
36 4 137 -29 152 -25 11 -30 37 -11 66 9 15 8 36 -6 101 l-17 81 23 19 c19 15
21 22 12 37 -6 10 -20 19 -31 21 -18 3 -24 19 -43 110 -12 59 -26 123 -31 142
-5 19 -5 37 -1 41 4 3 34 16 67 27 167 57 410 144 414 148 9 8 -16 2 -114 -31z"/>
<path d="M14891 8651 c-10 -6 4 -20 50 -53 264 -186 366 -253 382 -250 16 3
15 6 -5 21 -50 40 -403 291 -408 291 -3 0 -11 -4 -19 -9z"/>
<path d="M12360 8637 c-19 -7 -43 -26 -55 -42 -18 -27 -23 -29 -47 -21 -42 15
-105 -8 -128 -47 -33 -53 -23 -111 24 -149 30 -25 48 -22 81 12 20 21 35 28
48 24 11 -3 30 -1 43 6 29 16 52 7 56 -21 4 -31 26 -36 30 -7 2 13 15 28 31
36 16 8 37 28 48 45 34 57 20 114 -40 154 -38 26 -43 26 -91 10z"/>
<path d="M5255 8539 c4 -13 13 -37 21 -53 20 -41 19 -244 -1 -270 -20 -26 -19
-72 1 -80 64 -25 106 21 70 77 -18 27 -24 250 -8 270 13 15 27 67 18 67 -3 0
-15 -6 -26 -12 -16 -10 -25 -9 -51 6 l-31 18 7 -23z"/>
<path d="M11850 8455 c6 -15 10 -50 10 -78 1 -29 7 -63 15 -77 22 -39 19 -118
-7 -167 -18 -34 -21 -47 -12 -60 13 -21 36 -27 70 -19 28 7 33 49 9 80 -19 25
-21 130 -2 124 6 -3 13 -19 15 -36 2 -20 9 -32 18 -32 10 0 14 -12 14 -42 0
-41 2 -44 48 -70 33 -18 52 -24 59 -17 15 15 140 87 165 95 28 8 108 54 108
61 0 3 -16 -5 -36 -16 -38 -23 -50 -22 -41 2 8 20 111 70 115 57 2 -6 -4 -18
-14 -26 -17 -13 -16 -13 9 -3 25 11 27 17 27 66 l0 53 -34 0 c-32 0 -54 -19
-98 -84 -5 -7 -11 -7 -20 2 -6 6 -31 12 -54 12 -38 0 -45 -4 -80 -50 -21 -27
-42 -50 -46 -50 -6 0 -97 51 -117 66 -7 5 84 113 97 113 36 2 -9 91 -57 111
-28 11 -37 10 -72 -5 -38 -18 -42 -18 -70 -1 l-29 17 10 -26z"/>
<path d="M18951 8100 c-137 -157 -255 -286 -270 -292 -14 -5 -37 -10 -50 -10
-13 0 -18 -4 -12 -7 28 -18 73 6 181 96 63 52 179 158 258 234 l143 139 -3 61
-3 61 -244 -282z"/>
<path d="M12500 8293 c0 -36 3 -63 7 -60 3 4 16 1 27 -6 62 -39 96 -58 96 -53
0 3 -25 20 -55 38 -85 50 -67 78 19 29 16 -9 37 -20 47 -26 13 -6 19 -21 19
-42 0 -18 3 -33 7 -33 3 0 26 11 50 25 l43 26 0 64 0 64 -50 -29 c-28 -17 -52
-30 -53 -30 -2 0 -20 23 -41 50 -34 45 -42 50 -77 50 l-39 0 0 -67z"/>
<path d="M11612 8330 c-18 -11 -38 -31 -44 -45 -8 -18 -16 -24 -27 -19 -9 4
-35 9 -58 12 -39 4 -47 0 -79 -32 -29 -29 -39 -34 -54 -26 -49 26 -124 -2
-146 -55 -25 -61 -21 -70 42 -73 30 -1 67 -10 80 -19 14 -9 28 -12 33 -7 4 5
24 30 44 55 36 45 38 46 79 39 24 -4 56 -13 72 -21 21 -10 30 -11 33 -2 3 8
12 8 33 0 25 -10 30 -17 30 -45 0 -26 4 -33 18 -30 10 2 18 14 20 31 2 18 13
32 33 42 75 39 79 151 7 195 -42 25 -74 25 -116 0z"/>
<path d="M15452 8262 c-7 -2 -12 -7 -12 -12 0 -4 81 -69 180 -144 169 -129
181 -136 203 -124 23 13 17 18 -168 149 -105 74 -197 133 -203 131z"/>
<path d="M13127 7966 c-27 -129 -46 -239 -43 -244 3 -5 19 -15 35 -22 18 -7
31 -21 33 -33 4 -32 52 -31 56 1 2 12 8 22 13 22 5 0 9 55 9 125 0 111 2 126
18 133 10 4 52 29 95 56 42 26 83 46 90 43 8 -3 57 -82 110 -176 l97 -171 0
-110 c0 -60 4 -111 9 -115 5 -3 17 4 25 16 8 12 24 23 36 24 11 1 29 11 41 23
11 13 25 20 30 16 6 -3 21 6 34 20 13 14 30 23 38 20 8 -3 21 6 31 21 12 18
23 24 36 20 29 -9 40 23 40 117 l0 84 -26 -1 c-15 -1 -34 -12 -44 -25 -11 -14
-23 -21 -33 -17 -10 4 -21 -3 -32 -19 -11 -17 -22 -23 -34 -19 -13 4 -24 -3
-35 -21 -11 -16 -23 -23 -33 -20 -9 4 -23 -4 -35 -19 -11 -14 -23 -23 -28 -20
-13 8 40 61 57 57 8 -2 23 8 34 22 12 15 26 23 35 19 9 -3 21 3 30 16 8 11 24
21 34 21 11 0 25 9 32 20 7 11 23 20 35 20 12 0 27 9 33 19 5 11 20 21 32 23
l23 3 -24 14 c-21 12 -26 11 -46 -15 -13 -16 -26 -24 -34 -20 -7 5 -20 -3 -33
-19 -11 -14 -26 -24 -33 -21 -7 2 -23 -6 -35 -19 -12 -13 -28 -21 -35 -18 -8
2 -21 -7 -31 -21 -11 -18 -22 -25 -35 -21 -12 4 -23 -1 -31 -14 -7 -12 -16
-21 -20 -21 -3 0 -49 76 -102 168 -52 93 -102 174 -110 181 -11 9 -24 6 -62
-19 l-49 -30 -11 50 c-6 28 -13 53 -16 55 -2 3 -10 -29 -17 -69 -11 -65 -22
-86 -46 -86 -1 0 -13 52 -25 115 -12 63 -25 115 -29 115 -3 0 -28 -106 -54
-234z"/>
<path d="M10992 8095 c-21 -9 -38 -26 -45 -45 -11 -29 -13 -30 -58 -24 -60 8
-105 -15 -126 -63 -13 -32 -11 -103 3 -103 2 0 18 15 34 34 28 32 31 33 79 25
27 -4 59 -12 70 -18 11 -6 24 -11 28 -10 22 4 43 -2 43 -13 0 -6 7 -20 17 -30
15 -17 14 -18 -29 -12 -44 6 -45 6 -88 -47 -24 -30 -47 -58 -51 -63 -4 -4 -35
8 -68 28 -54 31 -61 33 -61 16 0 -10 8 -21 18 -24 9 -4 28 -15 42 -26 l25 -19
-43 6 c-38 5 -44 3 -65 -23 -12 -16 -31 -40 -43 -53 l-21 -24 -56 32 c-32 18
-57 34 -57 35 0 2 13 20 29 40 26 32 28 41 19 67 -34 97 -179 90 -209 -11 -11
-35 -10 -46 4 -76 9 -19 33 -44 52 -55 27 -16 35 -27 35 -50 0 -41 28 -39 32
2 2 22 10 34 26 40 21 8 22 6 22 -41 0 -47 2 -51 40 -75 22 -14 42 -25 44 -25
8 0 126 72 126 77 0 2 -25 -10 -55 -27 -51 -29 -55 -30 -55 -12 0 13 16 29 45
46 24 15 46 26 47 25 2 -1 13 3 26 10 18 9 22 9 22 -2 0 -7 -6 -19 -12 -26
-11 -10 -8 -10 13 -2 15 5 36 7 48 4 18 -5 21 -1 21 31 0 32 5 39 55 71 31 19
62 35 70 35 7 0 17 5 20 10 12 19 22 10 18 -15 -3 -13 -13 -27 -22 -30 -9 -3
-27 -14 -41 -26 -17 -14 -9 -11 27 8 l53 28 0 56 c0 30 4 59 9 65 5 5 11 22
13 38 2 19 11 32 26 37 21 8 22 6 22 -46 l0 -54 54 -30 54 -31 88 51 c49 29
94 56 99 62 10 10 -94 -46 -130 -70 -28 -19 -35 -16 -35 11 0 18 14 32 61 60
33 20 67 36 74 36 8 0 17 5 20 10 13 20 25 9 25 -22 0 -21 3 -28 9 -20 4 7 12
12 17 10 10 -3 124 60 124 69 0 3 -20 -7 -44 -21 -54 -32 -58 -32 -54 -5 2 16
24 33 76 60 62 32 72 35 72 20 0 -10 -10 -26 -22 -35 -23 -16 -23 -16 5 -4 25
11 27 15 27 73 0 62 0 63 -32 69 -35 7 -39 4 -99 -73 -21 -27 -30 -31 -45 -23
-10 5 -39 12 -64 15 -44 5 -46 5 -80 -40 -75 -97 -58 -91 -133 -48 -37 20 -69
40 -72 45 -3 5 6 22 20 38 14 16 25 34 25 40 0 5 -16 24 -35 41 -40 34 -71 38
-123 16z"/>
<path d="M15842 7961 c-9 -5 29 -38 125 -108 117 -85 253 -164 501 -293 23
-12 42 -25 42 -29 0 -3 -10 -53 -22 -111 -15 -75 -27 -110 -41 -121 -23 -19
-63 13 346 -279 187 -133 236 -173 251 -204 16 -32 17 -41 6 -62 -12 -22 -15
-23 -31 -8 -16 14 -18 14 -24 -6 -13 -41 11 -44 50 -8 57 52 46 79 -68 175
-131 109 -167 145 -167 165 0 10 17 29 39 42 l38 24 -22 104 c-84 396 -79 375
-87 338 -45 -206 -78 -362 -78 -374 0 -27 -21 -28 -55 -1 -19 14 -35 29 -35
34 0 4 18 17 40 30 22 12 42 26 45 31 3 5 -3 44 -14 87 -10 43 -36 162 -57
266 -20 103 -40 187 -43 187 -4 0 -18 -59 -33 -131 -14 -72 -28 -133 -31 -135
-7 -7 -139 51 -197 87 -31 19 -142 96 -247 172 -105 75 -198 137 -205 137 -7
0 -19 -4 -26 -9z"/>
<path d="M3925 7790 c-33 -20 -153 -92 -267 -159 -113 -67 -209 -129 -212
-137 -15 -39 -18 -124 -6 -140 24 -28 88 -55 115 -48 22 5 25 3 25 -20 0 -49
47 -19 52 33 3 32 10 39 83 83 87 52 97 56 89 33 -4 -8 -3 -22 0 -30 11 -29
44 1 48 42 3 35 8 40 106 101 l102 63 2 57 c1 43 3 35 7 -35 l6 -92 22 17 c19
15 22 29 25 117 l4 100 -61 28 c-33 15 -64 27 -70 26 -5 0 -37 -18 -70 -39z"/>
<path d="M4330 7491 c-622 -311 -672 -337 -649 -346 8 -3 132 51 284 123 638
305 845 403 951 448 21 9 21 9 -5 30 l-26 22 -555 -277z"/>
<path d="M11685 7100 c0 -294 1 -461 3 -370 l3 165 62 34 c34 19 65 39 69 45
11 16 -2 28 -18 15 -11 -9 -14 -7 -14 14 0 13 -7 30 -16 37 -22 19 -46 -9 -53
-61 -3 -23 -12 -44 -18 -47 -10 -3 -13 33 -13 155 0 113 4 163 13 172 9 11 9
12 0 7 -10 -5 -13 36 -16 181 -1 103 -2 -53 -2 -347z"/>
<path d="M4903 7502 c-98 -49 -173 -93 -173 -100 0 -8 6 -12 13 -9 55 24 338
147 359 157 22 10 25 16 17 27 -6 7 -19 13 -28 12 -9 0 -94 -39 -188 -87z"/>
<path d="M2823 7485 c-35 -35 -36 -37 -30 -94 6 -57 6 -59 -21 -69 -15 -6 -43
-13 -62 -16 -33 -6 -36 -4 -55 35 -11 23 -37 56 -58 73 -35 28 -46 31 -102 30
-41 0 -72 -6 -89 -17 -36 -24 -76 -69 -82 -92 -4 -16 -14 -20 -49 -21 -24 0
-56 -9 -70 -18 -49 -32 -65 -112 -32 -154 13 -16 -4 -29 -48 -38 -17 -3 -40
-13 -53 -22 -22 -17 -22 -18 154 -171 l176 -154 79 39 79 38 0 43 c0 41 1 43
53 69 28 15 54 28 56 30 2 2 -9 14 -24 26 l-29 22 150 72 149 71 46 -33 47
-34 41 18 41 19 -55 47 c-30 26 -55 51 -55 56 0 5 14 11 30 15 17 4 30 9 30
12 0 4 -11 21 -25 39 -21 27 -24 38 -15 53 37 69 -20 161 -100 161 -35 0 -48
-6 -77 -35z"/>
<path d="M4697 7450 c-3 -8 -7 -24 -9 -35 -2 -15 -51 -44 -188 -113 -215 -108
-214 -110 8 -12 90 39 165 70 167 68 5 -4 -93 -469 -100 -476 -7 -7 -3 -23
-71 308 l-7 35 -8 -30 c-13 -53 -99 -466 -99 -474 0 -4 16 -15 35 -24 22 -10
35 -24 35 -36 0 -17 18 -31 41 -31 5 0 14 11 19 25 5 13 27 33 48 44 l38 20
27 -22 c14 -12 27 -31 29 -42 3 -16 11 -20 38 -20 30 0 35 4 38 25 2 16 14 32
34 43 33 19 44 15 85 -31 l21 -25 36 35 35 34 -31 152 c-17 84 -34 152 -38
152 -3 0 -12 -35 -19 -78 -18 -111 -26 -116 -44 -31 -57 268 -90 429 -93 459
-6 54 -21 98 -27 80z"/>
<path d="M13139 7375 c-13 -13 -21 -14 -44 -5 -16 6 -39 9 -52 5 -27 -6 -41
-49 -23 -70 15 -19 74 -21 67 -2 -2 6 -14 11 -25 9 -17 -2 -22 2 -22 17 0 14
6 21 19 21 42 0 51 -10 51 -62 0 -39 5 -54 25 -73 28 -29 85 -35 85 -10 0 11
-7 14 -23 10 -30 -8 -58 23 -60 66 -2 31 0 32 37 33 45 1 68 25 50 54 -15 23
-65 27 -85 7z"/>
<path d="M13240 7119 c-1 -2 -2 -41 -3 -87 -2 -79 -1 -82 20 -82 78 0 119 79
71 134 -19 21 -87 48 -88 35z"/>
<path d="M13712 7113 c-7 -3 -19 -18 -28 -35 -29 -56 4 -128 59 -128 10 0 29
11 42 25 60 59 2 168 -73 138z"/>
<path d="M2635 6676 c-544 -270 -774 -380 -782 -373 -15 11 -19 237 -4 253 10
10 32 74 26 74 -2 0 -15 -5 -28 -11 -19 -9 -31 -7 -55 5 l-31 16 16 -45 c8
-25 19 -45 24 -45 15 0 11 -223 -4 -245 -21 -30 -27 -67 -15 -82 12 -15 74
-18 83 -3 3 6 14 10 23 10 9 0 47 24 83 54 37 30 139 91 240 143 483 250 785
401 984 493 121 56 224 105 228 109 4 4 2 13 -5 19 -10 8 -205 -85 -783 -372z"/>
<path d="M725 6997 c-8 -13 -32 -29 -53 -35 -21 -6 -51 -25 -67 -42 -27 -28
-30 -38 -30 -92 0 -59 1 -61 44 -99 35 -31 51 -39 83 -39 42 0 86 18 109 46
22 27 21 163 -2 189 -10 11 -19 36 -21 55 -4 45 -38 54 -63 17z"/>
<path d="M832 6978 c-16 -16 -15 -30 2 -53 11 -15 17 -17 27 -8 11 9 32 -10
101 -92 79 -95 87 -102 101 -87 42 48 48 108 17 159 -28 47 -66 68 -125 68
-27 1 -60 6 -72 13 -27 15 -36 15 -51 0z"/>
<path d="M10570 6870 c0 -32 -5 -71 -12 -84 -9 -22 -8 -29 7 -46 23 -26 46
-25 79 1 30 23 34 63 10 90 -12 14 -13 22 -4 38 17 33 -3 61 -45 61 l-35 0 0
-60z"/>
<path d="M11574 6908 c-5 -7 -10 -61 -12 -119 l-4 -106 30 -22 c17 -11 33 -21
36 -21 12 0 6 225 -7 249 -14 29 -32 37 -43 19z"/>
<path d="M11736 6898 c-13 -18 -16 -49 -16 -146 l0 -124 33 19 32 19 0 124 c0
108 -2 125 -17 128 -9 2 -23 -7 -32 -20z"/>
<path d="M10811 6874 c-29 -36 -27 -79 4 -110 29 -29 58 -26 88 8 36 42 4 128
-48 128 -14 0 -32 -11 -44 -26z"/>
<path d="M2921 6574 c-622 -314 -768 -395 -736 -408 35 -13 40 -10 330 176 39
24 210 116 380 202 380 194 659 338 664 342 24 21 -103 -42 -638 -312z"/>
<path d="M7299 6803 c-29 -37 -54 -70 -56 -72 -1 -2 -34 14 -73 37 -61 35 -70
38 -70 22 0 -12 17 -29 45 -46 25 -14 45 -28 45 -31 0 -3 -20 -2 -44 1 -43 7
-44 6 -87 -46 -23 -29 -46 -57 -50 -61 -3 -5 -29 5 -56 22 -28 17 -55 31 -62
31 -7 0 -11 -23 -11 -65 l0 -65 54 -35 55 -35 28 26 c24 23 25 25 5 15 -22
-12 -23 -11 -20 15 2 22 16 33 78 65 64 33 76 37 79 22 2 -9 -7 -24 -20 -34
l-24 -19 33 12 c17 7 32 16 32 21 0 4 10 3 21 -4 17 -9 24 -8 38 6 9 10 10 15
4 11 -9 -5 -13 2 -13 23 0 25 8 34 58 64 31 18 76 43 100 54 l42 20 0 -34 c0
-20 4 -32 10 -28 6 3 10 42 10 86 l0 79 -34 0 c-19 0 -41 3 -49 6 -9 3 -33
-18 -68 -63z"/>
<path d="M8010 6764 c0 -54 4 -83 10 -79 6 3 10 19 10 35 l0 29 75 -40 c116
-60 114 -59 117 -106 l3 -42 63 35 62 35 0 86 c0 67 -3 83 -12 76 -7 -5 -38
-24 -70 -42 l-56 -31 -52 65 c-51 64 -52 65 -101 65 l-49 0 0 -86z"/>
<path d="M9434 6706 c-3 -8 -1 -39 4 -68 5 -29 10 -43 11 -30 1 28 4 28 79
-10 57 -30 62 -35 62 -65 0 -18 3 -33 6 -33 3 0 25 12 50 26 l44 26 0 64 0 63
-50 -29 c-28 -17 -52 -30 -53 -30 -2 0 -20 23 -41 50 -33 43 -43 50 -72 50
-21 0 -37 -6 -40 -14z"/>
<path d="M12670 6680 c-36 -22 -70 -47 -76 -55 -6 -8 -18 -13 -25 -10 -10 4
-32 -26 -72 -95 -31 -54 -57 -104 -57 -109 0 -6 -20 -22 -45 -37 l-45 -26 0
-134 c0 -101 3 -134 13 -134 6 0 61 29 121 65 60 36 110 65 112 65 2 0 31 16
65 36 38 22 64 32 68 26 3 -6 26 -22 51 -36 l44 -25 36 22 35 22 -22 -29 c-20
-25 -23 -41 -23 -112 0 -46 2 -84 5 -84 3 0 17 7 30 16 28 18 32 9 10 -20 -17
-23 -20 -96 -4 -96 6 0 24 9 40 21 24 17 29 27 29 64 0 29 -5 47 -15 53 -12 6
-7 13 25 31 l40 22 0 83 c0 48 -5 87 -12 94 -8 8 -5 14 15 23 15 7 27 20 27
31 0 10 -2 18 -6 18 -3 0 -48 -25 -101 -55 -53 -31 -97 -54 -98 -53 -2 2 22
45 52 97 30 51 52 96 49 99 -3 3 -16 10 -28 16 -20 10 -23 20 -26 84 l-3 72
-70 45 c-38 25 -71 45 -72 45 -1 0 -31 -18 -67 -40z m-35 -165 c54 -33 151
-35 201 -4 30 18 34 19 34 4 0 -9 -4 -14 -9 -11 -5 3 -17 -7 -27 -22 -9 -15
-25 -32 -33 -39 -11 -9 -12 -12 -3 -13 9 0 4 -16 -14 -47 -54 -93 -48 -92 -85
-22 -19 35 -33 67 -31 71 1 4 -2 8 -6 8 -4 0 -16 14 -26 30 -13 23 -23 29 -37
25 -15 -5 -19 -1 -19 19 0 32 5 32 55 1z"/>
<path d="M9291 6665 l-33 -45 -42 25 c-24 14 -46 25 -49 25 -4 0 -7 -24 -7
-54 0 -53 1 -54 42 -79 45 -26 58 -22 58 18 0 15 15 29 53 48 63 31 67 32 67
12 0 -8 5 -15 10 -15 6 0 10 25 10 55 l0 55 -37 0 c-33 -1 -42 -7 -72 -45z"/>
<path d="M14330 6632 c11 -13 40 -40 65 -59 43 -34 46 -35 69 -19 19 12 31 14
51 6 49 -18 55 -14 55 39 0 63 -16 69 -80 30 l-50 -31 -48 28 c-26 15 -55 29
-64 29 -15 1 -15 -1 2 -23z"/>
<path d="M11527 6583 c-4 -3 -7 -34 -7 -68 l0 -62 52 -29 c29 -16 56 -31 61
-32 4 -2 7 29 5 70 -2 40 -7 71 -12 70 -5 -2 -13 3 -18 12 -5 9 -13 14 -19 11
-5 -4 -9 -1 -9 4 0 6 -7 11 -15 11 -8 0 -15 5 -15 10 0 11 -13 13 -23 3z"/>
<path d="M12038 6504 c-104 -61 -105 -78 -9 -134 39 -22 76 -43 85 -46 8 -3
51 15 95 41 109 63 109 77 1 139 -43 25 -83 46 -87 46 -4 -1 -43 -21 -85 -46z"/>
<path d="M13262 6372 c-18 -86 -46 -218 -62 -292 -16 -74 -29 -137 -30 -140 0
-3 20 -16 45 -30 32 -18 45 -31 45 -47 0 -24 27 -37 54 -27 9 3 16 15 16 25 0
12 17 30 45 47 47 28 51 37 36 90 -6 20 -6 32 0 32 5 0 9 -7 9 -15 0 -8 9 -15
20 -15 11 0 20 6 20 13 0 8 11 20 25 27 14 7 25 16 25 19 -1 3 -16 76 -34 161
-20 93 -35 147 -39 135 -3 -11 -13 -56 -22 -100 -21 -99 -26 -118 -31 -113 -2
3 -22 89 -44 193 -22 104 -41 190 -43 191 -1 2 -17 -68 -35 -154z"/>
<path d="M14502 6419 c1 -52 -2 -122 -6 -156 -8 -63 -8 -63 17 -63 21 0 27 6
32 33 11 54 36 127 44 127 9 0 71 -130 71 -148 0 -13 19 -16 36 -4 8 5 6 33
-7 102 -38 195 -40 202 -63 196 -12 -3 -27 -6 -34 -6 -9 0 -11 -12 -7 -42 l5
-43 -11 43 c-6 23 -16 42 -22 42 -7 0 -22 3 -34 6 -22 6 -22 5 -21 -87z"/>
<path d="M11736 6444 c-3 -9 -6 -38 -6 -65 0 -49 1 -50 55 -84 30 -19 59 -35
65 -35 16 0 12 98 -6 136 -10 20 -24 34 -34 34 -10 0 -20 7 -24 15 -7 20 -42
19 -50 -1z"/>
<path d="M11486 6413 c-3 -16 -5 -147 -3 -293 1 -146 3 -230 5 -187 2 42 5 77
8 77 3 0 36 -18 74 -40 38 -22 71 -40 75 -40 3 0 5 19 3 43 -3 41 -4 43 -80
86 l-78 43 0 154 c0 85 3 154 6 154 4 0 38 -18 76 -40 78 -45 78 -45 78 -27 0
11 -136 97 -153 97 -3 0 -8 -12 -11 -27z"/>
<path d="M15254 6339 c1 -69 -2 -106 -11 -117 -18 -24 -16 -31 7 -25 28 7 25
-13 -2 -22 -23 -6 -22 -7 5 -17 20 -7 32 -7 42 2 31 26 15 -15 -24 -63 -26
-31 -43 -65 -51 -99 -19 -83 -21 -88 -36 -88 -8 0 -14 -5 -14 -11 0 -6 16 -9
37 -7 32 3 38 7 44 33 12 54 40 110 67 132 37 30 42 29 42 -12 0 -32 5 -38 65
-76 63 -40 65 -42 49 -60 -19 -21 -10 -24 34 -13 34 10 27 34 -30 91 l-51 52
17 65 18 66 -31 66 c-17 36 -31 71 -31 76 0 6 14 8 35 4 19 -4 35 -3 35 1 -1
19 -19 29 -75 41 -33 6 -62 17 -64 24 -7 20 -49 58 -65 58 -12 0 -14 -18 -12
-101z"/>
<path d="M12272 6360 c2 -9 -4 -14 -14 -14 -10 1 -16 -2 -13 -6 7 -11 -44 -43
-59 -37 -9 4 -13 -20 -15 -90 -2 -76 0 -94 11 -88 7 5 3 -2 -9 -14 -13 -12
-23 -29 -23 -37 0 -15 27 -2 133 63 38 24 53 61 20 48 -15 -5 -16 -4 -5 6 7 8
12 40 12 79 0 55 -4 70 -21 86 -15 14 -20 15 -17 4z"/>
<path d="M5920 6334 c0 -19 24 -84 32 -84 4 0 8 -53 8 -118 0 -90 -4 -123 -16
-140 -8 -12 -14 -35 -12 -50 3 -24 7 -27 42 -27 56 0 67 23 38 78 -19 36 -22
57 -22 146 0 74 4 109 14 120 7 9 16 28 20 43 6 25 5 26 -23 15 -23 -9 -34 -7
-55 6 -14 10 -26 15 -26 11z"/>
<path d="M11670 6331 c0 -12 29 -35 77 -61 41 -23 53 -41 16 -25 -35 15 -83
11 -89 -7 -9 -28 -20 -21 -55 32 -30 47 -35 50 -63 44 -17 -3 -34 -8 -38 -11
-5 -2 -8 -39 -8 -83 l0 -78 43 -25 c55 -32 115 -66 124 -69 3 -2 7 -16 8 -33
5 -126 -5 -108 99 -170 52 -30 97 -55 100 -55 3 0 6 16 6 36 0 52 24 38 28
-17 3 -44 4 -45 75 -84 40 -22 78 -41 85 -43 13 -4 17 55 4 74 -4 6 -42 30
-84 54 -52 29 -78 50 -78 62 0 26 15 23 91 -21 37 -22 69 -38 71 -36 2 2 2 41
0 88 -3 67 -7 89 -23 105 -10 12 -19 25 -19 30 0 24 -29 34 -62 23 -29 -10
-34 -9 -50 11 -10 13 -15 31 -12 41 4 13 -2 19 -26 23 -25 5 -29 10 -24 27 4
14 -2 26 -22 44 l-29 25 32 -21 c37 -25 43 -26 43 -7 0 7 -42 38 -92 67 -104
61 -128 72 -128 60z"/>
<path d="M11960 6271 l0 -69 50 -31 c28 -17 52 -31 55 -31 3 0 5 34 5 75 0 43
-4 75 -10 75 -5 0 -10 -6 -11 -12 0 -7 -4 -3 -9 9 -5 12 -21 25 -35 29 -14 3
-25 10 -25 15 0 5 -4 9 -10 9 -6 0 -10 -30 -10 -69z"/>
<path d="M11321 6305 c-2 -36 -64 -315 -71 -315 -4 0 -10 19 -14 43 -4 23 -14
74 -23 112 l-16 70 -38 -180 c-21 -99 -38 -188 -39 -197 0 -9 9 -20 21 -23 11
-4 24 -18 29 -31 11 -29 40 -32 47 -5 5 21 56 47 72 36 6 -3 11 -12 11 -20 0
-15 23 -26 37 -17 5 4 12 15 16 25 3 9 22 25 42 34 23 11 34 22 30 32 -2 9
-23 106 -45 216 -41 198 -58 263 -59 220z"/>
<path d="M12193 6043 c-25 -33 -29 -46 -33 -137 -3 -56 -5 -102 -4 -104 1 -2
38 18 83 44 l81 47 0 71 c0 88 -16 116 -65 116 -27 0 -39 -7 -62 -37z"/>
<path d="M1891 5965 c-63 -46 -139 -112 -170 -147 -31 -34 -49 -58 -41 -53 55
32 380 269 380 276 0 5 -13 9 -28 9 -20 0 -62 -25 -141 -85z"/>
<path d="M11554 5916 c-16 -12 -20 -29 -22 -99 l-4 -84 55 -32 c30 -17 58 -31
62 -31 4 0 5 39 3 88 -3 76 -7 92 -32 130 -32 47 -34 48 -62 28z"/>
<path d="M12235 5801 c-78 -47 -80 -48 -83 -91 -4 -50 -5 -50 99 10 l69 41 0
44 c0 25 -1 45 -2 45 -2 -1 -39 -22 -83 -49z"/>
<path d="M11766 5778 c-11 -15 -16 -44 -16 -91 0 -53 -4 -73 -18 -85 -9 -10
-13 -14 -8 -9 17 13 33 8 95 -28 32 -19 63 -35 67 -35 3 0 4 31 2 69 -4 54
-13 83 -40 133 -38 69 -58 81 -82 46z"/>
<path d="M16834 5766 c-46 -20 -74 -62 -74 -110 0 -43 29 -102 55 -112 27 -11
16 -24 -21 -24 -35 0 -35 0 -32 -42 l3 -41 80 2 c44 2 107 6 140 10 l60 7 -42
24 c-52 30 -59 47 -35 74 47 51 55 110 22 163 -34 57 -94 76 -156 49z"/>
<path d="M12229 5678 c-58 -51 -64 -65 -69 -179 -3 -60 -2 -109 2 -109 4 0 34
16 67 35 66 39 89 45 51 14 l-25 -21 32 18 c19 11 28 21 22 25 -8 5 -8 8 0 13
7 5 11 42 11 96 0 80 -2 90 -22 104 -27 19 -49 20 -69 4z"/>
<path d="M12583 5641 c-20 -25 -38 -48 -39 -49 -2 -2 -25 9 -53 24 -27 16 -52
26 -54 24 -3 -3 -2 -30 0 -60 5 -52 8 -57 44 -78 50 -29 59 -28 59 6 0 28 13
40 82 74 45 22 45 22 51 1 3 -10 5 7 6 38 1 56 0 57 -29 61 -26 4 -35 -2 -67
-41z"/>
<path d="M11986 5658 c-11 -15 -16 -45 -16 -94 0 -70 -1 -73 -32 -93 -18 -11
-29 -21 -25 -21 4 0 18 7 32 16 22 14 26 14 62 -9 89 -56 83 -58 83 31 0 70
-3 83 -32 132 -39 63 -50 69 -72 38z"/>
<path d="M12710 5625 c0 -30 5 -55 10 -55 6 0 10 7 10 16 0 20 30 12 83 -22
26 -17 37 -31 37 -49 0 -30 12 -31 56 -4 32 19 34 24 34 76 l0 55 -45 -25 -45
-26 -36 45 c-30 36 -42 44 -70 44 l-34 0 0 -55z"/>
<path d="M11117 5653 c-11 -10 -8 -113 3 -113 6 0 10 9 10 20 0 18 5 17 63
-13 46 -25 63 -39 65 -57 3 -19 1 -22 -10 -14 -24 19 -108 65 -108 60 0 -3 29
-22 65 -43 36 -20 65 -40 65 -44 0 -4 10 -5 22 -1 13 3 19 1 15 -5 -4 -6 -1
-13 6 -16 10 -4 13 2 9 19 -4 24 -3 24 24 12 67 -29 123 -69 117 -84 -3 -9
-12 -13 -22 -9 -9 3 -5 -4 9 -15 14 -11 31 -20 38 -20 6 0 12 -4 12 -9 0 -5
10 -11 23 -14 20 -5 20 -5 5 7 -10 7 -18 20 -18 29 0 15 3 15 38 0 79 -33 120
-63 115 -83 -3 -11 -10 -17 -17 -13 -6 3 -2 -3 9 -14 l20 -21 48 26 47 25 0
69 0 69 -54 -31 -55 -31 -42 56 c-42 55 -44 57 -86 53 -50 -4 -55 4 -13 22 16
7 35 19 42 28 7 9 -12 2 -43 -16 l-57 -32 -42 56 c-43 54 -44 55 -83 49 -46
-8 -44 6 6 32 18 9 27 18 20 20 -7 3 -32 -7 -56 -22 l-45 -25 -38 50 c-31 41
-44 50 -69 50 -18 0 -35 -3 -38 -7z"/>
<path d="M7533 5574 c-3 -8 0 -27 6 -41 6 -14 10 -26 9 -27 -2 -1 -15 -7 -31
-14 -29 -12 -67 -66 -67 -94 0 -30 -19 -20 -35 18 -8 20 -24 38 -35 41 -20 5
-28 23 -10 23 13 0 13 56 -1 81 -8 17 -16 19 -42 13 -18 -3 -35 -12 -39 -18
-13 -19 -9 -59 7 -77 15 -15 14 -17 -9 -23 -14 -3 -30 -14 -35 -24 -7 -14 -4
-17 23 -20 60 -6 71 -6 103 2 32 7 32 7 35 -36 3 -41 5 -44 46 -56 l42 -14 0
-118 c0 -126 15 -269 31 -284 12 -13 12 -46 -1 -46 -5 0 -10 -4 -10 -9 0 -4
11 -6 24 -4 27 6 35 31 37 122 2 52 3 49 12 -31 8 -79 11 -86 33 -91 13 -2 24
0 24 4 0 5 -4 9 -10 9 -12 0 -13 37 -1 44 13 8 22 188 15 302 l-7 105 -42 -6
c-44 -7 -125 9 -125 25 0 6 12 10 28 10 15 0 34 5 42 10 12 8 10 10 -8 10 -40
0 -60 17 -54 46 4 24 7 25 41 18 43 -8 54 -8 104 1 l37 8 0 -41 c0 -30 -4 -42
-17 -45 -11 -3 -7 -5 10 -6 25 -1 27 2 27 39 0 56 -24 99 -66 116 -38 16 -40
21 -19 51 14 20 14 23 -4 33 -29 15 -61 12 -68 -6z"/>
<path d="M7833 5568 c-15 -19 -40 -78 -48 -113 -4 -16 -13 -37 -20 -45 -18
-20 -34 -85 -28 -109 3 -11 13 -23 22 -26 14 -4 16 -17 13 -83 l-4 -79 44 -6
c23 -3 62 -3 85 0 39 5 42 8 48 43 4 21 1 57 -5 80 -10 39 -13 41 -40 35 -16
-4 -49 -3 -74 0 -38 6 -46 11 -50 34 -4 14 -2 40 2 56 7 23 13 29 28 25 30 -7
86 -6 117 3 l27 7 0 -55 c0 -39 3 -54 11 -49 7 4 9 26 5 63 -4 31 -6 66 -6 79
0 12 -7 25 -16 29 -10 3 -14 13 -10 26 2 10 0 29 -6 41 -6 11 -14 28 -18 36
-9 19 -64 25 -77 8z"/>
<path d="M4126 5417 c-16 -78 -31 -149 -33 -157 -3 -9 6 -22 21 -30 14 -7 26
-19 26 -27 0 -20 28 -15 40 7 14 26 22 25 72 -6 22 -14 43 -22 47 -17 3 6 27
22 54 37 26 15 47 30 47 33 0 3 -21 -7 -46 -22 -25 -15 -48 -24 -51 -21 -13
12 9 33 66 63 56 30 61 31 61 13 0 -11 5 -20 10 -20 6 0 10 24 10 54 0 40 -4
55 -16 60 -33 13 -50 5 -91 -41 l-42 -48 -47 27 -48 26 -21 101 c-12 55 -23
103 -26 105 -2 3 -18 -59 -33 -137z"/>
<path d="M16008 5500 c-46 -14 -86 -49 -104 -90 -15 -33 -23 -40 -46 -40 -37
0 -82 -23 -102 -52 -9 -12 -16 -42 -16 -66 0 -35 6 -49 29 -73 16 -16 37 -29
45 -29 17 0 22 -15 7 -24 -5 -3 -8 -14 -6 -24 1 -9 0 -11 -2 -4 -5 15 -6 15
-38 0 -45 -20 -39 -24 100 -63 52 -15 74 -16 170 -6 61 6 137 14 170 17 33 2
81 7 108 10 l47 6 0 58 c0 78 -6 93 -33 79 -21 -10 -21 -9 1 8 94 76 79 196
-28 226 -8 2 -30 0 -49 -5 -31 -9 -37 -7 -70 26 -55 53 -112 68 -183 46z"/>
<path d="M3434 5400 c-1 -48 -6 -86 -14 -95 -9 -10 -9 -15 -1 -15 6 0 11 -18
11 -44 l0 -44 131 -75 131 -75 57 33 56 33 0 77 0 77 -129 74 -129 74 -45 -26
-45 -26 7 26 c5 21 -15 86 -27 86 -1 0 -3 -36 -3 -80z"/>
<path d="M212 5449 c-21 -8 -23 -14 -18 -51 3 -24 8 -82 12 -130 l6 -87 34 -7
c44 -8 152 -1 163 12 5 5 13 66 16 135 l8 126 -24 6 c-36 10 -171 7 -197 -4z"/>
<path d="M7219 5355 c-18 -55 -17 -65 10 -65 16 0 19 -16 26 -152 4 -84 8
-172 9 -195 1 -33 5 -43 17 -43 25 0 29 21 29 138 0 152 16 162 25 16 8 -148
10 -154 42 -154 20 0 23 3 15 13 -8 9 -8 40 -2 103 11 103 13 218 4 262 -6 30
-8 31 -50 25 -27 -3 -49 -1 -58 6 -7 6 -21 9 -29 5 -13 -5 -16 4 -19 43 l-3
48 -16 -50z"/>
<path d="M2845 5352 c-5 -6 -27 -20 -47 -31 -21 -12 -53 -29 -70 -40 -18 -10
-53 -30 -78 -44 -24 -14 -49 -22 -55 -18 -5 4 -31 20 -57 35 l-48 27 0 -83 0
-83 58 -31 57 -31 125 72 125 72 3 42 c2 22 1 41 -2 41 -2 0 -43 -22 -91 -50
-74 -43 -89 -48 -105 -37 -11 6 -20 14 -20 17 0 3 44 30 98 62 l97 56 25 -21
c13 -12 19 -15 13 -7 -6 8 -13 25 -15 38 -2 15 -6 20 -13 14z"/>
<path d="M8092 5118 c3 -122 1 -179 -6 -182 -6 -2 4 -5 22 -5 l32 -1 0 58 c0
31 3 82 7 112 9 79 21 37 22 -77 l1 -93 33 1 c17 0 27 3 21 5 -8 3 -10 56 -6
183 l5 178 -68 -1 -68 -1 5 -177z"/>
<path d="M12902 4963 c-32 -156 -32 -157 -12 -175 11 -11 20 -32 20 -48 0 -20
7 -33 23 -40 20 -10 20 -10 5 3 -21 16 -25 43 -5 30 6 -4 15 -8 18 -8 3 0 22
-9 42 -20 26 -13 37 -26 37 -42 0 -32 14 -36 54 -12 34 20 36 24 36 70 0 27
-3 49 -7 49 -5 0 -21 -9 -38 -20 -40 -27 -46 -26 -79 20 -23 31 -36 40 -65 42
l-36 3 45 24 c25 13 46 25 48 26 4 4 -37 210 -47 236 -4 11 -19 -45 -39 -138z"/>
<path d="M4838 5083 c-14 -4 -18 -15 -18 -56 0 -50 2 -53 40 -75 49 -28 53
-22 5 8 -19 12 -35 28 -35 36 0 10 18 4 63 -19 50 -27 63 -39 67 -63 6 -34 12
-35 63 -9 36 18 37 20 37 77 0 32 -3 58 -7 58 -3 0 -25 -11 -49 -25 l-43 -25
-38 50 c-37 47 -48 53 -85 43z"/>
<path d="M4701 5035 l-33 -45 -44 26 -44 26 0 -54 c0 -51 1 -54 40 -76 22 -12
40 -19 40 -15 0 4 29 24 65 43 l65 35 0 46 c0 34 -5 49 -16 53 -29 11 -39 6
-73 -39z"/>
<path d="M13439 5040 c-31 -38 -33 -39 -55 -25 -13 8 -38 15 -57 15 -28 0 -39
-8 -71 -50 -39 -52 -45 -56 -61 -42 -6 5 -27 19 -47 31 l-38 23 0 -66 0 -65
45 -27 c41 -23 48 -25 63 -12 9 8 43 29 75 47 31 18 57 35 57 37 0 6 -54 -22
-103 -53 l-39 -24 4 23 c2 12 12 27 23 33 11 6 31 17 45 25 14 8 27 15 30 15
3 0 15 6 28 13 20 12 22 11 22 -12 0 -23 2 -24 30 -14 17 5 33 15 37 21 3 5 1
7 -4 4 -6 -4 -13 -1 -16 6 -3 9 14 23 47 40 61 31 70 33 62 12 -3 -8 -1 -15 4
-15 6 0 10 23 10 50 0 49 -1 50 -30 50 -22 0 -37 -10 -61 -40z"/>
<path d="M14963 4842 c-41 -16 -63 -31 -63 -41 1 -9 18 -35 39 -58 34 -38 44
-43 80 -43 48 0 95 21 105 47 5 12 -8 31 -46 69 l-53 51 -62 -25z"/>
<path d="M12740 4775 l-42 -55 -54 31 -54 30 0 -64 0 -65 46 -26 c26 -14 48
-26 50 -26 1 0 4 14 6 32 2 26 11 37 48 58 25 14 58 31 73 38 25 11 28 10 25
-5 -2 -10 -32 -34 -66 -54 -82 -48 -95 -62 -17 -19 101 55 95 49 95 112 0 51
-2 58 -19 58 -11 0 -26 2 -34 5 -9 4 -29 -14 -57 -50z"/>
<path d="M14200 4783 c-16 -21 -20 -37 -16 -61 7 -46 23 -62 62 -62 61 0 88
84 41 128 -31 30 -61 28 -87 -5z"/>
<path d="M2644 4750 c-12 -5 -25 -13 -29 -19 -4 -8 -12 -8 -25 -1 -47 25 -95
3 -88 -42 2 -18 10 -24 36 -26 18 -2 32 1 32 7 0 6 -9 11 -19 11 -11 0 -23 5
-27 11 -10 18 13 32 40 25 22 -5 26 -12 26 -46 0 -21 4 -50 10 -64 23 -60 110
-57 110 4 0 20 -5 30 -15 30 -9 0 -15 -9 -15 -25 0 -18 -5 -25 -19 -25 -24 0
-39 19 -47 59 l-7 32 40 -7 c29 -4 42 -2 52 10 28 33 -13 82 -55 66z"/>
<path d="M7205 4573 c-17 -84 -33 -153 -37 -153 -4 0 -10 17 -14 38 -16 98
-18 95 -60 -100 l-41 -191 28 -16 c15 -9 30 -24 33 -33 6 -24 33 -23 41 1 10
34 40 34 93 1 62 -38 72 -38 72 3 0 27 7 36 43 59 23 14 59 33 80 42 35 14 37
14 37 -3 0 -10 -10 -26 -22 -35 l-23 -17 25 13 c14 7 29 11 33 10 4 -1 7 30 5
70 l-3 73 -40 2 c-38 3 -42 0 -85 -56 l-46 -59 -67 40 -67 39 21 27 c11 15 36
44 55 64 l34 37 -15 68 c-9 37 -23 104 -33 148 l-18 80 -29 -152z"/>
<path d="M7888 4665 c-4 -11 -16 -67 -28 -125 -12 -58 -28 -131 -35 -163 -8
-33 -12 -64 -9 -71 2 -6 -21 -26 -53 -45 l-57 -32 -44 50 c-42 49 -62 58 -96
45 -12 -5 -16 -21 -16 -65 0 -33 4 -59 10 -59 6 0 10 9 10 20 0 17 3 18 28 9
59 -22 111 -59 105 -75 -3 -8 -12 -13 -19 -10 -22 8 -16 0 11 -18 24 -16 27
-15 70 10 40 23 45 30 45 61 0 28 3 34 16 29 9 -3 18 -6 20 -6 3 0 9 -11 14
-25 11 -29 49 -34 56 -7 3 9 20 26 38 37 l33 20 -37 175 c-21 96 -41 195 -47
220 -7 34 -11 40 -15 25z"/>
<path d="M2353 4583 c-32 -180 -58 -284 -64 -267 -10 28 -39 166 -39 187 0 34
-17 16 -24 -25 -3 -24 -17 -92 -30 -151 l-23 -108 23 -16 c13 -8 24 -18 24
-22 0 -4 23 -31 50 -59 33 -34 50 -46 50 -35 0 9 3 14 6 10 4 -3 4 -13 0 -22
-5 -13 -9 -13 -25 -3 -11 7 -23 10 -26 7 -3 -4 -8 -43 -12 -89 -6 -79 -5 -82
13 -72 10 5 36 17 58 26 37 15 38 17 24 38 -27 43 -29 56 -5 51 18 -4 20 -3 7
7 -12 10 -11 11 8 7 15 -4 112 35 295 117 252 114 369 158 537 201 36 9 74 21
85 25 19 8 86 30 90 30 2 0 5 -9 8 -21 4 -16 12 -20 33 -17 22 2 30 10 36 36
12 44 42 40 46 -6 4 -35 22 -45 22 -12 0 11 7 20 15 20 8 0 15 5 15 10 0 6 -7
10 -15 10 -8 0 -15 5 -15 10 0 6 10 10 22 10 12 0 18 3 14 7 -4 4 -22 6 -40 5
-26 -3 -34 1 -44 23 -16 35 -17 32 29 40 22 4 38 9 36 12 -6 5 -227 -29 -376
-58 -57 -11 -112 -18 -123 -15 -31 7 -58 -15 -59 -49 l-2 -30 -4 28 c-2 15
-11 27 -19 27 -8 0 -14 5 -14 10 0 6 -13 10 -29 10 -26 0 -30 -4 -39 -47 -5
-27 -10 -38 -11 -25 0 12 -5 22 -11 22 -5 0 -7 -8 -4 -17 4 -10 -3 -4 -15 12
-11 17 -21 36 -21 43 0 26 -29 10 -40 -23 -10 -30 -35 -55 -54 -55 -3 0 -6 20
-6 45 0 46 -17 62 -27 25 -7 -27 -17 -25 -33 8 l-14 27 -6 -45 c-3 -25 -3 -49
0 -55 3 -5 6 3 8 18 3 27 4 28 18 10 11 -13 17 -14 20 -5 9 20 22 14 22 -11 0
-20 -10 -27 -66 -45 -37 -12 -69 -18 -73 -14 -3 4 -12 36 -18 72 -7 36 -15 76
-18 90 -4 17 -12 -8 -28 -83 -21 -101 -36 -140 -47 -120 -3 4 -11 37 -17 73
-21 111 -54 255 -61 263 -3 4 -11 -19 -17 -50z"/>
<path d="M10645 4496 c-28 -12 -67 -28 -88 -35 -20 -7 -37 -16 -37 -20 0 -4
20 -26 44 -50 l44 -43 118 52 c66 29 120 54 122 55 1 1 -19 17 -46 34 -58 37
-90 39 -157 7z"/>
<path d="M17453 4508 c-26 -5 -43 -15 -43 -23 0 -12 6 -12 26 -4 15 5 28 8 29
7 1 -2 7 -39 14 -83 14 -89 8 -143 -20 -192 -18 -32 -18 -33 1 -43 10 -5 28
-10 40 -10 19 0 20 -4 14 -37 -4 -21 -20 -67 -36 -102 -25 -57 -27 -66 -13
-74 10 -5 14 -16 10 -28 -4 -13 -2 -19 9 -19 9 0 16 7 16 15 0 8 6 15 14 15
13 0 20 12 47 85 l11 30 29 -57 c16 -32 36 -58 44 -58 8 0 18 -7 23 -16 5 -9
14 -14 19 -11 15 9 2 67 -40 175 -27 71 -32 94 -22 98 11 4 9 18 -7 65 -11 33
-18 63 -15 66 3 3 16 -4 28 -16 21 -19 24 -20 39 -5 14 14 11 19 -30 55 -44
39 -44 39 -15 33 25 -4 35 0 59 25 19 20 26 36 22 47 -6 15 -9 15 -29 -5 -32
-29 -40 -27 -73 17 -16 20 -33 42 -39 47 -13 14 -60 15 -112 3z"/>
<path d="M13230 4384 c-322 -148 -343 -158 -372 -156 -31 3 -36 -12 -27 -82 8
-70 51 -98 86 -57 12 15 16 36 14 79 -1 39 2 62 11 69 7 6 78 40 158 76 194
87 357 165 345 166 -5 0 -102 -43 -215 -95z"/>
<path d="M3870 4415 c-19 -7 -156 -53 -305 -101 -603 -194 -655 -212 -800
-274 l-48 -21 24 -25 c28 -30 43 -29 180 9 46 13 122 34 169 46 47 13 105 29
130 36 25 7 90 25 145 40 55 15 154 42 220 60 66 18 165 45 220 60 55 15 131
35 168 46 l68 20 -33 42 c-63 80 -77 86 -138 62z"/>
<path d="M9172 4023 c-29 -137 -55 -258 -58 -269 -5 -18 2 -26 35 -44 23 -14
41 -32 43 -44 4 -29 58 -36 58 -8 0 16 37 52 54 52 2 0 0 -17 -6 -37 -9 -35
-8 -38 21 -62 17 -14 31 -32 31 -38 0 -20 41 -15 47 5 2 10 17 26 32 35 l29
17 -35 162 c-19 90 -38 179 -42 198 l-8 35 -10 -50 c-6 -27 -16 -76 -23 -108
-6 -32 -13 -57 -16 -55 -2 2 -24 103 -49 224 -25 120 -46 222 -48 227 -1 4
-26 -104 -55 -240z"/>
<path d="M4318 4158 c-3 -53 -1 -98 5 -105 17 -23 64 -15 86 13 26 33 26 45 1
77 -13 16 -16 28 -10 32 14 9 13 48 -2 63 -7 7 -26 12 -44 12 l-32 0 -4 -92z"/>
<path d="M12548 4153 l-3 -78 -75 -37 c-41 -20 -94 -40 -117 -43 -29 -5 -44
-13 -48 -26 -4 -10 -12 -19 -18 -19 -15 0 -178 -72 -174 -76 2 -2 43 12 92 31
49 19 90 33 93 31 2 -3 0 -25 -6 -50 -8 -37 -7 -46 4 -46 8 0 14 7 14 15 0 9
9 15 25 15 16 0 25 -6 25 -15 0 -8 7 -15 15 -15 13 0 14 7 8 38 -13 63 -10
107 7 107 11 0 16 -15 18 -60 2 -32 8 -65 14 -72 15 -19 52 -16 71 5 23 25 24
132 2 132 -10 0 -15 -16 -17 -62 -3 -55 -5 -63 -23 -63 -18 0 -21 8 -25 69
l-5 69 74 33 c40 19 86 34 102 34 16 0 29 5 29 10 0 10 58 50 73 50 4 0 7 -13
7 -30 0 -33 9 -36 58 -19 30 10 49 42 50 86 1 29 -42 63 -79 63 -27 0 -29 -3
-29 -40 0 -39 -2 -42 -52 -65 -61 -29 -78 -31 -78 -10 0 8 9 15 20 15 11 0 20
7 20 16 0 11 -6 14 -20 9 -16 -5 -20 -2 -20 19 0 22 4 26 30 26 22 0 28 4 24
15 -4 10 -20 15 -45 15 l-38 0 -3 -77z"/>
<path d="M5893 4106 c-62 -34 -117 -66 -123 -72 -7 -7 33 -37 122 -94 73 -46
147 -93 164 -106 l31 -23 -12 -58 c-7 -32 -24 -116 -39 -188 -43 -207 -41
-200 -78 -203 -17 -1 -38 -8 -45 -14 -25 -20 -13 3 12 25 l26 22 -36 170 c-50
236 -48 229 -56 175 -4 -25 -20 -99 -35 -165 -15 -66 -27 -139 -28 -163 -2
-34 -9 -50 -40 -81 -45 -46 -50 -43 99 -66 55 -9 181 -29 280 -45 248 -40 399
-59 509 -67 102 -6 180 2 155 18 -8 5 -27 9 -44 9 -53 0 -415 94 -415 108 0
10 47 46 73 55 5 1 4 23 -2 47 -6 25 -27 119 -46 209 l-36 164 44 46 c66 71
160 181 156 185 -2 2 -103 34 -223 71 -121 37 -233 76 -250 86 -17 11 -35 18
-41 18 -5 -1 -61 -29 -122 -63z"/>
<path d="M11822 4128 c6 -18 15 -37 19 -42 13 -15 11 -250 -2 -263 -6 -6 -14
-26 -19 -46 -7 -34 -7 -35 26 -42 19 -3 43 -1 54 5 24 13 26 56 5 84 -21 28
-21 232 0 272 8 16 15 37 15 47 0 16 -2 16 -25 1 -22 -14 -26 -14 -47 0 -33
23 -38 20 -26 -16z"/>
<path d="M17999 4089 c-3 -57 -20 -74 -82 -81 -50 -6 -89 -31 -81 -52 3 -7 -9
-27 -26 -44 -28 -30 -38 -52 -24 -52 4 0 12 7 18 16 7 8 30 18 52 21 36 5 45
1 73 -26 31 -30 61 -41 61 -21 0 6 -6 10 -14 10 -20 0 -32 40 -15 51 8 5 20 9
28 9 11 0 11 -3 1 -15 -10 -12 -10 -15 2 -15 8 0 19 5 24 10 7 7 15 2 24 -15
25 -47 38 -27 14 22 -22 46 -22 48 -5 73 10 14 21 42 24 63 6 36 5 37 -20 31
-19 -5 -30 -2 -40 11 -10 14 -13 15 -14 4z"/>
<path d="M12836 3968 c-9 -12 -16 -39 -16 -59 0 -95 120 -91 123 5 2 67 -72
104 -107 54z"/>
<path d="M13220 3968 c-30 -32 -22 -96 14 -120 40 -27 96 12 96 67 0 66 -67
99 -110 53z"/>
<path d="M697 3900 c-45 -28 -61 -45 -34 -34 8 3 164 -82 348 -189 184 -106
375 -217 426 -245 l91 -52 6 -93 c10 -151 13 -166 14 -81 l2 82 61 36 c33 20
62 36 64 36 2 0 6 -39 8 -87 l3 -88 1 103 1 102 -30 22 c-50 35 -891 518 -903
518 -6 0 -32 -13 -58 -30z"/>
<path d="M14663 3789 c-99 -29 -111 -174 -17 -209 31 -12 30 -35 -2 -56 -22
-15 -23 -18 -9 -26 15 -9 15 -12 0 -34 -9 -15 -11 -24 -4 -24 6 0 110 59 231
132 l220 132 -28 23 c-16 13 -32 23 -36 23 -4 0 -56 -31 -116 -68 l-108 -68 4
53 c5 63 -13 98 -63 119 -19 8 -36 14 -37 13 -2 0 -17 -5 -35 -10z"/>
<path d="M7721 3484 c-26 -33 -27 -75 -3 -104 38 -47 112 -14 112 50 0 36 -35
80 -65 80 -14 0 -32 -11 -44 -26z"/>
<path d="M5427 3374 c-18 -10 -26 -21 -23 -30 3 -8 9 -20 12 -28 7 -17 -63
-67 -118 -85 -32 -11 -43 -10 -69 3 -38 19 -90 21 -107 4 -14 -14 -16 -68 -3
-68 18 0 35 -121 24 -183 -7 -46 -7 -67 3 -86 25 -48 27 -140 5 -221 -12 -41
-21 -80 -21 -87 0 -19 37 -16 49 5 9 14 10 13 11 -11 0 -24 4 -28 22 -25 20 3
24 13 34 78 7 41 13 119 13 172 1 54 5 100 11 103 10 6 7 75 -6 177 -4 37 -3
39 63 82 38 24 77 53 87 65 13 14 22 18 26 10 5 -7 20 -4 49 10 l42 22 -18 30
c-10 16 -27 40 -38 54 -19 23 -21 23 -48 9z"/>
<path d="M9520 3309 c-135 -23 -289 -42 -362 -46 -76 -3 -125 -10 -122 -15 4
-6 -12 2 -35 17 -33 23 -48 27 -82 22 -22 -3 -50 -14 -61 -24 -15 -13 -43 -19
-111 -24 l-92 -6 82 -1 81 -2 0 -44 c-1 -52 20 -89 60 -110 25 -13 28 -19 23
-48 -4 -26 -6 -28 -9 -10 -3 21 -7 22 -100 21 -53 -1 -88 -4 -77 -6 11 -3 42
-18 70 -34 27 -15 75 -33 105 -40 61 -13 150 -3 460 53 91 16 180 32 198 35
73 13 15 12 -164 -2 -104 -8 -244 -15 -311 -15 -114 0 -123 1 -123 19 0 12 9
21 25 25 35 9 65 61 65 114 l0 42 71 0 c65 0 193 15 459 55 52 8 118 17 145
20 94 11 107 15 94 31 -15 19 -17 18 -289 -27z"/>
<path d="M2895 3308 c4 -12 13 -36 21 -52 21 -43 19 -244 -2 -274 -23 -33 -15
-76 15 -80 45 -7 71 6 71 36 0 15 -7 36 -15 46 -21 28 -21 242 0 282 23 45 20
54 -14 41 -24 -9 -34 -7 -56 7 -27 18 -27 18 -20 -6z"/>
<path d="M1960 3255 c-58 -19 -138 -44 -179 -56 -67 -20 -226 -101 -217 -110
9 -9 -50 -7 -66 2 -16 9 -235 -8 -344 -26 -28 -5 -33 -2 -42 22 -15 46 -60 90
-106 108 -62 24 -140 7 -189 -40 -20 -19 -38 -42 -41 -52 -4 -13 -17 -18 -49
-19 -79 -2 -125 -56 -113 -131 3 -21 7 -45 9 -54 1 -9 -27 -47 -62 -83 l-64
-67 -21 20 c-52 49 -124 45 -170 -10 -38 -44 -35 -98 5 -144 l32 -36 -60 -62
c-51 -53 -65 -77 -100 -167 -22 -58 -44 -116 -48 -129 l-7 -25 33 23 c121 79
274 129 419 138 149 9 180 38 40 38 -43 0 -82 3 -85 7 -4 4 50 68 120 142
l127 134 86 0 c99 -1 159 13 218 50 69 43 93 110 59 159 -16 23 -28 18 280
128 l100 36 56 -59 56 -60 69 40 c51 30 85 42 129 47 33 4 71 14 85 24 19 13
46 17 117 17 87 0 96 2 158 36 l65 36 -82 52 c-67 41 -84 56 -86 79 -2 15 -9
27 -15 26 -7 0 -59 -16 -117 -34z"/>
<path d="M8090 3268 c-35 -10 -85 -56 -95 -88 -4 -12 -20 -19 -48 -23 -55 -8
-97 -52 -97 -103 0 -42 13 -70 49 -104 15 -14 25 -24 22 -22 -6 3 -46 -103
-54 -144 l-6 -32 137 -6 c75 -3 183 -8 240 -11 71 -3 101 -2 97 6 -4 6 -1 9 8
7 18 -4 219 160 212 173 -4 5 -16 9 -28 9 -48 0 -65 11 -72 46 -7 41 -57 101
-87 106 -17 2 -25 14 -34 52 -7 27 -22 62 -33 77 -15 20 -17 29 -8 32 6 3 2 6
-9 6 -12 1 -35 8 -50 16 -33 17 -92 18 -144 3z"/>
<path d="M14280 3269 c-14 -6 -40 -24 -57 -41 -29 -28 -35 -30 -58 -20 -58 27
-128 2 -151 -53 -18 -43 -18 -63 1 -99 8 -15 13 -32 10 -36 -3 -4 35 -66 83
-136 l88 -129 47 2 c39 1 58 9 112 49 36 26 65 51 65 55 0 4 -9 11 -20 14 -33
11 -26 49 13 63 80 29 130 127 108 209 -13 49 -51 97 -92 118 -32 17 -111 19
-149 4z"/>
<path d="M15156 3264 c-11 -11 -16 -35 -16 -82 0 -37 -3 -90 -6 -118 -6 -49
-5 -53 22 -70 37 -25 116 -24 144 1 12 10 20 31 20 49 1 29 1 30 15 12 8 -11
15 -15 15 -9 0 6 -7 16 -15 23 -11 9 -15 34 -15 95 0 67 -3 85 -18 98 -24 22
-48 22 -62 0 -10 -17 -10 -17 -20 0 -14 21 -43 22 -64 1z"/>
<path d="M18817 2956 c-45 -16 -74 -40 -93 -77 -9 -19 -24 -29 -50 -34 -20 -3
-47 -13 -59 -21 -40 -26 -57 -93 -34 -135 8 -17 5 -27 -16 -55 -41 -54 -29
-87 68 -181 129 -125 178 -153 378 -217 96 -31 178 -56 182 -56 4 0 7 152 7
339 l0 338 -82 18 c-55 12 -93 26 -113 43 -61 51 -118 63 -188 38z"/>
<path d="M15640 2947 c-19 -10 -27 -25 -37 -72 -17 -84 -16 -93 12 -120 33
-34 112 -35 150 -2 27 22 27 24 18 102 -7 70 -11 81 -33 92 -22 11 -26 9 -40
-12 l-16 -24 -15 24 c-13 22 -17 23 -39 12z"/>
<path d="M6092 2913 c2 -14 11 -17 36 -15 34 4 41 -8 17 -28 -9 -7 -13 -20
-10 -30 3 -9 -8 -33 -25 -56 -16 -21 -30 -44 -30 -50 0 -6 -11 -20 -25 -32
-27 -24 -31 -37 -13 -48 6 -4 19 3 30 16 10 12 18 18 18 14 0 -5 17 10 38 34
34 40 39 43 65 33 31 -12 34 -28 10 -70 l-18 -30 44 -45 c37 -37 42 -46 28
-52 -30 -11 -18 -25 19 -22 45 3 52 18 25 63 -11 19 -18 35 -15 35 2 0 27 -12
55 -26 49 -25 50 -26 33 -45 -20 -22 -13 -24 33 -7 46 17 39 35 -27 79 -54 36
-54 36 -51 83 2 43 0 50 -40 89 -24 23 -43 51 -43 62 -1 14 -16 25 -61 41 -75
28 -98 30 -93 7z"/>
<path d="M11725 2829 c-6 -48 -4 -64 6 -70 8 -4 102 -61 209 -126 l194 -118 0
-38 c-1 -28 4 -42 20 -52 30 -22 36 -19 36 21 l0 36 48 -27 c62 -36 60 -34 65
-82 5 -57 17 -67 17 -15 0 23 2 42 5 42 2 0 81 -46 175 -101 l170 -102 0 -37
c0 -29 6 -41 25 -54 l25 -16 0 35 c0 19 3 35 6 35 3 0 26 -12 52 -27 30 -18
44 -22 40 -13 -3 8 -15 45 -27 83 -27 81 -23 78 -275 230 -105 63 -191 118
-193 123 -1 5 24 22 56 38 32 16 69 37 82 47 49 38 -13 20 -94 -26 -67 -38
-82 -43 -100 -33 -12 6 -112 63 -222 128 -110 64 -225 131 -256 148 l-57 32
-7 -61z"/>
<path d="M13743 2791 c-61 -47 -112 -88 -112 -91 0 -3 12 -20 27 -39 l28 -33
130 32 c71 18 133 35 137 39 11 11 -46 132 -74 157 l-24 22 -112 -87z"/>
<path d="M2020 2374 c-145 -107 -167 -128 -332 -316 -136 -154 -175 -204 -167
-214 6 -7 23 -45 38 -84 l28 -71 119 -4 c330 -10 513 -162 514 -426 l0 -67 38
14 c99 35 202 6 251 -71 l28 -45 33 98 c92 281 261 536 472 713 l57 48 -78 45
c-43 25 -80 46 -84 46 -3 0 -8 -12 -10 -27 -4 -27 -4 -27 -6 3 -1 24 5 36 24
48 30 20 65 73 65 99 0 36 -33 89 -65 104 -66 31 -147 -10 -160 -81 -9 -48
-32 -46 -40 4 -18 109 -130 175 -234 139 -30 -11 -39 -7 -174 75 -78 47 -147
86 -152 86 -6 -1 -80 -52 -165 -116z m30 -365 c0 -6 8 -8 18 -5 11 4 27 -2 40
-14 11 -11 25 -20 29 -20 4 0 19 -10 33 -21 l25 -21 -28 16 c-22 14 -31 15
-43 5 -16 -13 -19 -45 -4 -54 6 -3 10 -31 10 -61 0 -41 3 -53 13 -48 6 4 9 3
4 -1 -4 -5 -16 -10 -27 -12 -18 -3 -20 3 -20 47 l0 50 -34 0 c-19 0 -37 4 -41
10 -3 6 -15 5 -30 -2 -21 -9 -25 -18 -25 -54 0 -35 -3 -43 -17 -41 -15 1 -17
9 -15 51 2 30 10 56 18 63 10 7 12 13 5 18 -6 3 -11 15 -11 26 0 22 -4 23 -32
8 -14 -8 -18 -8 -14 0 4 6 25 15 47 21 22 6 37 15 34 20 -7 11 23 29 48 30 9
0 17 -5 17 -11z"/>
<path d="M17263 1976 c-23 -11 -31 -40 -14 -51 9 -5 8 -27 -5 -113 -3 -20 -21
-51 -44 -76 l-40 -43 24 -13 c20 -10 32 -10 72 4 26 9 56 23 66 33 10 9 19 14
21 12 1 -2 10 -18 19 -36 l17 -32 -52 -47 c-29 -25 -56 -52 -60 -60 -10 -17 3
-43 56 -112 42 -55 62 -60 97 -25 8 9 10 13 3 9 -12 -7 9 79 28 117 14 24 22
21 14 -5 l-7 -23 17 23 c9 12 27 22 41 22 15 0 24 6 24 15 0 8 -9 15 -20 15
-23 0 -24 4 -9 28 17 27 -13 136 -49 181 -47 59 -86 131 -70 131 17 0 65 -32
83 -56 14 -19 14 -19 15 2 0 37 -55 76 -132 93 -25 6 -51 12 -59 14 -8 3 -24
-1 -36 -7z"/>
<path d="M15355 1528 c4 -13 13 -36 21 -52 20 -41 19 -245 -1 -272 -30 -40
-13 -84 35 -84 48 0 65 44 35 84 -11 15 -15 50 -15 141 0 67 4 125 9 131 4 5
13 24 19 41 l11 33 -30 -15 c-26 -14 -32 -14 -60 0 -31 16 -31 16 -24 -7z"/>
<path d="M16989 1450 c-90 -26 -141 -130 -108 -217 27 -71 113 -122 186 -108
49 9 40 21 -12 17 -54 -5 -93 10 -128 46 -56 59 -53 151 6 209 36 36 91 52
141 39 l26 -6 -26 -53 c-14 -28 -33 -60 -42 -70 -11 -13 -12 -21 -5 -28 14
-14 36 -1 29 17 -7 19 44 124 61 124 17 0 60 -59 71 -100 l10 -35 1 30 c1 36
-29 88 -63 111 -14 9 -24 19 -22 23 6 9 -94 10 -125 1z"/>
<path d="M16735 1039 c-250 -8 -429 -22 -935 -75 -266 -27 -337 -37 -350 -50
-11 -12 15 -74 32 -74 7 0 56 9 108 20 96 20 348 37 920 60 140 6 321 13 403
17 l147 6 0 38 c0 20 3 44 6 53 5 13 -1 16 -32 14 -22 0 -156 -5 -299 -9z"/>
<path d="M14965 885 c-49 -8 -182 -25 -295 -40 -220 -28 -278 -39 -291 -52 -5
-5 -3 -26 3 -47 l12 -38 55 7 c31 3 106 12 166 20 172 22 370 47 482 59 l102
11 -22 40 c-32 57 -59 62 -212 40z"/>
<path d="M13995 744 c-11 -4 -494 -93 -800 -148 -44 -8 -242 -45 -440 -81
-336 -62 -432 -80 -675 -124 l-95 -18 52 -15 c46 -14 63 -14 125 -3 70 13 173
31 413 75 61 11 160 29 220 40 61 11 160 29 220 40 61 11 160 29 220 40 61 11
160 29 220 40 61 11 162 29 225 41 63 11 133 24 155 29 22 5 75 10 118 10 l79
0 -7 33 c-8 36 -15 46 -30 41z"/>
<path d="M15085 649 c-131 -17 -434 -54 -535 -65 -104 -11 -120 -15 -120 -33
0 -41 44 -178 82 -259 23 -48 58 -132 78 -187 l37 -100 513 -3 513 -2 -94 98
-94 97 -105 238 c-72 163 -110 237 -120 236 -8 -1 -78 -10 -155 -20z"/>
<path d="M13904 579 c-49 -14 -79 -53 -79 -105 0 -50 7 -46 -110 -68 -145 -27
-159 -28 -190 -12 -61 32 -158 14 -211 -39 -24 -24 -52 -31 -298 -76 -299 -55
-365 -67 -541 -99 -66 -11 -137 -25 -157 -29 -20 -5 -40 -6 -44 -2 -4 3 -4 -5
-1 -19 4 -14 7 -41 7 -60 l0 -36 103 2 c56 0 111 4 122 7 26 9 628 118 630
115 9 -19 25 -61 23 -63 -3 -3 -104 -23 -283 -55 -66 -12 -138 -25 -160 -30
-25 -5 62 -8 227 -9 l267 -1 4 33 4 32 1 -32 2 -33 333 0 c253 0 336 3 346 13
11 9 13 9 7 0 -10 -19 118 -18 133 0 8 11 -1 17 -45 31 l-55 17 7 47 c7 47 14
68 14 41 0 -11 35 -26 113 -49 61 -18 117 -35 123 -37 6 -2 -18 93 -55 211
-36 119 -71 216 -77 216 -6 0 -18 16 -27 36 -11 23 -29 40 -52 50 -38 16 -38
16 -81 3z"/>
<path d="M475 328 c-15 -35 -54 -119 -87 -187 -32 -68 -58 -127 -58 -132 0 -5
15 -9 34 -9 30 0 37 6 68 57 30 50 100 195 145 301 l13 32 -44 0 -43 0 -28
-62z"/>
</g>
</svg>
