<?xml version="1.0" standalone="no"?>
<!DOCTYPE svg PUBLIC "-//W3C//DTD SVG 20010904//EN"
 "http://www.w3.org/TR/2001/REC-SVG-20010904/DTD/svg10.dtd">
<svg version="1.0" xmlns="http://www.w3.org/2000/svg"
 width="688.000000pt" height="830.000000pt" viewBox="0 0 688.000000 830.000000"
 preserveAspectRatio="xMidYMid meet">
<metadata>
Created by potrace 1.16, written by Peter Selinger 2001-2019
</metadata>
<g transform="translate(0.000000,830.000000) scale(0.100000,-0.100000)"
fill="#000000" stroke="none">
<path d="M2365 8040 l-120 -120 -287 0 c-161 0 -288 4 -288 9 0 5 -13 11 -30
13 -30 5 -30 4 -30 -44 0 -26 4 -48 9 -48 4 0 6 18 4 40 -4 35 -2 40 16 40 12
0 21 -4 21 -10 0 -6 106 -10 298 -10 l297 0 100 101 c55 56 111 110 124 120
23 18 56 19 812 19 l789 0 0 -30 c0 -20 -5 -30 -15 -30 -8 0 -15 -9 -15 -20 0
-11 7 -20 15 -20 10 0 15 -10 15 -29 0 -17 5 -33 12 -37 8 -5 9 2 5 26 -4 18
-3 38 3 45 7 9 7 27 -2 59 l-12 46 -801 0 -800 0 -120 -120z"/>
<path d="M1660 7865 c0 -13 58 -15 465 -15 404 0 465 2 465 15 0 13 -61 15
-465 15 -407 0 -465 -2 -465 -15z"/>
<path d="M4079 7643 c-1 -47 -3 -59 -8 -38 -5 24 -12 31 -36 33 -16 2 -35 11
-42 20 -12 16 -14 16 -27 0 -10 -14 -29 -18 -86 -18 -57 0 -76 4 -86 18 -13
16 -15 16 -28 0 -11 -15 -29 -18 -93 -18 -68 0 -81 -3 -85 -17 -4 -16 5 -18
101 -16 58 1 144 2 191 2 47 0 102 0 124 1 35 1 38 -1 34 -22 -4 -21 -1 -23
27 -20 l32 4 0 69 c0 89 -17 91 -18 2z"/>
<path d="M4420 7345 c0 -8 -6 -15 -12 -15 -9 0 -8 -4 2 -10 11 -7 7 -10 -20
-11 l-35 -2 35 -7 35 -7 -37 -2 c-29 -1 -36 -4 -32 -16 4 -9 11 -15 18 -14 37
5 46 -2 46 -33 0 -23 3 -29 9 -19 5 7 13 11 19 7 6 -3 13 3 17 14 6 19 38 27
83 21 6 -1 12 3 12 9 0 5 -9 10 -20 10 -28 0 -25 30 3 31 15 1 10 4 -13 9 -19
4 -27 8 -18 9 9 0 19 4 22 9 2 4 -13 6 -35 4 -43 -5 -51 4 -16 18 18 7 15 9
-20 9 -32 1 -43 -3 -43 -14z"/>
<path d="M4780 7300 c113 -3 206 -7 208 -8 1 -1 2 -8 2 -14 0 -10 -44 -12
-196 -10 -131 2 -200 0 -207 -7 -8 -8 41 -11 171 -11 174 0 182 -1 182 -20 0
-20 32 -44 44 -33 3 3 6 -13 6 -36 0 -38 -2 -43 -19 -38 -13 3 -21 -1 -24 -14
-4 -15 -2 -16 14 -6 16 10 21 9 28 -2 6 -9 10 8 13 48 3 60 -3 83 -17 62 -8
-14 -35 -2 -35 15 0 20 30 30 41 13 6 -10 9 -5 9 17 0 53 -6 54 -224 52 l-201
-2 205 -6z"/>
<path d="M2120 6975 c-7 -8 -21 -15 -31 -15 -10 0 -20 -4 -23 -8 -3 -5 5 -8
17 -8 13 1 22 -5 22 -14 0 -9 -9 -15 -23 -14 -21 1 -20 -2 14 -37 23 -23 33
-42 29 -50 -5 -8 -4 -10 3 -5 7 4 12 3 12 -3 0 -5 -3 -11 -7 -14 -5 -2 -2 -2
5 -1 19 5 16 -91 -4 -110 -14 -15 -14 -16 0 -16 12 0 16 -10 16 -40 0 -33 -3
-38 -17 -33 -17 7 -17 6 0 -11 9 -9 17 -28 17 -41 0 -13 4 -26 8 -29 5 -3 64
-6 131 -7 96 -2 124 -5 128 -16 9 -23 -13 -39 -32 -23 -13 11 -15 4 -15 -58 0
-65 1 -70 20 -65 13 3 22 -1 26 -12 9 -21 -15 -38 -33 -23 -10 8 -13 -8 -13
-83 0 -69 3 -90 11 -82 14 14 39 6 39 -13 0 -19 -30 -30 -39 -15 -6 9 -12 7
-22 -5 -9 -12 -10 -15 -1 -10 8 5 12 0 12 -13 0 -13 -5 -19 -14 -15 -8 3 -17
0 -22 -7 -5 -8 -3 -10 6 -4 16 10 30 -12 30 -47 0 -18 5 -28 15 -28 10 0 15
-10 15 -30 0 -20 -5 -30 -15 -30 -9 0 -15 -9 -15 -23 0 -16 54 -76 185 -207
110 -110 183 -190 180 -198 -3 -8 0 -12 7 -9 17 6 490 -464 483 -480 -2 -7 1
-13 7 -13 7 0 -5 -17 -25 -38 -34 -35 -35 -38 -18 -49 16 -10 23 -6 51 22 20
21 38 31 48 28 11 -5 13 -3 7 8 -8 12 -6 12 8 0 20 -16 23 -25 5 -15 -7 4 -2
-5 11 -19 14 -15 27 -27 29 -27 3 0 -3 9 -13 20 -10 11 -14 20 -9 20 5 0 14
-8 21 -19 9 -14 8 -21 -7 -34 -17 -14 -20 -13 -41 9 -27 29 -40 30 -63 5 -26
-29 -10 -48 18 -22 l22 21 29 -30 29 -30 -45 0 c-44 0 -44 0 -44 -35 l0 -35
48 0 48 0 -3 -72 c-2 -49 -7 -73 -15 -74 -7 -1 -20 -2 -28 -3 -19 -1 -20 -51
-1 -51 8 0 13 7 12 16 0 9 5 19 13 22 10 3 12 -1 8 -17 -7 -27 11 -28 21 0 8
20 8 20 25 1 16 -17 16 -21 -4 -61 -11 -24 -29 -46 -40 -48 -10 -3 -19 -11
-19 -18 0 -7 -7 -18 -15 -25 -14 -12 -14 -15 0 -30 14 -15 13 -19 -10 -40
l-24 -23 22 -18 c18 -14 20 -20 9 -31 -15 -15 -49 2 -44 24 2 7 -26 -16 -63
-52 -45 -44 -61 -66 -50 -68 8 -2 18 -15 21 -29 7 -25 7 -25 53 21 52 51 58
53 77 29 13 -17 14 -17 8 0 -5 12 7 29 40 58 28 25 46 48 44 59 -3 18 18 50
34 50 6 0 8 -6 5 -13 -3 -8 3 -14 15 -14 18 -2 19 0 4 22 -15 23 -14 25 11 44
23 19 40 21 144 21 99 0 119 -3 119 -15 0 -8 10 -16 23 -16 57 -4 71 -2 75 10
3 10 -2 12 -17 8 -11 -3 -24 -1 -27 4 -3 5 10 9 29 9 30 0 34 -3 30 -20 -7
-27 11 -25 26 3 l11 22 -6 -22 c-4 -16 -1 -23 9 -23 9 0 17 6 20 13 3 7 88
-71 202 -184 l198 -197 -1 -78 c-1 -123 -4 -155 -16 -151 -6 3 -10 9 -9 14 1
5 -4 10 -11 10 -7 0 -13 -6 -13 -14 0 -7 6 -13 14 -13 7 0 13 -7 13 -15 0 -8
5 -15 10 -15 6 0 10 -15 10 -34 0 -26 5 -35 22 -39 30 -8 58 10 58 38 0 13 3
30 6 39 3 9 2 16 -4 16 -5 0 -12 -9 -15 -21 -7 -28 -52 -23 -52 6 0 17 7 20
53 21 29 1 55 4 58 7 11 11 -7 27 -30 27 -16 0 -23 5 -22 17 1 13 -9 19 -34
23 -32 5 -33 7 -15 16 11 6 26 9 33 7 9 -4 12 17 12 81 0 75 -3 88 -24 112
l-23 28 21 17 c17 15 19 20 8 31 -19 19 -58 -28 -41 -49 16 -18 -12 -49 -35
-40 -23 9 -20 34 5 48 21 11 19 13 -37 71 -53 53 -57 60 -41 69 18 10 18 12 1
30 -15 17 -19 18 -34 4 -15 -14 -19 -12 -46 20 -28 34 -29 34 -34 13 -8 -32
-50 -38 -50 -8 0 14 8 24 21 27 19 5 19 7 -11 38 -24 25 -29 35 -18 41 26 17
62 15 75 -2 8 -10 13 -13 13 -5 0 9 36 11 150 9 95 -2 150 1 150 7 0 6 5 3 10
-5 8 -13 10 -13 10 2 0 12 11 18 38 21 20 3 -15 4 -78 3 l-115 -1 -3 38 c-3
31 0 39 16 44 17 4 19 11 15 46 -8 56 -13 60 -13 9 0 -23 -4 -42 -10 -42 -5 0
-10 21 -10 46 0 27 -4 43 -10 39 -5 -3 -10 3 -10 14 0 14 -6 21 -19 21 -20 0
-35 -25 -26 -41 13 -20 -91 4 -116 28 -24 22 -27 22 -33 7 -4 -11 2 -26 16
-41 18 -19 32 -24 68 -23 65 2 65 3 65 -29 0 -16 -2 -28 -5 -26 -3 1 -14 -1
-25 -6 -14 -5 -7 -8 28 -8 56 -1 63 -18 10 -24 l-38 -4 43 -1 c23 -1 42 -6 42
-12 0 -5 -6 -10 -12 -10 -7 0 -5 -5 5 -11 29 -17 20 -32 -15 -25 -18 4 -51 10
-73 13 -33 5 -36 7 -20 14 17 6 17 8 3 8 -20 1 -25 21 -5 21 9 0 8 3 -2 9 -7
5 -10 14 -7 20 4 6 1 11 -6 11 -9 0 -13 -14 -13 -42 l0 -43 -100 4 c-60 2
-103 8 -107 15 -5 7 -8 5 -8 -6 0 -11 -8 -18 -20 -18 -17 0 -20 7 -20 40 0 27
5 43 15 47 14 5 14 7 -2 18 -20 13 -106 8 -97 -6 3 -5 -54 -9 -133 -9 -148 0
-172 7 -150 41 17 27 -6 48 -32 32 -29 -18 -51 13 -51 70 0 36 5 49 22 61 33
23 71 20 98 -9 25 -27 54 -19 31 8 -13 16 -6 43 17 70 14 16 11 17 -44 17 -43
1 -65 6 -81 19 -27 22 -30 46 -7 55 21 8 14 27 -14 37 -16 6 -20 5 -16 -5 11
-29 -19 -27 -49 3 l-32 31 25 22 24 23 -18 -22 c-11 -13 -14 -23 -9 -23 6 0
16 7 23 15 7 8 17 12 24 8 6 -3 -4 10 -21 28 -42 45 -43 59 -1 24 l31 -27 89
89 c70 71 88 95 91 122 4 37 30 51 46 24 6 -11 10 -12 15 -4 4 6 2 11 -3 11
-6 0 -11 5 -11 11 0 5 5 7 10 4 6 -3 10 -1 10 5 0 7 -7 9 -15 6 -9 -3 -18 1
-22 10 -4 11 12 33 50 70 51 49 60 54 101 54 34 0 46 -4 49 -17 4 -14 5 -12 6
5 0 12 6 22 12 22 7 0 9 -9 6 -22 -5 -20 -5 -21 7 -6 11 15 36 17 209 17 l197
0 1 -152 c0 -84 3 -146 6 -139 6 16 50 16 56 0 3 -7 6 55 6 137 l1 150 93 3
c88 3 93 2 116 -22 14 -14 30 -26 38 -26 7 0 13 -5 13 -11 0 -5 -4 -8 -9 -5
-4 3 57 -59 136 -137 80 -78 159 -159 175 -180 l31 -38 -44 -45 c-41 -42 -44
-43 -63 -26 -12 9 -8 3 7 -14 l28 -31 49 51 49 51 79 -78 c44 -42 85 -77 91
-77 6 0 11 -5 11 -12 0 -18 109 -127 114 -114 2 6 5 4 5 -4 1 -9 21 -36 46
-60 25 -24 45 -49 45 -54 0 -5 -6 -1 -14 10 -14 18 -16 18 -50 -15 -32 -31
-34 -36 -21 -51 8 -9 15 -22 15 -28 0 -6 21 11 46 39 l47 49 -55 58 c-30 31
-119 120 -196 197 -78 77 -142 144 -142 150 1 13 36 55 47 55 4 0 14 9 21 20
7 12 18 18 24 14 6 -4 9 -3 6 2 -3 5 -2 18 3 29 6 17 8 17 8 3 1 -21 21 -24
21 -4 0 21 49 76 68 77 14 0 14 2 2 6 -8 3 -26 15 -40 27 -16 14 -20 15 -11 4
16 -21 17 -19 -68 -104 -97 -98 -98 -99 -118 -83 -10 7 -7 1 6 -14 14 -15 21
-30 18 -34 -9 -8 -58 38 -54 50 1 5 -22 33 -52 62 -42 40 -53 56 -47 71 7 18
8 18 20 2 19 -26 26 -22 26 12 0 28 -3 30 -35 30 -24 0 -35 -5 -35 -15 0 -8
-4 -15 -8 -15 -4 0 -61 54 -126 120 l-119 120 -79 0 c-71 0 -80 2 -85 20 -3
11 -12 20 -19 20 -11 0 -14 24 -14 120 l0 120 462 0 462 0 90 -87 c50 -49 92
-93 94 -98 1 -6 -13 -26 -32 -44 -35 -34 -36 -34 -58 -15 -13 11 -11 5 6 -14
36 -39 27 -55 -11 -21 -15 13 -21 16 -14 6 16 -20 13 -25 -81 -115 -32 -30
-55 -60 -51 -66 3 -6 3 -8 -2 -4 -4 4 -14 3 -22 -3 -10 -9 -19 -7 -36 7 -12
10 -9 4 7 -14 l30 -32 105 102 c58 57 110 109 115 117 4 7 22 26 40 41 27 25
33 27 47 14 20 -18 53 -18 69 1 7 8 17 12 23 8 6 -4 7 -1 2 7 -5 8 1 19 16 31
20 15 21 19 7 19 -10 0 -18 -5 -18 -11 0 -5 -6 -7 -12 -3 -7 4 -10 4 -6 0 4
-5 -4 -19 -18 -33 l-24 -24 -28 19 c-15 11 -37 31 -50 45 -19 20 -20 26 -9 35
11 9 21 4 46 -23 26 -29 35 -33 50 -25 18 9 36 40 24 40 -4 0 -14 -7 -24 -16
-16 -15 -18 -13 -30 24 -10 35 -14 39 -26 26 -15 -15 -33 -11 -33 8 0 5 7 7
16 4 9 -3 12 -2 9 5 -4 6 -13 8 -20 5 -8 -3 -47 27 -90 70 l-77 74 -479 0
-479 0 0 116 0 116 106 106 c59 59 112 105 118 104 6 -2 8 -1 4 3 -8 8 283
305 299 305 6 0 14 -6 16 -12 4 -8 6 -7 6 4 1 9 -3 18 -8 20 -5 2 -3 9 5 16
12 11 16 9 23 -10 l10 -23 0 23 c1 12 -4 22 -11 22 -6 0 19 30 55 67 37 37 67
70 67 75 0 4 8 8 18 8 10 0 22 4 28 10 9 9 103 12 310 8 103 -3 120 -1 117 12
-3 12 -21 14 -96 12 -51 -2 -96 -8 -101 -13 -14 -13 -26 -11 -26 4 0 9 -27 12
-97 13 -54 1 -106 3 -115 4 -20 4 -25 20 -6 20 6 0 8 3 4 7 -4 5 -14 -1 -22
-11 -13 -18 -14 -12 -14 55 l0 76 -30 -5 c-31 -4 -32 -17 -2 -17 14 0 17 -11
19 -58 1 -57 1 -59 -23 -53 -14 4 -24 2 -24 -4 0 -5 11 -10 25 -10 18 0 25 -5
25 -20 0 -25 -37 -27 -43 -2 -4 14 -5 14 -6 -3 -1 -12 -140 -159 -346 -365
-246 -246 -345 -352 -345 -368 0 -13 -6 -22 -15 -22 -8 0 -15 -7 -15 -15 0 -9
7 -18 15 -21 11 -5 15 -22 15 -70 0 -57 -2 -64 -20 -64 -12 0 -20 -7 -20 -16
0 -9 9 -18 20 -21 11 -3 20 -10 20 -16 0 -6 3 -7 7 -3 4 3 6 45 5 91 -1 75 1
85 16 85 15 0 17 -10 16 -74 -1 -41 -5 -79 -9 -85 -3 -6 1 -11 9 -11 10 0 16
-9 16 -21 0 -18 -5 -21 -30 -17 -28 4 -30 2 -29 -26 1 -24 3 -26 6 -8 6 31 21
28 26 -5 l4 -28 2 28 c0 15 5 27 10 27 5 0 10 -47 10 -105 0 -67 -4 -105 -11
-105 -6 0 -8 13 -6 30 3 17 1 33 -4 36 -7 5 -12 -25 -9 -53 1 -7 -3 -13 -8
-13 -5 0 -12 21 -14 48 -3 39 -4 36 -4 -18 -1 -36 1 -59 4 -52 6 16 38 15 52
-2 18 -21 -14 -44 -40 -28 -15 10 -19 9 -19 -3 0 -12 -22 -14 -139 -12 -77 1
-138 0 -136 -3 6 -10 -129 2 -149 12 -12 7 -22 6 -29 -1 -6 -6 -29 -11 -52
-11 -36 0 -47 -6 -100 -60 -46 -47 -57 -62 -47 -72 16 -16 15 -29 -2 -22 -8 3
-17 13 -19 22 -3 10 -5 -8 -6 -39 -1 -44 -6 -60 -24 -77 -13 -12 -27 -22 -31
-22 -4 0 5 10 19 23 l26 22 0 294 c-1 162 -3 297 -6 299 -3 3 1 12 7 21 7 9 0
5 -14 -8 -15 -13 -32 -20 -40 -16 -7 3 -5 0 5 -8 15 -13 17 -35 17 -191 0
-150 2 -176 15 -176 8 0 15 -4 15 -9 0 -5 -7 -11 -15 -15 -12 -4 -15 -24 -15
-90 l0 -85 -53 -53 c-66 -66 -103 -97 -92 -79 5 9 3 12 -6 9 -8 -3 -13 -10
-12 -15 1 -6 -10 -8 -24 -5 -19 4 -31 -1 -44 -19 l-18 -24 -404 403 c-353 353
-403 407 -401 430 l4 27 -9 -25 c-8 -23 -9 -21 -11 15 -2 38 -3 39 -9 10 -15
-70 -26 7 -26 187 0 161 2 187 15 185 8 -1 19 8 25 20 6 14 20 23 40 26 l30 4
-32 1 c-28 2 -32 6 -36 35 l-4 32 -1 -32 c-1 -22 -7 -33 -17 -33 -12 0 -15 18
-15 98 0 53 -4 102 -8 109 -5 8 -48 13 -135 14 -70 1 -130 6 -133 11 -9 14 16
38 32 31 11 -4 14 5 14 37 0 35 -2 40 -14 31 -10 -9 -16 -8 -26 3 -15 20 -3
39 21 33 17 -5 19 1 19 42 0 43 -2 48 -22 47 -14 -1 -23 5 -23 14 0 9 9 15 23
14 34 -1 27 22 -23 69 -25 24 -45 46 -45 50 0 3 12 5 28 4 18 -1 27 3 27 13 0
20 -29 24 -45 5z m3060 -1200 c0 -12 -59 -15 -407 -17 -225 -2 -418 -1 -430 1
-13 2 -23 10 -23 17 0 12 71 14 430 14 370 0 430 -2 430 -15z"/>
<path d="M3228 6564 c-15 -15 -8 -26 102 -136 69 -70 120 -130 123 -145 2 -14
2 -53 0 -87 -5 -53 -3 -63 11 -63 14 0 16 14 16 92 l0 91 -42 44 c-23 25 -45
44 -50 42 -5 -1 -7 2 -4 7 3 5 -28 41 -70 80 -41 39 -72 75 -69 81 9 15 1 12
-17 -6z"/>
<path d="M5916 6165 c-8 -8 -34 -15 -58 -16 -24 0 -37 -3 -30 -6 8 -3 12 -32
12 -96 0 -89 -1 -92 -32 -124 -21 -22 -29 -36 -22 -43 7 -7 22 3 47 28 36 37
36 37 40 137 l3 100 2 -100 2 -101 -40 -39 c-37 -36 -39 -40 -23 -57 21 -24 9
-36 -15 -15 -17 16 -21 14 -62 -28 -33 -33 -41 -48 -33 -56 8 -8 22 -1 52 29
22 22 48 39 58 38 11 0 17 5 17 16 -1 10 16 35 37 55 l39 38 0 113 c0 89 3
112 14 112 8 0 16 7 20 15 3 8 1 15 -4 15 -5 0 -15 -7 -24 -15z"/>
<path d="M1570 5836 c0 -9 -7 -19 -16 -23 -12 -4 1 -23 56 -78 48 -49 68 -74
59 -78 -10 -4 -10 -6 -1 -6 21 -2 26 -4 55 -30 l27 -24 0 -217 0 -217 25 5
c20 3 25 0 25 -17 0 -23 -35 -30 -43 -8 -3 6 -6 2 -6 -10 -1 -19 -7 -23 -33
-24 l-33 -2 35 -7 35 -7 -32 -2 c-41 -1 -44 -21 -3 -21 l30 0 0 -195 0 -195
-37 -2 -38 -1 33 -4 c36 -5 51 -25 33 -47 -9 -11 -6 -12 14 -8 20 3 25 0 25
-16 0 -17 -6 -19 -37 -17 -21 1 -44 0 -50 -2 -18 -7 -16 -23 3 -23 8 0 13 -4
10 -8 -2 -4 -1 -14 4 -22 7 -11 12 -11 23 -2 8 7 23 10 33 6 16 -5 16 -4 4 5
-13 9 -13 12 -1 23 11 11 13 11 6 -1 -5 -10 -4 -12 4 -7 6 4 9 11 6 15 -2 5 2
17 10 27 10 13 14 47 15 111 0 79 2 92 18 96 16 4 16 5 0 6 -16 1 -18 14 -18
131 l0 130 25 0 c34 0 32 20 -2 21 l-28 1 30 8 30 8 -27 1 c-22 1 -28 6 -28
25 0 14 10 30 25 40 14 9 25 12 25 6 0 -5 8 -10 18 -9 10 0 12 3 5 6 -14 5
-18 24 -5 22 4 -1 22 -1 40 0 29 1 32 4 32 32 0 24 4 30 18 27 12 -3 16 -12
15 -31 l-2 -27 94 0 c65 0 95 -4 98 -12 4 -10 6 -10 6 0 1 18 19 15 43 -8 18
-16 19 -22 8 -35 -11 -13 -10 -14 10 -7 30 11 34 39 9 65 -22 24 -24 38 -7 55
9 9 -11 12 -91 12 -90 0 -102 -2 -91 -15 15 -18 6 -45 -15 -45 -21 0 -30 27
-15 45 11 13 1 15 -77 15 l-90 0 5 -26 c5 -26 -13 -48 -30 -38 -13 8 -9 52 5
57 6 3 2 6 -11 6 l-23 1 2 172 1 172 -121 120 c-74 73 -121 113 -121 102z"/>
<path d="M2267 5276 c-4 -9 -2 -16 3 -16 14 0 12 -34 -2 -48 -9 -9 22 -12 143
-12 188 0 200 3 197 41 l-2 29 -85 0 c-61 0 -82 -3 -74 -11 15 -15 4 -51 -16
-47 -10 2 -16 13 -16 31 1 26 -1 27 -57 27 -32 0 -61 0 -64 -1 -4 0 -10 5 -14
11 -5 8 -9 7 -13 -4z"/>
<path d="M2730 5270 c0 -5 -13 -7 -29 -4 -21 5 -34 1 -50 -15 -23 -23 -27 -47
-10 -53 7 -2 7 -12 0 -33 -10 -28 -10 -29 4 -11 8 11 15 17 15 13 0 -4 8 -3
18 2 22 12 43 -4 35 -25 -3 -9 2 -14 15 -14 28 0 45 -25 39 -57 -4 -16 -4 -22
-1 -15 3 6 13 12 21 12 19 0 164 -140 157 -151 -3 -5 18 -9 46 -9 l51 0 -3
-67 c-3 -67 -3 -67 -33 -69 -70 -3 -71 -4 -28 -24 23 -11 48 -29 56 -40 13
-19 14 -19 15 9 1 26 -3 30 -29 29 -16 -1 -32 2 -36 5 -3 4 10 7 30 7 20 0 37
5 37 11 0 6 5 7 13 2 6 -4 20 -6 30 -5 9 2 17 -1 17 -7 0 -6 -6 -8 -13 -5 -8
3 -20 -2 -27 -11 -15 -18 -5 -34 12 -17 9 9 16 8 28 -3 16 -14 21 -12 54 25
20 22 40 40 46 40 28 0 1 98 -34 122 -23 16 -27 7 -5 -10 15 -13 20 -25 16
-36 -9 -22 -29 -16 -43 13 -8 16 -13 19 -17 9 -4 -8 -6 -7 -6 5 -1 17 -2 17
-17 2 -21 -21 -31 -11 -13 12 13 16 12 17 -3 4 -16 -12 -26 -5 -97 65 -75 73
-83 79 -123 79 -42 0 -43 1 -46 38 -3 29 -7 37 -23 37 -17 0 -18 3 -9 21 8 15
8 24 0 34 -13 16 -4 58 11 50 5 -4 9 5 9 19 0 24 -4 26 -40 26 -22 0 -40 -4
-40 -10z"/>
<path d="M178 5038 l3 -203 31 -32 c18 -18 42 -33 54 -33 12 0 25 -6 27 -12 3
-8 6 -6 6 5 1 25 21 21 22 -5 1 -17 2 -19 6 -5 3 13 15 17 54 17 28 0 49 -5
49 -11 0 -5 5 -7 12 -3 8 5 9 2 5 -10 -4 -10 -3 -15 3 -11 6 3 10 13 10 22 0
12 10 14 50 11 28 -1 50 0 50 5 0 4 5 7 11 7 7 0 9 -10 7 -25 -3 -13 -1 -22 3
-19 5 3 9 12 9 20 0 12 11 14 50 13 28 -2 50 -7 50 -11 0 -5 5 -6 12 -2 8 5 9
2 5 -10 -4 -10 -3 -15 3 -11 6 3 10 13 10 22 0 12 10 14 50 11 28 -1 50 0 50
5 0 4 5 7 11 7 7 0 9 -10 7 -25 -3 -13 -1 -22 3 -19 5 3 9 12 9 20 0 8 4 14
10 14 5 0 11 35 13 78 l3 77 2 -84 c3 -113 20 -94 23 24 1 50 1 95 -1 100 -1
6 -2 31 -1 58 l1 47 40 0 c22 0 40 5 40 10 0 6 -22 10 -50 10 l-49 0 -4 -62
-3 -63 0 65 1 65 55 6 55 6 -62 1 -63 2 0 -80 c0 -73 2 -80 20 -80 11 0 20 -5
20 -11 0 -6 -10 -9 -22 -7 -22 4 -23 3 -20 -73 l3 -78 -304 0 -304 0 -32 33
-32 33 3 196 c2 127 -1 197 -7 197 -6 0 -9 -72 -7 -202z"/>
<path d="M6258 4785 l3 -115 -120 0 c-101 0 -121 2 -121 15 0 9 -9 15 -25 15
-18 0 -25 -5 -25 -19 0 -11 6 -22 13 -24 7 -3 5 -6 -5 -6 -13 -1 -18 7 -18 25
0 14 -4 23 -10 19 -6 -4 -8 -11 -5 -16 4 -5 -77 -9 -204 -9 -184 0 -210 -2
-205 -15 5 -13 54 -15 378 -13 l371 3 5 128 c5 122 4 127 -15 127 -19 0 -20
-6 -17 -115z"/>
<path d="M933 4750 c-5 -19 -14 -24 -40 -21 -10 1 -13 -31 -13 -133 0 -112 2
-134 14 -130 8 3 17 1 21 -5 3 -7 -2 -11 -14 -11 -24 0 -22 42 -21 -650 l0
-305 -95 -95 c-52 -52 -95 -101 -96 -110 0 -10 -2 -11 -6 -3 -3 8 -20 -5 -43
-32 l-39 -45 1 -120 c0 -66 4 -120 9 -120 5 0 9 -5 9 -11 0 -5 -5 -7 -11 -4
-7 5 -10 -16 -8 -62 2 -83 0 -94 -11 -68 -8 19 -9 19 -9 -2 -1 -17 5 -23 19
-23 22 0 24 23 20 283 l-2 128 139 140 138 140 5 174 c3 102 1 175 -4 175 -5
0 -1 9 9 20 10 11 27 20 38 20 15 0 18 -5 14 -26 -3 -16 -1 -22 5 -16 20 20 4
47 -30 50 l-32 3 0 95 c0 87 1 94 20 94 15 0 20 7 20 25 0 14 -4 25 -9 25 -6
0 -10 122 -10 294 l-1 294 98 -2 97 -1 0 27 c0 14 -3 24 -7 21 -5 -2 -8 -11
-8 -19 0 -19 -126 -20 -133 -1 -3 7 -6 5 -6 -5 -1 -10 -6 -18 -12 -18 -7 0 -9
10 -7 25 6 30 -2 34 -9 5z"/>
<path d="M4577 4570 c-4 -14 -7 -38 -7 -53 0 -16 -7 -30 -15 -34 -22 -8 -26
-1 -27 46 l0 41 -92 -2 c-50 0 -77 -3 -59 -5 25 -3 31 -8 26 -21 -6 -15 -5
-15 11 1 10 10 33 17 56 17 35 0 39 -3 45 -31 5 -22 3 -34 -6 -40 -12 -8 -12
-11 1 -18 8 -5 18 -7 24 -4 5 4 7 -1 3 -9 -4 -12 -1 -14 14 -11 10 3 19 8 19
12 0 4 27 8 60 9 49 1 64 -2 87 -22 l27 -23 24 28 c27 33 50 37 59 12 4 -10
28 -38 55 -61 l48 -44 -25 -30 c-14 -16 -25 -34 -25 -40 0 -5 12 4 26 21 27
32 48 39 59 20 10 -15 -34 -59 -59 -59 -12 0 -16 -3 -10 -8 6 -4 14 -14 17
-22 4 -12 6 -11 6 3 1 27 19 20 24 -10 3 -21 4 -18 6 12 1 26 4 35 10 27 5 -8
7 -27 6 -43 -3 -31 11 -40 18 -11 4 16 5 16 6 0 0 -10 6 -18 13 -18 9 0 9 -3
0 -12 -7 -7 -12 -41 -12 -85 0 -60 3 -71 15 -67 12 5 15 26 15 99 0 65 4 95
13 98 6 3 -3 6 -20 6 -25 1 -33 6 -33 19 0 14 9 19 37 20 44 3 43 2 48 38 2
16 2 23 -1 17 -3 -8 -23 -13 -45 -13 -24 0 -38 4 -34 10 3 6 20 10 37 10 26 0
29 2 18 15 -9 11 -16 13 -24 5 -20 -20 -92 -8 -79 14 3 6 3 8 0 5 -4 -3 -51
39 -105 93 l-98 98 -71 0 c-47 0 -73 4 -75 12 -3 7 -7 1 -11 -12z"/>
<path d="M1255 4378 c5 -13 2 -18 -12 -18 -16 0 -19 -7 -18 -40 1 -22 3 -41 6
-44 5 -5 101 -9 197 -7 65 1 72 3 72 21 0 11 5 20 11 20 6 0 9 -10 7 -23 -4
-20 -1 -23 25 -19 29 5 29 4 27 -39 -2 -24 -2 -56 -1 -71 l1 -28 134 0 c98 0
135 3 139 13 3 9 -24 11 -124 9 -108 -3 -129 -1 -129 12 0 8 -6 17 -12 19 -10
4 -10 7 0 15 8 6 12 24 10 48 -2 33 -7 40 -28 42 -13 2 -29 11 -36 19 -12 17
-34 10 -34 -11 0 -19 -111 -8 -127 13 -9 13 -10 11 -6 -12 3 -16 1 -27 -6 -27
-6 0 -11 10 -12 23 0 12 -3 16 -6 10 -3 -8 -23 -13 -49 -13 -41 0 -44 2 -44
26 0 15 8 33 18 40 14 10 15 15 4 26 -11 11 -12 10 -7 -4z"/>
<path d="M5351 4312 c-231 -2 -262 -4 -251 -17 10 -13 52 -15 251 -15 232 0
239 -1 239 -20 0 -19 -8 -20 -262 -23 l-263 -2 271 -3 271 -2 -1 22 c-1 15 7
25 26 32 25 9 37 -1 231 -195 112 -113 210 -203 217 -201 7 3 11 -1 9 -7 -3
-7 40 -57 94 -112 86 -87 99 -104 95 -129 -3 -20 -1 -27 9 -23 7 3 13 17 13
32 0 20 -28 54 -116 144 -102 103 -113 117 -90 117 21 0 26 5 26 25 0 14 -4
25 -10 25 -5 0 -10 -9 -10 -20 0 -12 -7 -20 -16 -20 -13 0 -14 3 -4 15 10 12
9 16 -5 21 -10 4 -21 1 -26 -7 -6 -11 -20 -2 -61 39 -30 28 -59 52 -66 52 -7
0 -12 6 -12 13 0 22 -243 254 -270 258 -14 2 -144 3 -289 1z"/>
<path d="M145 4240 c-10 -11 -13 -20 -7 -20 9 0 12 -35 12 -115 0 -108 -1
-115 -20 -115 -13 0 -20 -7 -20 -19 0 -11 9 -23 20 -26 25 -8 26 -24 3 -40
-16 -12 -14 -12 10 -8 16 3 27 1 27 -6 0 -6 -10 -11 -22 -12 -13 0 -17 -3 -10
-6 17 -7 17 -149 0 -156 -7 -3 -3 -6 10 -6 21 -1 33 -21 12 -21 -5 0 -10 -9
-10 -19 0 -11 -6 -22 -12 -24 -7 -3 -3 -6 10 -6 21 -1 33 -21 12 -21 -6 0 -10
-101 -10 -284 l0 -284 60 -4 60 -3 -1 35 c-1 19 -3 27 -6 18 -2 -10 -12 -18
-21 -19 -14 0 -13 -2 3 -9 15 -6 8 -9 -27 -9 l-48 -1 1 577 c1 428 4 580 12
585 9 5 8 12 -4 23 -14 14 -17 14 -34 -5z"/>
<path d="M3211 4206 c-32 -33 -48 -42 -64 -38 -33 8 -47 22 -39 40 3 9 -9 0
-27 -20 -47 -54 -100 -51 -102 6 l-2 31 -6 -35 -6 -35 -137 -3 c-81 -1 -138
-7 -138 -12 0 -6 7 -10 15 -10 8 0 15 -9 15 -20 0 -16 7 -20 35 -20 28 0 35 4
35 20 0 18 7 20 84 20 47 0 87 -4 90 -8 3 -5 -16 -29 -42 -53 -26 -24 -36 -32
-22 -16 31 36 15 57 -22 27 -15 -11 -31 -20 -37 -20 -6 0 -11 -7 -11 -16 0 -9
-5 -12 -12 -8 -6 4 -8 3 -5 -3 3 -5 -10 -25 -31 -44 -34 -31 -35 -32 -12 -4
l25 30 -27 -24 c-21 -19 -25 -27 -17 -38 6 -7 17 -13 23 -13 13 0 63 48 59 56
-2 2 -3 12 -2 22 0 14 2 14 9 -3 6 -15 1 -27 -21 -50 -31 -33 -40 -56 -12 -34
15 13 15 12 4 -9 l-13 -24 31 23 c16 12 32 28 35 36 3 8 11 11 17 7 7 -4 -2
-19 -26 -41 -20 -18 -35 -38 -33 -44 2 -5 21 8 42 30 30 30 36 44 31 61 l-7
22 -24 -23 c-13 -12 -24 -18 -24 -12 0 20 39 44 67 41 20 -2 29 -9 31 -25 2
-14 -2 -23 -10 -23 -15 0 -40 -35 -31 -43 3 -4 13 4 23 16 16 19 20 20 35 7
10 -8 25 -14 34 -13 9 2 23 -1 31 -7 12 -8 9 -15 -20 -45 l-34 -35 -41 40 -41
40 -34 -35 c-19 -19 -29 -35 -23 -35 6 0 16 7 23 16 12 13 19 9 62 -33 l48
-47 53 52 c55 55 71 62 81 37 7 -18 36 -20 36 -2 0 7 -20 33 -45 57 -24 24
-41 48 -38 53 3 6 1 7 -4 4 -6 -4 -18 2 -27 12 -15 16 -15 19 -1 31 12 10 15
10 15 -3 0 -9 4 -18 9 -21 4 -3 7 6 5 21 -2 18 9 39 34 69 37 45 62 56 62 29
0 -8 8 -15 18 -14 10 0 12 3 5 6 -7 2 -13 14 -13 25 0 13 5 18 14 15 12 -5
106 79 106 96 0 16 -18 5 -59 -37z"/>
<path d="M4910 3997 l0 -27 -95 0 c-91 0 -95 -1 -86 -19 9 -16 20 -19 70 -17
54 2 60 1 63 -18 2 -12 9 -20 16 -18 6 1 13 -4 13 -10 1 -7 5 1 9 17 4 18 8
-41 9 -142 l1 -173 -238 0 -238 0 1 -27 c0 -21 -5 -28 -20 -28 -15 0 -20 7
-20 25 0 17 -7 27 -20 30 -16 5 -21 16 -23 62 l-3 55 -32 -6 -32 -7 4 -63 3
-63 -55 -57 -55 -56 -4 -96 c-3 -72 -1 -93 7 -82 16 21 50 12 50 -12 0 -15 -7
-20 -27 -20 -16 1 -28 -2 -29 -5 0 -3 -2 -54 -4 -115 -2 -60 -4 -113 -4 -117
-2 -15 -21 -8 -21 7 0 9 -9 15 -25 15 -23 0 -24 -2 -13 -22 7 -13 19 -27 26
-31 6 -4 12 -16 12 -26 0 -14 -7 -18 -32 -17 -24 2 -33 6 -32 19 1 9 -2 14 -7
11 -5 -3 -9 -11 -9 -19 0 -7 -6 -16 -12 -18 -7 -3 -4 -6 7 -6 16 -1 11 -10
-28 -49 -44 -45 -46 -48 -27 -60 22 -14 26 -38 8 -45 -19 -7 -48 22 -41 41 4
12 1 12 -10 -3 -9 -11 -17 -15 -17 -7 0 6 -4 12 -10 12 -5 0 -6 -7 -3 -17 5
-12 3 -14 -7 -8 -9 6 -11 4 -5 -4 4 -8 -5 -25 -23 -44 l-31 -32 29 -2 c29 -2
40 10 20 22 -18 11 1 27 25 21 13 -3 27 -2 30 4 3 5 12 10 18 10 11 -1 -35
-46 -83 -82 -27 -20 -19 -38 15 -36 27 3 35 18 10 18 -15 0 82 99 98 100 4 0
7 5 7 10 0 6 45 54 100 106 71 69 100 103 100 120 0 16 4 22 14 18 18 -7 31
15 17 29 -6 6 -11 22 -11 37 0 24 -1 23 -17 -8 -12 -24 -22 -32 -37 -30 -27 4
-34 38 -9 44 16 4 19 16 21 71 1 37 5 69 8 72 3 3 4 -29 3 -72 -1 -42 1 -80 4
-84 4 -3 7 35 7 85 0 84 2 92 19 92 14 0 19 6 18 20 -1 14 -6 18 -19 14 -16
-5 -18 2 -18 71 0 63 3 76 14 72 11 -4 13 -1 9 10 -4 11 -3 14 6 9 6 -4 10 -4
9 1 -2 5 14 24 34 42 l37 33 293 -1 293 -1 155 -153 c85 -83 127 -123 92 -86
-34 36 -59 68 -56 72 4 4 1 7 -6 7 -17 0 -200 181 -200 197 0 20 36 35 47 20
18 -22 25 -38 16 -36 -27 5 -22 -6 22 -51 51 -52 72 -63 60 -33 -4 12 5 7 24
-11 17 -16 28 -33 25 -38 -3 -5 0 -7 8 -6 8 2 14 -8 16 -23 2 -15 25 -47 58
-79 29 -30 54 -59 54 -65 0 -6 -27 -37 -59 -69 -49 -49 -60 -55 -64 -40 -3 15
-4 15 -3 -3 1 -13 -21 -44 -57 -81 -45 -47 -57 -67 -57 -92 0 -28 -3 -31 -22
-26 l-23 6 23 -11 c19 -10 22 -21 24 -73 l1 -61 6 55 c4 30 4 59 2 65 -3 5 -4
23 -2 40 3 33 87 129 107 121 7 -3 10 3 7 15 -7 23 25 38 39 18 7 -10 8 -9 4
6 -7 24 57 100 77 92 8 -3 13 5 12 21 0 30 31 43 41 17 5 -11 -29 -52 -117
-141 -68 -68 -125 -129 -127 -134 -2 -6 -11 -10 -20 -10 -14 0 -13 -2 2 -13
10 -7 17 -20 16 -28 -6 -37 1 -99 11 -99 6 0 17 7 25 15 9 8 11 15 6 15 -15 0
-20 56 -8 84 6 14 57 72 114 129 56 57 102 111 102 121 0 12 7 17 23 16 12 -1
86 -2 164 -1 125 1 142 3 136 17 -5 13 -22 15 -104 12 -55 -2 -99 0 -99 5 0 4
47 7 105 7 63 0 105 4 105 10 0 8 -272 18 -312 11 -5 0 -8 3 -8 9 0 5 5 10 12
10 6 0 8 3 4 7 -4 5 -13 0 -20 -10 -12 -15 -29 -1 -175 145 l-161 161 -1 56
c0 31 -3 50 -6 44 -2 -7 -15 -13 -28 -13 l-23 0 -1 176 c0 97 -2 179 -5 182
-4 3 -6 -7 -6 -21z"/>
<path d="M3639 3873 c-2 -23 -2 -24 -6 -5 -2 12 -11 22 -19 22 -17 0 -19 -26
-1 -33 7 -3 5 -6 -5 -6 -12 -1 -18 7 -19 22 -1 16 -2 18 -6 5 -3 -14 -15 -18
-49 -18 -24 0 -43 -4 -41 -9 1 -5 -2 -9 -8 -9 -5 0 -9 4 -7 9 1 5 -72 9 -168
9 -146 0 -169 -2 -164 -15 5 -12 34 -15 173 -15 367 -2 445 1 453 13 5 9 -9
13 -52 15 -43 2 -60 7 -60 17 0 27 -20 26 -21 -2z"/>
<path d="M6616 3751 c-26 -27 -28 -37 -13 -70 1 -2 -5 -5 -14 -6 -12 -2 -15 3
-12 19 3 13 -48 -32 -131 -114 -113 -112 -133 -136 -117 -141 10 -4 21 -14 24
-22 4 -11 -2 -14 -24 -13 -17 1 -28 -2 -26 -9 1 -6 -17 -31 -41 -55 -24 -25
-40 -36 -36 -26 6 15 4 17 -6 11 -8 -5 -11 -4 -6 3 4 6 14 8 23 5 9 -4 14 -2
10 3 -9 15 10 39 29 39 10 0 18 9 19 20 1 11 3 25 5 30 7 30 -1 185 -10 180
-5 -3 -10 -48 -10 -98 l0 -92 -83 -83 -82 -82 -128 0 c-115 0 -153 -8 -112
-24 8 -3 15 -10 15 -15 0 -6 -7 -8 -15 -5 -8 4 -15 1 -15 -5 0 -8 45 -11 143
-11 l144 0 56 58 c74 74 87 85 95 77 3 -3 1 -10 -6 -14 -9 -5 -13 -41 -13
-121 l0 -113 -55 7 c-50 6 -54 5 -54 -14 0 -19 4 -20 53 -15 78 10 77 9 77 64
0 30 -5 51 -12 54 -10 4 -10 6 0 6 8 1 12 21 12 64 0 36 5 68 12 75 9 9 9 12
0 12 -17 0 -15 27 2 33 10 4 16 -3 19 -21 l4 -27 2 28 c1 20 5 26 14 21 8 -5
8 -2 -2 9 -12 16 -9 17 40 19 43 1 47 2 17 5 -21 2 -38 8 -38 12 0 12 105 121
116 121 12 1 48 50 41 56 -3 3 -15 1 -26 -6 -14 -7 -21 -7 -21 0 0 5 7 10 16
10 8 0 12 5 9 10 -3 6 1 17 9 26 14 13 16 13 16 1 0 -9 -5 -17 -12 -19 -7 -3
-5 -7 6 -11 13 -5 37 12 91 63 42 40 83 70 94 70 20 0 21 -6 21 -111 0 -96 2
-110 15 -99 16 13 35 6 35 -15 0 -21 -19 -28 -35 -15 -13 11 -15 -7 -15 -134
0 -97 3 -145 10 -141 6 4 7 12 3 18 -4 7 4 5 17 -4 l25 -16 -1 272 c0 149 -4
277 -8 283 -4 7 -33 12 -70 12 -56 0 -65 -3 -90 -29z"/>
<path d="M2742 3557 c-1 -116 -6 -176 -12 -172 -5 3 -10 28 -10 55 0 27 -3 51
-8 53 -4 3 -7 -17 -6 -44 1 -27 -2 -49 -7 -49 -5 0 -10 69 -11 153 l-2 152 -3
-125 c-3 -84 -8 -127 -16 -132 -9 -6 -9 -8 1 -8 6 0 12 -11 12 -24 0 -18 6
-25 23 -28 14 -2 23 -11 25 -25 4 -28 -23 -31 -39 -5 -10 15 -22 6 -104 -78
-72 -72 -91 -97 -79 -103 16 -9 19 -33 4 -42 -15 -9 -41 14 -34 29 4 6 -21
-17 -56 -50 l-62 -62 -35 39 c-20 22 -40 36 -48 33 -11 -5 -12 -9 -2 -19 7 -7
15 -11 18 -9 3 2 19 -10 34 -27 l29 -29 52 51 c39 38 56 49 67 42 13 -7 6 -18
-39 -63 -29 -30 -54 -59 -54 -64 0 -6 32 21 70 59 39 38 70 64 70 58 0 -7 7
-10 17 -6 12 5 14 3 8 -7 -6 -9 -4 -11 5 -5 10 6 9 11 -6 22 -17 12 -15 16 31
63 27 27 52 46 55 40 3 -5 11 -5 20 0 12 8 12 10 -4 10 -15 0 -9 10 27 47 38
39 48 44 61 34 8 -7 21 -9 27 -5 9 5 8 10 -3 18 -10 8 -13 23 -10 49 4 32 8
37 31 38 26 1 26 1 -4 9 -29 7 -29 8 10 10 l40 3 -35 6 -35 6 -5 140 -6 140
-2 -178z"/>
<path d="M2252 2779 c-2 -72 -1 -76 20 -75 13 1 24 -6 26 -15 4 -20 -28 -34
-39 -17 -4 7 -9 -7 -11 -32 l-3 -45 -90 -6 -90 -5 88 -2 c70 -2 87 -5 87 -17
0 -12 -16 -15 -81 -15 -61 0 -78 3 -73 13 4 6 -2 4 -13 -6 -18 -15 -22 -16
-32 -3 -7 8 -10 20 -6 26 3 5 0 10 -8 10 -10 0 -13 -7 -10 -18 4 -15 -3 -18
-39 -21 -23 -1 -44 -4 -47 -7 -5 -5 114 -7 288 -5 46 1 52 3 41 16 -14 16 -5
35 16 35 20 0 30 -30 13 -42 -10 -6 -7 -7 11 -3 38 11 48 25 22 31 -18 5 -22
13 -22 49 0 34 4 44 20 48 11 3 20 11 19 19 0 10 -2 10 -6 1 -2 -7 -9 -13 -14
-13 -6 0 -7 5 -4 10 3 6 1 10 -4 10 -6 0 -11 18 -11 40 0 30 3 38 14 34 8 -3
17 -1 21 5 3 7 0 8 -9 5 -11 -4 -18 4 -25 28 -8 30 -9 28 -10 -29 -1 -48 -4
-63 -16 -63 -10 0 -15 17 -18 68 l-3 67 -2 -76z"/>
<path d="M1226 2763 c-19 -3 -25 -7 -17 -12 9 -6 14 -53 16 -162 2 -85 4 -157
5 -161 0 -15 40 -8 40 7 0 8 5 15 10 15 15 0 12 -47 -2 -53 -10 -4 -10 -6 0
-6 7 -1 15 6 18 14 9 23 152 21 170 -2 13 -17 15 -17 28 0 7 9 18 17 25 17 6
0 11 7 11 15 0 8 -6 15 -14 15 -8 0 -17 8 -19 18 -3 9 -5 -2 -6 -25 -1 -47
-21 -61 -21 -15 l0 27 -108 0 -107 0 1 158 c1 86 1 156 0 156 -1 -1 -14 -4
-30 -6z"/>
<path d="M3651 2515 c-35 -32 -39 -33 -59 -20 -14 11 -23 12 -27 4 -4 -5 -4
-13 -1 -16 3 -4 6 0 6 7 0 9 6 8 20 -5 23 -21 26 -35 6 -35 -8 0 -37 -25 -65
-56 -47 -51 -50 -58 -37 -73 8 -9 19 -27 24 -41 9 -23 11 -21 77 48 61 64 70
70 81 54 7 -9 16 -14 20 -9 4 4 0 13 -10 20 -16 12 -15 16 21 48 52 48 78 79
67 79 -5 0 -24 -13 -42 -29 -36 -33 -44 -30 -11 5 23 25 20 39 -12 47 -14 4
-32 -5 -58 -28z"/>
<path d="M3353 2313 c-19 -7 -16 -19 9 -43 l22 -20 -22 -23 c-14 -14 -20 -30
-16 -40 7 -18 39 -31 54 -22 5 3 10 0 10 -7 0 -10 3 -9 10 2 6 9 5 17 -3 22
-7 5 -8 8 -1 8 5 0 18 -6 28 -13 17 -13 12 -20 -61 -96 -60 -63 -83 -80 -97
-75 -15 6 -8 16 45 70 35 35 60 64 55 64 -4 0 -32 -25 -62 -56 -30 -31 -54
-53 -54 -48 0 5 21 29 45 53 25 25 45 48 45 52 0 4 -10 14 -23 22 -22 14 -25
13 -56 -18 -18 -19 -30 -38 -27 -43 5 -8 -7 -12 -46 -13 -15 0 -15 -3 -6 -19
7 -11 21 -20 33 -22 12 -2 21 -12 23 -26 3 -20 0 -23 -20 -20 -13 2 -24 11
-26 21 -4 20 -42 63 -42 48 0 -6 5 -13 10 -16 23 -14 -36 -42 -97 -47 -58 -4
-63 -3 -64 16 -1 17 -2 18 -6 4 -4 -16 -24 -18 -211 -20 -257 -2 -249 -2 -258
-10 -4 -4 -2 -14 4 -21 9 -10 -3 -27 -54 -78 -53 -52 -66 -61 -74 -49 -5 8
-10 11 -10 7 0 -5 10 -21 22 -35 15 -19 19 -21 14 -8 -5 14 3 30 31 58 42 43
50 46 56 21 3 -13 5 -12 6 5 2 34 19 62 39 63 13 0 11 3 -5 9 -13 5 -23 14
-23 20 0 13 17 13 25 0 5 -8 11 -8 20 0 8 7 108 10 290 9 l278 0 -104 -105
c-66 -67 -97 -104 -86 -104 10 0 20 -7 23 -15 4 -8 10 -15 14 -15 4 0 59 52
121 115 90 90 116 112 127 103 11 -9 -2 -27 -65 -89 -43 -42 -87 -79 -98 -82
-11 -2 70 -4 180 -4 l200 1 -173 6 -174 5 89 86 c48 47 125 125 171 173 46 47
87 84 92 81 4 -3 13 2 20 10 10 12 10 18 0 30 -6 8 -9 23 -5 35 10 30 -13 80
-37 80 -10 0 -21 -7 -24 -15 -8 -21 -27 -19 -42 5 -12 20 -18 22 -39 13z"/>
<path d="M2395 1818 c4 -9 -15 -34 -50 -67 -51 -48 -55 -55 -55 -98 0 -40 -2
-45 -20 -40 -11 3 -18 1 -14 -4 3 -5 18 -9 35 -9 37 0 39 -20 2 -21 -16 0 -22
-3 -15 -6 27 -11 12 -33 -22 -33 -19 0 -37 -4 -40 -9 -4 -5 2 -7 13 -4 23 6
38 -14 22 -30 -9 -9 -16 -9 -30 0 -17 11 -18 7 -19 -71 0 -46 -3 -92 -6 -104
-9 -28 25 -48 55 -32 11 7 18 14 15 17 -3 3 -12 0 -20 -6 -17 -14 -36 -7 -36
14 0 20 20 29 33 16 19 -19 23 -13 19 29 -3 29 -9 40 -21 40 -14 1 -14 2 2 14
16 12 22 26 26 57 1 3 25 7 55 8 42 1 55 -2 60 -15 10 -25 27 -4 33 40 l5 36
-61 0 c-64 0 -76 11 -43 36 16 13 16 15 0 28 -12 9 -18 27 -18 53 0 36 6 46
59 96 49 47 56 58 45 68 -12 9 -13 9 -9 -3z"/>
<path d="M2941 1770 c-1 -9 -25 -39 -54 -68 l-53 -52 -146 0 c-151 0 -178 -4
-178 -24 0 -22 88 -36 219 -36 l130 0 65 67 66 68 30 -35 c16 -19 41 -48 55
-63 l25 -28 0 -474 c0 -310 3 -475 10 -475 6 0 10 16 10 36 0 23 7 42 18 50
13 11 13 13 1 9 -24 -9 -27 92 -2 110 15 11 16 16 5 27 -11 11 -12 10 -7 -4 4
-11 2 -18 -4 -18 -7 0 -11 24 -11 66 0 38 4 63 9 59 17 -10 24 18 8 30 -15 11
-17 44 -17 296 l0 283 -35 36 c-32 33 -34 38 -20 50 14 12 14 15 -1 32 -16 17
-16 20 7 44 16 17 18 23 7 19 -9 -4 -19 -12 -21 -19 -3 -8 -24 -13 -50 -13
-36 -1 -47 3 -55 20 -7 15 -11 17 -11 7z"/>
<path d="M3610 484 l0 -56 -107 2 c-60 1 -168 1 -240 1 -127 -1 -133 -2 -133
-22 0 -11 -4 -18 -9 -15 -4 3 -7 17 -6 31 2 14 -1 25 -6 25 -5 0 -9 -13 -9
-30 0 -20 -5 -30 -15 -30 -8 0 -15 -8 -14 -17 0 -11 3 -13 6 -5 2 6 18 12 34
12 23 0 29 5 29 21 0 19 5 20 125 17 69 -2 125 0 125 5 0 4 5 7 11 7 5 0 8 -3
6 -7 -3 -5 44 -8 103 -8 59 0 106 3 103 8 -2 4 1 7 6 7 6 0 11 -3 11 -7 0 -5
52 -6 115 -5 78 3 115 0 115 -7 0 -6 9 -11 20 -11 11 0 20 5 20 10 0 6 16 10
36 10 35 0 36 1 30 30 -4 22 -2 29 6 24 7 -4 8 -3 4 5 -12 18 -27 2 -20 -23
l5 -23 -165 -2 -166 -2 0 52 0 51 69 -4 c38 -1 73 1 77 5 4 4 -32 7 -79 7
l-87 0 0 -56z"/>
<path d="M2292 417 c-3 -40 77 -117 122 -118 157 -4 266 -3 266 4 0 4 5 7 11
7 5 0 8 -3 6 -7 -3 -5 72 -7 166 -6 222 3 237 1 237 -37 0 -18 -5 -29 -12 -28
-7 2 -14 -7 -16 -19 -2 -16 2 -23 12 -23 9 0 16 -8 16 -20 0 -14 -7 -20 -22
-20 -20 0 -21 -1 -3 -20 16 -18 20 -18 34 -6 15 14 16 26 11 140 -1 11 5 23
12 27 8 6 1 9 -21 9 -27 0 -32 3 -27 16 5 13 4 14 -7 6 -8 -7 -56 -10 -129 -9
-64 1 -114 -1 -111 -5 2 -5 -3 -8 -12 -8 -9 0 -14 3 -12 8 6 8 -314 6 -350 -3
-14 -3 -22 -2 -19 3 3 5 -6 7 -21 4 -19 -4 -31 1 -45 19 -11 13 -17 18 -13 12
3 -7 2 -13 -3 -13 -5 0 -12 9 -15 21 -3 11 -15 23 -26 26 -13 3 -21 15 -24 37
-4 30 -4 31 -5 3z"/>
<path d="M4600 300 l0 -30 180 0 180 0 0 30 0 30 -180 0 -180 0 0 -30z"/>
</g>
</svg>
