<?xml version="1.0" standalone="no"?>
<!DOCTYPE svg PUBLIC "-//W3C//DTD SVG 20010904//EN"
 "http://www.w3.org/TR/2001/REC-SVG-20010904/DTD/svg10.dtd">
<svg version="1.0" xmlns="http://www.w3.org/2000/svg"
 width="844.000000pt" height="257.000000pt" viewBox="0 0 844.000000 257.000000"
 preserveAspectRatio="xMidYMid meet">
<metadata>
Created by potrace 1.16, written by Peter Selinger 2001-2019
</metadata>
<g transform="translate(0.000000,257.000000) scale(0.100000,-0.100000)"
fill="#000000" stroke="none">
<path d="M7256 2501 c-10 -15 -26 -191 -45 -505 -11 -169 -22 -310 -24 -313
-3 -2 -8 22 -12 55 -8 69 -17 89 -32 70 -25 -31 -31 -160 -23 -518 14 -614 18
-1042 10 -935 -4 55 -8 184 -9 286 -1 173 -2 187 -21 204 -47 43 -154 226
-180 310 -8 24 -15 128 -19 260 -5 186 -8 220 -21 220 -20 0 -26 -145 -10
-282 14 -121 15 -119 -112 -328 -115 -189 -110 -179 -119 -275 -4 -47 -6 165
-5 470 1 465 -1 555 -13 555 -8 0 -21 -23 -30 -55 -22 -69 -26 -59 -46 115
-24 214 -37 423 -33 544 2 85 0 115 -9 118 -10 4 -13 -19 -13 -90 0 -186 -69
-775 -90 -762 -4 2 -10 28 -14 57 -9 66 -23 93 -40 78 -24 -19 -29 -91 -35
-545 l-6 -450 -29 145 c-16 80 -34 159 -41 175 l-13 30 -10 -26 c-28 -70 -37
-231 -37 -656 0 -406 -1 -433 -17 -433 -10 0 -18 7 -18 15 0 11 -11 15 -39 15
-38 0 -38 0 -44 47 -3 26 -2 100 1 166 4 104 7 120 23 124 28 8 31 33 19 160
-12 136 -28 223 -42 241 -14 16 -34 0 -42 -35 l-7 -25 -177 4 c-169 4 -179 5
-229 31 l-53 27 0 195 c0 191 0 195 20 183 10 -7 23 -9 27 -4 4 4 -3 15 -17
24 -14 9 -65 56 -115 104 -79 77 -89 90 -77 105 28 41 30 60 15 146 -19 114
-46 209 -58 208 -24 -1 -35 -315 -13 -351 12 -18 5 -28 -67 -98 -44 -43 -92
-86 -107 -96 -28 -18 -30 -40 -3 -29 11 4 15 -3 16 -23 9 -224 15 -299 24
-297 5 1 15 53 21 116 14 138 19 156 51 168 36 13 166 11 186 -3 12 -10 19
-41 27 -123 5 -60 10 -133 10 -161 0 -42 4 -53 23 -63 12 -7 30 -29 40 -49 15
-30 -5 -14 -97 78 l-115 114 -35 -16 c-18 -9 -76 -57 -127 -106 l-94 -89 -192
-6 -192 -5 -3 36 c-3 32 -7 37 -30 40 -22 3 -28 -2 -33 -20 -8 -34 -25 -244
-25 -311 0 -51 3 -60 20 -64 19 -5 20 -14 20 -153 0 -81 3 -162 6 -179 l7 -32
-78 3 c-78 3 -79 3 -88 33 -5 17 -10 75 -10 129 -2 68 -6 101 -14 103 -9 3
-13 -29 -15 -129 l-3 -133 -56 -3 c-80 -4 -109 9 -109 51 0 43 -18 143 -32
182 -15 39 -47 75 -68 75 -41 0 -68 -71 -79 -205 l-6 -79 -43 -9 c-24 -5 -47
-6 -50 -2 -7 7 -23 337 -17 343 2 2 106 0 231 -4 209 -6 227 -8 231 -25 6 -23
32 -24 59 -4 19 15 19 15 0 30 -11 8 -26 15 -33 15 -10 0 -13 47 -13 228 0
125 3 298 7 384 5 141 8 158 25 164 16 5 15 8 -11 35 -16 16 -36 29 -44 29 -9
0 -41 66 -91 193 -85 213 -146 341 -161 339 -5 0 -13 -17 -16 -36 -8 -48 -54
-139 -144 -281 -41 -66 -82 -139 -91 -162 -28 -73 -28 -73 246 -73 204 0 239
-2 251 -16 12 -14 -7 -15 -202 -10 -118 4 -239 9 -269 11 l-55 5 0 -439 c0
-242 3 -443 7 -447 5 -4 8 -73 8 -154 l0 -146 -72 11 -73 11 -6 99 c-9 140
-10 407 -2 568 5 121 8 137 23 137 10 0 28 8 41 19 l22 18 -21 35 c-23 37
-103 104 -158 131 -17 9 -92 38 -165 65 -100 36 -143 57 -167 82 -24 24 -36
30 -44 22 -8 -8 -8 -15 1 -26 11 -13 7 -16 -26 -23 -21 -4 -402 -8 -848 -8
-640 0 -818 3 -847 13 -33 12 -40 11 -54 -2 -13 -14 -196 -76 -357 -121 -71
-20 -77 -33 -77 -150 0 -66 3 -86 16 -93 13 -7 15 -58 17 -396 l2 -387 -60 5
c-33 3 -62 5 -65 6 -3 0 -3 152 -2 337 2 186 0 354 -5 373 -9 35 -9 35 -79 41
l-69 5 92 2 c104 2 106 4 95 82 -6 40 -10 45 -34 48 -23 3 -28 8 -28 32 0 23
-6 31 -24 36 -21 5 -24 12 -29 81 -7 90 -14 101 -57 83 -36 -15 -50 -43 -50
-99 0 -28 -6 -42 -21 -53 -20 -13 -20 -15 -5 -51 l15 -38 -48 7 -49 6 -9 -53
-8 -54 -60 -3 c-33 -2 -87 -1 -121 3 -60 6 -60 6 -56 36 5 36 -12 59 -44 59
-21 0 -24 4 -24 41 0 32 -4 42 -20 46 -17 5 -20 14 -20 63 0 79 -6 90 -45 90
-43 0 -65 -22 -65 -64 0 -62 -11 -96 -31 -96 -16 0 -19 -8 -19 -44 0 -25 5
-48 11 -51 5 -4 45 -6 89 -6 l78 1 4 -40 4 -41 -101 3 -100 3 -5 40 c-4 32 -9
40 -25 40 -15 0 -22 -10 -29 -37 -10 -40 3 -68 31 -68 12 0 14 -56 11 -390
l-3 -390 -77 0 c-44 0 -78 -4 -78 -10 0 -5 39 -9 95 -8 92 2 95 3 88 22 -6 17
-6 768 0 772 9 6 349 13 343 7 -4 -4 -40 -10 -79 -13 l-72 -5 0 -367 c0 -201
-3 -369 -6 -373 -4 -3 -32 -9 -63 -12 -35 -4 -55 -10 -53 -17 5 -14 117 -20
130 -7 6 6 27 11 46 11 l36 0 0 177 c0 196 9 242 51 262 41 18 108 14 128 -8
21 -23 32 -110 37 -290 l4 -125 -33 -8 c-54 -14 -39 -31 21 -24 69 9 99 9 180
1 46 -5 86 -4 123 5 41 10 73 11 125 4 75 -10 85 -9 68 13 -19 22 -30 271 -24
503 7 256 9 268 42 281 13 5 23 15 20 22 -6 19 -37 21 -56 3 -10 -9 -21 -13
-24 -9 -4 3 -7 48 -7 99 l0 92 72 21 c204 61 306 94 335 111 26 15 39 17 65 9
18 -5 123 -10 233 -10 110 -1 305 -4 434 -8 l233 -6 -88 -38 -89 -37 -465 -11
c-256 -5 -495 -7 -533 -4 -42 5 -67 3 -67 -3 0 -5 7 -12 15 -15 11 -5 15 -29
17 -99 l3 -93 364 3 364 3 66 26 c36 14 140 64 230 111 158 81 166 84 220 80
66 -5 192 -62 351 -159 l105 -64 320 1 c176 0 351 4 388 8 l68 7 -3 -293 c-2
-161 -1 -342 1 -403 l3 -110 -33 3 c-19 2 -37 7 -41 11 -4 3 -15 71 -23 151
-9 80 -19 147 -22 150 -7 7 -406 5 -485 -4 l-67 -6 -6 55 c-4 31 -4 59 0 63 3
4 133 9 287 12 329 6 313 0 284 107 -9 37 -22 73 -27 78 -6 6 -111 9 -278 8
l-269 -1 -4 60 c-3 34 -10 63 -17 68 -30 18 -635 27 -1004 14 -181 -6 -174 -2
-184 -109 -3 -36 -9 -68 -13 -70 -4 -2 -115 5 -246 16 -266 22 -284 20 -284
-31 0 -47 22 -119 39 -126 9 -3 130 -11 269 -17 l253 -11 -6 -45 c-10 -69 -9
-69 -77 -75 -74 -6 -302 -15 -405 -16 l-73 0 0 -59 c0 -84 19 -214 34 -229 18
-18 185 -31 398 -32 184 0 188 0 199 23 9 15 14 126 19 367 5 319 13 405 33
373 16 -26 27 -211 27 -455 0 -310 -9 -288 113 -288 l75 0 7 46 c4 26 3 199
-1 385 l-7 339 60 0 c58 0 61 -1 68 -27 3 -16 9 -188 12 -383 3 -241 9 -359
16 -369 14 -17 146 -8 158 10 17 29 20 166 9 444 -8 180 -9 300 -3 306 10 10
109 16 118 7 15 -14 27 -311 22 -531 -5 -224 -5 -238 13 -247 26 -14 237 -13
246 1 6 10 12 192 24 659 1 43 3 50 10 29 4 -14 11 -177 15 -363 l7 -336 400
0 c297 0 397 3 392 11 -7 12 73 7 150 -8 26 -6 27 -4 17 15 -7 12 -11 76 -11
159 0 94 -4 145 -12 158 -10 15 -12 62 -7 185 3 91 5 279 5 418 l-1 253 80 -5
c44 -3 161 -8 260 -11 99 -4 181 -7 182 -9 2 -2 0 -175 -3 -385 l-7 -381 -146
0 c-80 0 -183 3 -228 7 l-83 6 0 88 0 89 205 -1 c113 0 209 2 214 5 12 8 21
101 15 151 l-6 42 -205 6 c-113 3 -210 10 -214 14 -5 5 -12 45 -15 89 l-7 79
211 0 c160 0 214 3 224 13 8 8 13 38 13 79 l0 67 -35 8 c-43 9 -404 13 -418 4
-19 -11 2 -1081 21 -1113 5 -8 27 -10 65 -6 31 3 58 7 59 8 2 1 8 48 13 104
19 179 56 227 104 134 9 -18 21 -67 27 -110 6 -43 13 -92 15 -109 4 -29 8 -32
51 -38 73 -10 117 -7 140 9 19 13 22 13 27 0 4 -12 26 -15 106 -15 55 0 100 4
100 9 0 5 -6 11 -12 13 -10 4 -14 52 -16 186 -3 173 -5 181 -24 188 -20 6 -21
10 -14 143 9 165 18 227 31 224 6 -1 12 -19 15 -40 l5 -38 150 4 c83 2 159 5
169 7 11 2 30 1 43 -2 22 -6 20 -9 -33 -68 -96 -106 -152 -204 -126 -220 34
-21 268 268 242 299 -7 8 11 32 68 87 42 41 90 83 105 93 l28 18 80 -79 c133
-131 324 -327 356 -363 16 -19 35 -32 43 -29 9 3 -10 28 -52 74 -66 70 -190
226 -184 231 2 2 20 -4 42 -13 29 -12 84 -18 216 -22 l177 -5 19 33 c25 41 27
36 47 -135 20 -171 19 -191 -3 -198 -26 -6 -32 -46 -32 -218 l0 -149 -70 0
-70 0 -1 123 c-1 162 -10 232 -28 232 -21 0 -30 -46 -39 -197 l-7 -133 -60 -8
c-33 -4 -89 -6 -125 -5 l-65 3 -2 270 c-1 149 -6 282 -11 296 -7 17 -23 30
-52 39 -51 17 -63 5 -56 -55 3 -22 8 -82 12 -132 8 -110 2 -115 -63 -51 -52
51 -64 48 -108 -33 l-30 -54 -6 155 c-3 85 -7 156 -7 158 -1 2 -23 2 -49 0
l-48 -3 -3 -286 -2 -287 -31 -6 c-40 -8 -123 -8 -170 0 l-36 6 0 145 c0 154
-8 182 -40 150 -14 -14 -18 -41 -20 -144 -5 -194 -4 -191 -61 -195 -26 -2 -45
-6 -42 -11 3 -4 354 -10 780 -12 524 -4 770 -2 760 5 -8 5 -29 10 -45 10 -17
0 -36 5 -43 12 -18 18 -16 764 2 916 7 62 15 115 18 117 2 3 22 -75 43 -173
36 -162 40 -195 47 -397 10 -276 20 -395 33 -398 15 -3 17 198 5 381 -21 319
-32 918 -20 1081 15 193 23 219 40 128 22 -119 50 -99 73 56 9 56 24 170 34
252 l18 150 7 -75 c40 -375 50 -434 71 -427 7 2 20 24 30 48 17 43 18 29 12
-500 -3 -299 -5 -678 -5 -842 l0 -297 -52 -7 c-89 -10 -108 -16 -108 -31 0
-12 87 -14 594 -14 575 0 595 1 601 19 6 19 39 21 152 7 40 -6 47 2 23 23 -17
14 -27 74 -21 129 1 10 57 12 271 10 l270 -3 0 -61 0 -62 -204 -4 c-113 -2
-208 -7 -212 -11 -19 -19 25 -25 219 -30 164 -5 209 -4 213 6 3 9 19 12 44 10
22 -2 40 2 40 7 0 6 -18 10 -40 10 l-40 0 0 70 c0 53 3 70 14 70 15 0 26 30
26 73 0 21 -6 30 -20 34 -19 5 -20 14 -20 144 0 131 1 140 25 175 30 44 31 54
5 61 -18 5 -20 14 -20 83 0 60 3 79 15 84 19 7 20 26 0 26 -11 0 -15 21 -17
108 l-3 107 -35 0 c-32 0 -35 -3 -45 -39 -9 -30 -13 -36 -18 -22 -4 10 -7 29
-7 42 0 15 -14 39 -35 59 -22 23 -40 55 -50 89 -22 74 -32 81 -102 67 -31 -6
-61 -15 -68 -21 -7 -6 -17 -35 -23 -64 -7 -35 -24 -71 -47 -101 -19 -26 -35
-53 -35 -61 0 -8 -5 -14 -11 -14 -6 0 -9 7 -5 15 15 40 -21 58 -62 29 -21 -15
-22 -20 -20 -150 2 -79 7 -135 13 -137 6 -1 11 13 13 30 l3 33 255 0 254 0 0
-70 c0 -38 1 -73 3 -77 2 -7 -29 -9 -303 -18 -107 -4 -199 -8 -205 -8 -5 -1
-11 8 -13 21 -4 29 -28 28 -48 -3 -18 -28 -16 -35 13 -39 17 -3 18 -17 21
-174 2 -165 2 -171 -19 -182 -16 -9 -19 -17 -14 -38 3 -14 7 -66 8 -114 l2
-88 -66 0 -66 0 -7 222 c-10 306 -21 443 -50 589 -32 168 -44 209 -60 209 -29
0 -85 -279 -96 -479 -6 -115 -7 -88 -4 129 10 657 9 1033 -2 1037 -6 2 -22
-20 -34 -49 l-23 -53 -8 30 c-4 17 -22 185 -39 375 -37 413 -42 450 -60 450
-5 0 -11 -4 -14 -9z m43 -311 c25 -282 49 -517 57 -542 9 -31 31 -20 48 23 9
23 19 39 22 36 3 -3 0 -359 -6 -792 -7 -432 -9 -802 -6 -821 l7 -34 -135 0
-135 0 -1 407 c0 225 -5 581 -10 793 -9 365 -7 490 10 490 4 0 10 -27 14 -60
7 -58 20 -81 36 -64 4 5 17 164 29 354 26 415 32 474 41 463 5 -4 18 -118 29
-253z m-2963 -759 c41 -102 74 -186 74 -188 0 -2 -103 -3 -230 -3 -164 0 -230
3 -230 11 0 18 51 114 137 255 44 72 89 155 99 184 l19 53 29 -64 c16 -35 62
-147 102 -248z m1111 -149 l88 -87 -3 -193 c-1 -105 -6 -192 -10 -192 -5 0
-14 70 -20 155 -7 86 -16 165 -22 175 -6 11 -26 22 -46 26 -45 8 -184 -4 -201
-18 -7 -5 -15 -26 -19 -47 -12 -76 -19 -74 -24 9 l-5 85 85 88 c46 48 86 87
87 87 1 0 42 -39 90 -88z m2714 -86 c17 -45 33 -73 47 -79 25 -11 28 -19 41
-106 6 -35 12 -66 15 -68 10 -10 26 9 26 30 0 48 21 97 40 97 19 0 20 -8 20
-105 l0 -105 -262 2 -263 3 -3 89 c-3 90 2 105 36 106 9 0 12 -13 10 -46 -4
-65 15 -66 42 -2 12 29 35 68 51 85 15 18 31 50 34 70 10 62 22 82 57 92 67
20 80 13 109 -63z m-1211 -156 c34 -68 100 -171 132 -206 17 -19 19 -50 27
-395 4 -206 7 -375 7 -375 -1 -1 -107 -4 -236 -7 l-235 -5 3 272 c2 149 6 325
11 392 l7 121 96 159 c53 87 102 172 109 188 l13 29 17 -54 c9 -30 31 -83 49
-119z m-3490 81 c47 -18 116 -45 155 -59 116 -45 251 -159 214 -183 -29 -18
-49 -10 -49 19 0 38 -20 64 -80 102 -59 38 -59 38 -611 48 l-365 7 -80 40 -79
40 270 7 c149 4 306 9 350 11 143 7 186 2 275 -32z m-3130 -40 c0 -68 6 -91
26 -91 9 0 14 -12 14 -34 0 -33 -1 -33 -51 -39 -77 -9 -109 0 -109 32 0 15 8
31 19 38 14 9 21 29 26 75 9 77 9 78 46 78 29 0 29 0 29 -59z m4048 43 c31 -5
32 -6 32 -54 0 -78 -5 -80 -193 -80 -89 0 -179 3 -199 6 l-38 7 0 63 c0 61 1
63 28 67 36 5 328 -2 370 -9z m-1812 -8 c11 -8 49 -29 84 -47 l65 -33 420 -8
c231 -4 443 -10 470 -13 69 -8 149 -67 153 -112 2 -25 -1 -32 -20 -37 -13 -3
-183 -9 -378 -12 l-355 -6 -95 57 c-161 98 -309 165 -373 172 -57 6 -58 5
-280 -103 l-222 -109 -160 -7 c-167 -7 -565 -11 -571 -6 -1 2 -4 41 -5 88 l-2
85 174 2 c96 1 329 4 518 8 l344 6 51 26 c43 22 138 60 156 62 3 1 15 -5 26
-13z m5013 -274 c31 -161 51 -426 51 -671 0 -126 7 -118 -105 -113 l-74 4 5
306 c5 315 14 407 56 587 25 108 26 107 67 -113z m-6563 64 c1 0 5 -20 9 -43
l7 -43 -131 0 c-108 0 -131 -3 -139 -16 -11 -20 -58 -15 -54 6 2 8 7 33 11 55
8 46 8 46 153 32 61 -5 80 -4 90 8 10 11 43 12 54 1z m1196 -341 c5 -126 7
-293 5 -370 l-2 -140 -75 0 -75 0 -6 315 c-3 173 -9 326 -12 340 -20 84 -22
79 30 83 27 2 66 3 88 3 l40 -1 7 -230z m314 38 c11 -248 12 -549 1 -559 -4
-5 -36 -10 -71 -12 l-63 -4 -6 358 c-3 198 -9 371 -13 387 l-6 27 75 0 75 0 8
-197z m420 191 c19 -5 20 -10 13 -56 -5 -27 -11 -176 -14 -331 -3 -155 -8
-306 -11 -335 l-6 -53 -111 3 -112 3 -1 340 c-1 187 -6 361 -11 388 l-10 47
121 0 c66 0 130 -3 142 -6z m-971 -26 c-4 -13 -10 -180 -14 -371 -6 -332 -7
-350 -26 -363 -16 -12 -51 -14 -195 -9 -171 6 -359 20 -366 28 -7 7 -24 143
-24 198 l0 56 98 6 c53 4 149 7 212 8 120 0 214 10 227 23 4 4 9 38 11 75 l4
68 -221 7 c-122 3 -241 9 -265 12 -42 6 -43 8 -60 61 -16 50 -16 57 -2 71 13
14 34 14 203 -2 103 -9 218 -16 255 -16 76 0 71 -6 83 99 3 30 8 58 11 63 3 4
21 8 41 8 32 0 35 -2 28 -22z m1083 -38 c2 -30 8 -60 13 -66 8 -9 70 -11 253
-7 133 3 255 3 269 -1 22 -5 29 -16 42 -61 28 -96 49 -89 -272 -95 -168 -3
-286 -9 -292 -15 -5 -6 -7 -42 -4 -84 l6 -73 36 6 c20 3 143 9 273 13 l237 6
9 -24 c5 -13 15 -82 22 -152 14 -139 18 -147 79 -147 16 0 33 -4 36 -10 7 -12
-713 -14 -732 -2 -9 6 -15 103 -22 367 -6 198 -13 370 -17 383 -6 22 -4 23 27
20 34 -3 34 -4 37 -58z m1342 33 c7 -7 6 -140 -1 -148 -12 -11 -212 -18 -311
-10 l-97 7 -3 85 c-2 47 -2 85 -1 86 4 4 409 -15 413 -20z m-3639 -218 c4
-126 8 -293 9 -370 l2 -140 -34 -3 -35 -3 -6 185 c-6 195 -17 245 -55 265 -33
17 -104 13 -139 -9 -47 -28 -58 -76 -58 -268 l0 -162 -26 0 -26 0 -2 364 -2
365 33 4 c18 2 101 4 183 3 l150 -1 6 -230z m227 -90 c2 -171 0 -334 -3 -362
l-6 -53 -93 0 -93 0 -6 203 c-4 111 -7 275 -7 365 l0 163 103 -3 102 -3 3
-310z m7353 30 c-1 -99 -4 -181 -5 -181 0 -1 -116 -4 -256 -6 l-255 -5 3 176
c2 97 5 177 5 178 3 2 404 18 462 18 l50 0 -4 -180z m-2822 151 c28 -15 28
-16 34 -137 4 -67 7 -198 7 -291 0 -165 0 -169 23 -179 15 -6 -56 -8 -222 -4
-134 3 -301 5 -370 5 l-126 0 3 127 c1 71 5 144 9 163 l6 35 9 -35 c4 -19 7
-87 6 -150 l-3 -115 68 -8 c37 -5 97 -5 135 0 l67 8 3 288 2 288 33 -3 32 -3
3 -157 c3 -185 10 -195 69 -93 20 36 40 65 44 65 4 0 30 -21 59 -47 51 -45 53
-46 67 -27 15 19 15 36 -3 222 -7 68 -3 72 45 48z m2821 -390 c0 -30 -4 -35
-31 -41 -51 -11 -512 6 -500 18 6 6 11 19 11 28 0 24 20 25 293 27 l227 2 0
-34z m-716 -215 c10 -16 -149 -21 -632 -21 -458 0 -598 8 -369 21 165 9 996 9
1001 0z"/>
</g>
</svg>
